<svg xmlns="http://www.w3.org/2000/svg" width="512" height="512" viewBox="0 0 512 512">
    <path fill="#165EC4" d="M450.5 151H380V52.5c0-12.407-10.094-22.5-22.5-22.5h-291C54.094 30 44 40.093 44 52.5v407c0 12.407 10.094 22.5 22.5 22.5h291c12.406 0 22.5-10.093 22.5-22.5V361h15v103.5c0 17.92-14.579 32.5-32.5 32.5h-301C43.579 497 29 482.42 29 464.5v-417C29 29.58 43.579 15 61.5 15h301c17.921 0 32.5 14.58 32.5 32.5v76c0 4.142 3.357 7.5 7.5 7.5s7.5-3.358 7.5-7.5v-76C410 21.309 388.691 0 362.5 0h-301C35.309 0 14 21.309 14 47.5v417c0 26.191 21.309 47.5 47.5 47.5h301c26.191 0 47.5-21.309 47.5-47.5v-111a7.5 7.5 0 0 0-7.5-7.5h-67c-17.921 0-32.5-14.58-32.5-32.5v-115c0-17.92 14.579-32.5 32.5-32.5h115c17.921 0 32.5 14.58 32.5 32.5v115c0 17.92-14.579 32.5-32.5 32.5h-13c-4.143 0-7.5 3.358-7.5 7.5s3.357 7.5 7.5 7.5h13c26.191 0 47.5-21.309 47.5-47.5v-115c0-26.191-21.309-47.5-47.5-47.5zM66.5 45h291c4.136 0 7.5 3.364 7.5 7.5v69h-87v-5c0-12.407-10.094-22.5-22.5-22.5S233 104.093 233 116.5v5h-54v-5c0-12.407-10.094-22.5-22.5-22.5S134 104.093 134 116.5v5h-15v-5c0-12.407-10.094-22.5-22.5-22.5S74 104.093 74 116.5v5H59v-69c0-4.136 3.364-7.5 7.5-7.5zM248 116.5c0-4.136 3.364-7.5 7.5-7.5s7.5 3.364 7.5 7.5v25c0 4.136-3.364 7.5-7.5 7.5s-7.5-3.364-7.5-7.5zm-99 0c0-4.136 3.364-7.5 7.5-7.5s7.5 3.364 7.5 7.5v25c0 4.136-3.364 7.5-7.5 7.5s-7.5-3.364-7.5-7.5zm-60 0c0-4.136 3.364-7.5 7.5-7.5s7.5 3.364 7.5 7.5v25c0 4.136-3.364 7.5-7.5 7.5s-7.5-3.364-7.5-7.5zm75 110c0 4.136-3.364 7.5-7.5 7.5s-7.5-3.364-7.5-7.5v-25c0-4.136 3.364-7.5 7.5-7.5s7.5 3.364 7.5 7.5zm-7.5 22.5c12.406 0 22.5-10.093 22.5-22.5v-5h15v5c0 12.407 10.094 22.5 22.5 22.5s22.5-10.093 22.5-22.5v-5h49v70h-49v-5c0-12.407-10.094-22.5-22.5-22.5S194 274.093 194 286.5v5h-75v-5c0-12.407-10.094-22.5-22.5-22.5S74 274.093 74 286.5v5H59v-70h75v5c0 12.407 10.094 22.5 22.5 22.5zm67.5-22.5c0 4.136-3.364 7.5-7.5 7.5s-7.5-3.364-7.5-7.5v-25c0-4.136 3.364-7.5 7.5-7.5s7.5 3.364 7.5 7.5zm-15 60c0-4.136 3.364-7.5 7.5-7.5s7.5 3.364 7.5 7.5v25c0 4.136-3.364 7.5-7.5 7.5s-7.5-3.364-7.5-7.5zm-120 0c0-4.136 3.364-7.5 7.5-7.5s7.5 3.364 7.5 7.5v25c0 4.136-3.364 7.5-7.5 7.5s-7.5-3.364-7.5-7.5zM357.5 467h-291c-4.136 0-7.5-3.364-7.5-7.5v-68h15v5c0 12.407 10.094 22.5 22.5 22.5s22.5-10.093 22.5-22.5v-5h15v5c0 12.407 10.094 22.5 22.5 22.5s22.5-10.093 22.5-22.5v-5h15v5c0 12.407 10.094 22.5 22.5 22.5s22.5-10.093 22.5-22.5v-5h126v68c0 4.136-3.364 7.5-7.5 7.5zM104 396.5c0 4.136-3.364 7.5-7.5 7.5s-7.5-3.364-7.5-7.5v-25c0-4.136 3.364-7.5 7.5-7.5s7.5 3.364 7.5 7.5zm60 0c0 4.136-3.364 7.5-7.5 7.5s-7.5-3.364-7.5-7.5v-25c0-4.136 3.364-7.5 7.5-7.5s7.5 3.364 7.5 7.5zm60 0c0 4.136-3.364 7.5-7.5 7.5s-7.5-3.364-7.5-7.5v-25c0-4.136 3.364-7.5 7.5-7.5s7.5 3.364 7.5 7.5zM335.5 361H365v15.5H239v-5c0-12.407-10.094-22.5-22.5-22.5S194 359.093 194 371.5v5h-15v-5c0-12.407-10.094-22.5-22.5-22.5S134 359.093 134 371.5v5h-15v-5c0-12.407-10.094-22.5-22.5-22.5S74 359.093 74 371.5v5H59v-70h15v5c0 12.407 10.094 22.5 22.5 22.5s22.5-10.093 22.5-22.5v-5h75v5c0 12.407 10.094 22.5 22.5 22.5s22.5-10.093 22.5-22.5v-5h49v7c0 26.191 21.309 47.5 47.5 47.5zM288 198.5v8h-49v-5c0-12.407-10.094-22.5-22.5-22.5S194 189.093 194 201.5v5h-15v-5c0-12.407-10.094-22.5-22.5-22.5S134 189.093 134 201.5v5H59v-70h15v5c0 12.407 10.094 22.5 22.5 22.5s22.5-10.093 22.5-22.5v-5h15v5c0 12.407 10.094 22.5 22.5 22.5s22.5-10.093 22.5-22.5v-5h54v5c0 12.407 10.094 22.5 22.5 22.5s22.5-10.093 22.5-22.5v-5h87V151h-29.5c-26.191 0-47.5 21.309-47.5 47.5z"/>
    <path fill="#165EC4" d="M357.5 312.25h71c4.143 0 7.5-3.358 7.5-7.5s-3.357-7.5-7.5-7.5h-71c-4.143 0-7.5 3.358-7.5 7.5s3.357 7.5 7.5 7.5zM393 201.75a7.5 7.5 0 0 0-7.5 7.5v27h-28c-4.143 0-7.5 3.358-7.5 7.5s3.357 7.5 7.5 7.5h28v27c0 4.142 3.357 7.5 7.5 7.5s7.5-3.358 7.5-7.5v-27h28c4.143 0 7.5-3.358 7.5-7.5s-3.357-7.5-7.5-7.5h-28v-27a7.5 7.5 0 0 0-7.5-7.5z"/>
</svg>
