<svg xmlns="http://www.w3.org/2000/svg" id="outline" viewBox="0 0 512 512">
    <style>
        .st0{fill:#165ec4}
    </style>
    <path d="M24 480h256c4.4 0 8-3.6 8-8v-20.7c0-9.4-3.7-18.4-10.3-25l-5.7-5.7V296c-.1-42.7-33.6-77.8-76.2-79.9l2.7-6.8c6.3-15.7 9.5-32.4 9.5-49.3 0-4.4-3.6-8-8-8h-96c-4.4 0-8 3.6-8 8 0 16.9 3.2 33.6 9.5 49.3l2.7 6.8C65.6 218.2 32.1 253.3 32 296v116.7c0 5.1-2 10-5.7 13.7-6.6 6.6-10.4 15.6-10.3 25V472c0 4.4 3.6 8 8 8zm167.7-312c-.8 12.1-3.5 24-8.1 35.3l-5.1 12.7h-53.2l-5.1-12.7c-4.5-11.3-7.2-23.2-8.1-35.3h79.6zM32 451.3c0-5.1 2-10 5.7-13.7 6.6-6.6 10.4-15.6 10.3-25V296c0-35.3 28.7-64 64-64h80c35.3 0 64 28.7 64 64v120h-32v16h36.7l5.7 5.7c3.6 3.6 5.7 8.5 5.7 13.7V464H32v-12.7z" class="st0"/>
    <path d="M488 272h-32v-80h16c4.4 0 8-3.6 8-8V88c0-4.4-3.6-8-8-8 5.2-6.9 8-15.3 8-24V40c0-4.4-3.6-8-8-8h-64c-4.4 0-8 3.6-8 8v16c0 13.2-10.8 24-24 24H248c-4.4 0-8 3.6-8 8v88h-16c-4.4 0-8 3.6-8 8v24h16v-16h64v16h-48v16h48v16h-24v16h24v16h-8v16h48v16h-32v16h32v16h-32v16h32v16h-56v16h40v16h-16v16h16v16h-16v16h16v16h-24v16h176c4.4 0 8-3.6 8-8v-88h8c4.4 0 8-3.6 8-8v-96c0-4.4-3.6-8-8-8zm-8 32h-64v-16h64v16zm-80 112h64v16h-64v-16zm16-96h64v16h-64v-16zm-40-48v-16h64v16h-64zm64-32h-64v-16h64v16zm0-32h-64v-16h64v16zm24-112v16h-64V96h64zm-64 32h64v16h-64v-16zm0 48v-16h64v16h-64zm16-120v-8h48v8c0 13.2-10.8 24-24 24h-32c5.2-6.9 8-15.3 8-24zm-32 40v80h-48V96h48zm-128 0h64v16h-48v16h48v16h-48v16h48v16h-64V96zm56 96h48v80h-48v-80zm40 96h48v80h-48v-80zm-16 96h48v80h-48v-80zm64 80v-16h64v16h-64zm64-64h-64v-16h64v16zm-48-32v-16h64v16h-64zM117.4 347.1h10.1v-39.8h27.7c20.4 0 30.5 8.4 30.5 26 0 17-10 26.1-29 26.1h-13.8v7h20.4v12.3h-20.4v16.1h-15.4v-16.1h-10.1v-12.3h10.1v-7h-10.1v-12.3zm35.3 0c12.4 0 17.7-4.4 17.7-13.8 0-9.5-5.2-13.8-17.7-13.8h-9.9v27.7h9.9z" class="st0"/>
</svg>
