<svg xmlns="http://www.w3.org/2000/svg" width="512" height="512" viewBox="0 0 64 64">
    <path fill="#165EC4" d="M62 32a16.021 16.021 0 0 0-11-15.189V5a3 3 0 0 0-3-3H16a3 3 0 0 0-3 3v6.08a7 7 0 0 0-6 6.845L1.979 22.95a1 1 0 0 0 .391 1.655l3.768 1.257L7.4 29.63a1 1 0 0 0 1.655.391L13 26.071V59a3 3 0 0 0 3 3h28a1 1 0 0 0 .707-.293l6-6A1 1 0 0 0 51 55v-7.811A16.021 16.021 0 0 0 62 32zM45 18.167v5.786a13.9 13.9 0 0 1-4.289-1C41.8 20.437 43.31 18.677 45 18.167zm0 7.786V31h-5.974a24.316 24.316 0 0 1 1-6.159A15.919 15.919 0 0 0 45 25.953zM45 33v5.047a15.919 15.919 0 0 0-4.972 1.112 24.316 24.316 0 0 1-1-6.159zm0 7.047v5.786c-1.69-.51-3.2-2.27-4.289-4.79A13.9 13.9 0 0 1 45 40.047zm2 5.786v-5.786a13.9 13.9 0 0 1 4.289 1C50.2 43.563 48.69 45.323 47 45.833zm0-7.786V33h5.974a24.316 24.316 0 0 1-1 6.159A15.919 15.919 0 0 0 47 38.047zM47 31v-5.047a15.919 15.919 0 0 0 4.972-1.112 24.316 24.316 0 0 1 1 6.159zm0-7.047v-5.786c1.69.51 3.2 2.27 4.289 4.79a13.9 13.9 0 0 1-4.289.996zm4.344-4.888A13.985 13.985 0 0 1 54.634 21a13.932 13.932 0 0 1-1.544 1.054 14.35 14.35 0 0 0-1.746-2.989zM38.91 22.056A13.932 13.932 0 0 1 37.366 21a13.985 13.985 0 0 1 3.29-1.937 14.35 14.35 0 0 0-1.746 2.993zm-3.034.3a15.774 15.774 0 0 0 2.319 1.59A25.959 25.959 0 0 0 37.028 31h-4.977a13.928 13.928 0 0 1 3.825-8.643zM37.028 33a25.959 25.959 0 0 0 1.172 7.053 15.774 15.774 0 0 0-2.319 1.59A13.928 13.928 0 0 1 32.051 33zm1.882 8.944a14.35 14.35 0 0 0 1.746 2.991A13.985 13.985 0 0 1 37.366 43a13.932 13.932 0 0 1 1.544-1.056zm14.18 0A13.932 13.932 0 0 1 54.634 43a13.985 13.985 0 0 1-3.29 1.937 14.35 14.35 0 0 0 1.746-2.993zm.715-1.891A25.959 25.959 0 0 0 54.972 33h4.977a13.928 13.928 0 0 1-3.825 8.643 15.774 15.774 0 0 0-2.319-1.59zM59.949 31h-4.977a25.959 25.959 0 0 0-1.167-7.053 15.774 15.774 0 0 0 2.319-1.59A13.928 13.928 0 0 1 59.949 31zM14 13a5 5 0 1 1-5 5 5.006 5.006 0 0 1 5-5zm6.587 7.344l2.876 2.876-2.708.9a.994.994 0 0 0-.632.632l-.9 2.708-2.876-2.876a7.024 7.024 0 0 0 4.24-4.24zM8.78 27.463l-.9-2.708a.994.994 0 0 0-.632-.632l-2.708-.9 2.876-2.876a7.024 7.024 0 0 0 4.243 4.243zM45 58.586V56h2.586zM49 54h-5a1 1 0 0 0-1 1v5H16a1 1 0 0 1-1-1V26.071l3.95 3.95a1 1 0 0 0 1.655-.391l1.257-3.768 3.768-1.257a1 1 0 0 0 .391-1.655L21 17.925a7 7 0 0 0-6-6.845V5a1 1 0 0 1 1-1h32a1 1 0 0 1 1 1v11.292a16 16 0 1 0 0 31.416z"/>
    <path fill="#165EC4" d="M32 44H20a3 3 0 0 0-3 3v8a3 3 0 0 0 3 3h12a3 3 0 0 0 3-3v-8a3 3 0 0 0-3-3zm1 11a1 1 0 0 1-1 1H20a1 1 0 0 1-1-1v-8a1 1 0 0 1 1-1h12a1 1 0 0 1 1 1z"/>
    <path fill="#165EC4" d="M21 48h10v2H21zM21 52h10v2H21zM17 32h4v2h-4zM17 36h12v2H17zM17 40h12v2H17zM39 6h8v2h-8zM17 6h8v2h-8zM32 18a6 6 0 1 0-6-6 6.006 6.006 0 0 0 6 6zm0-10a4 4 0 1 1-4 4 4 4 0 0 1 4-4z"/>
</svg>
