<svg xmlns="http://www.w3.org/2000/svg" id="outline" viewBox="0 0 512 512">
    <style>
        .st0{fill:#165ec4}
    </style>
    <path d="M480 380.7V256c-.1-42.7-33.6-77.8-76.2-79.9l2.7-6.8c6.3-15.7 9.5-32.4 9.5-49.3 0-4.4-3.6-8-8-8h-96c-4.4 0-8 3.6-8 8 0 16.9 3.2 33.6 9.5 49.3l2.7 6.8c-42.6 2.1-76.2 37.2-76.2 79.9v116.7c0 5.1-2 10-5.7 13.7-6.6 6.6-10.4 15.6-10.3 25V432c0 4.4 3.6 8 8 8h256c4.4 0 8-3.6 8-8v-20.7c0-9.4-3.7-18.4-10.3-25l-5.7-5.6zM399.7 128c-.8 12.1-3.5 24-8.1 35.3l-5.1 12.7h-53.2l-5.1-12.7c-4.5-11.3-7.2-23.2-8.1-35.3h79.6zM480 424H240v-12.7c0-5.1 2-10 5.7-13.7 6.6-6.6 10.4-15.6 10.3-25V256c0-35.3 28.7-64 64-64h80c35.3 0 64 28.7 64 64v120h-43.5v16h48.2l5.7 5.7c3.6 3.6 5.7 8.5 5.7 13.7V424zM24 440h184v-16h-32v-16h40v-16h-40v-16h48v-16h-48v-16h48v-16H120c-13.2 0-24-10.8-24-24v-16c0-4.4-3.6-8-8-8H24c-4.4 0-8 3.6-8 8v16c0 8.7 2.8 17.1 8 24-4.4 0-8 3.6-8 8v96c0 4.4 3.6 8 8 8zm72-48H32v-16h64v16zm0-48v16H32v-16h64zm-64 64h64v16H32v-16zm128-64v80h-48v-80h48zM32 304v-8h48v8c0 8.7 2.8 17.1 8 24H56c-13.2 0-24-10.8-24-24z" class="st0"/>
    <path d="M280 168v-56c0-22.1-17.9-40-40-40H120c-22.1 0-40 17.9-40 40v152h16V112c0-13.2 10.8-24 24-24h120c13.2 0 24 10.8 24 24v56h16z" class="st0"/>
    <path d="M248 152v-40c0-4.4-3.6-8-8-8H120c-4.4 0-8 3.6-8 8v40c0 4.4 3.6 8 8 8h120c4.4 0 8-3.6 8-8zm-16-8H128v-24h104v24zM240 192v-16H120c-4.4 0-8 3.6-8 8v120c0 4.4 3.6 8 8 8h104v-16h-16v-64h16v-16h-16v-24h32zm-48 64h-24v-24h24v24zm-64-24h24v24h-24v-24zm64-16h-24v-24h24v24zm-64-24h24v24h-24v-24zm0 80h24v24h-24v-24zm40 0h24v24h-24v-24zM327.8 295.8h10.1V256h27.7c20.4 0 30.5 8.4 30.5 26 0 17-10 26.1-29 26.1h-13.8v7h20.4v12.3h-20.4v16.1h-15.4v-16.1h-10.1v-12.3h10.1v-7h-10.1v-12.3zm35.4 0c12.4 0 17.7-4.4 17.7-13.8 0-9.5-5.2-13.8-17.7-13.8h-9.9v27.7h9.9z" class="st0"/>
</svg>
