<svg xmlns="http://www.w3.org/2000/svg" width="512" height="512" viewBox="0 0 480 480.33655">
    <path fill="#165EC4" d="M48.094 184a8 8 0 0 0 8-8V16h368v176a8 8 0 0 0 16 0V8a8 8 0 0 0-8-8h-384a8 8 0 0 0-8 8v168a8 8 0 0 0 8 8zm0 0M176.094 464h-120V296a8 8 0 0 0-16 0v176a8 8 0 0 0 8 8h128a8 8 0 0 0 0-16zm0 0M432.094 296a8 8 0 0 0-8 8v160h-80a8 8 0 0 0 0 16h88a8 8 0 0 0 8-8V304a8 8 0 0 0-8-8zm0 0"/>
    <path fill="#165EC4" d="M80.094 80c0 22.09 17.91 40 40 40 22.094 0 40-17.91 40-40s-17.906-40-40-40c-22.09 0-40 17.91-40 40zm64 0c0 13.254-10.746 24-24 24s-24-10.746-24-24 10.746-24 24-24 24 10.746 24 24zm0 0M376.094 48h-128a8 8 0 0 0 0 16h128a8 8 0 0 0 0-16zm0 0M320.094 96a8 8 0 0 0-8-8h-96a8 8 0 0 0 0 16h96a8 8 0 0 0 8-8zm0 0M192.094 128a8 8 0 0 0 0 16h56a8 8 0 0 0 0-16zm0 0M328.094 144h40a8 8 0 0 0 0-16h-40a8 8 0 0 0 0 16zm0 0M280.094 128a8 8 0 0 0 0 16h16a8 8 0 0 0 0-16zm0 0M384.094 96a8 8 0 0 0-8-8h-32a8 8 0 0 0 0 16h32a8 8 0 0 0 8-8zm0 0M88.094 424h32a8 8 0 0 0 0-16h-32a8 8 0 0 0 0 16zm0 0M96.094 384a8 8 0 1 1-16.001 0 8 8 0 0 1 16 0zm0 0M392.094 424a8 8 0 1 1-16.001 0 8 8 0 0 1 16 0zm0 0M477.695 201.441a7.999 7.999 0 0 0-11.36 0l-79.202 79.2-45.2-45.282 34.16-33.918a8.005 8.005 0 0 0-.417-10.863 8 8 0 0 0-10.86-.418L330.574 224l-22.558-22.64 28.078-28.239a8.005 8.005 0 0 0-.418-10.863 8 8 0 0 0-10.86-.418l-34 33.922a7.999 7.999 0 0 0 0 11.36l11.36 11.276-11.36 11.364c-13.43-13.442-34.46-15.582-50.32-5.121l-6.242-6.243a40.01 40.01 0 0 0-28.238-11.68c-5.008 0-9.97.923-14.641 2.723l-13.68-13.68 5.68-5.6a7.999 7.999 0 0 0 0-11.36l-33.52-33.442a8.002 8.002 0 0 0-11.28 0 8.002 8.002 0 0 0 0 11.282l27.84 27.84-5.68 5.597-40 39.602-28.239-28.32a7.999 7.999 0 0 0-11.363 0 8.002 8.002 0 0 0 0 11.28l28.32 28.32-11.36 11.278L87.376 264l-73.52-73.84a7.999 7.999 0 0 0-11.359 0 8.002 8.002 0 0 0 0 11.281l79.2 79.2a8.007 8.007 0 0 0 5.679 2.32 8.014 8.014 0 0 0 5.68-2.32l11.039-11.282 11.281 11.282c-15.617 15.62-15.617 40.937 0 56.558l29.281 29.281a24.002 24.002 0 0 0 4.719 27.282 23.521 23.521 0 0 0 15.602 7.039c.71 12.18 10.453 21.886 22.636 22.558.676 12.215 10.43 21.965 22.64 22.641a23.99 23.99 0 0 0 6.962 16 24 24 0 0 0 27.36 4.64l6.558 6.641a24.004 24.004 0 0 0 25.543 5.485 23.996 23.996 0 0 0 15.418-21.086c12.215-.676 21.965-10.426 22.64-22.64 12.215-.673 21.965-10.427 22.641-22.642a24.02 24.02 0 0 0 16-6.957 24 24 0 0 0 0-34l-5.68-5.601 11.36-11.36c13.472-13.492 15.55-34.62 4.96-50.48l12.079-12.078 5.68 5.68a8.002 8.002 0 0 0 11.28 0l84.641-84.883a7.997 7.997 0 0 0 0-11.278zM115.613 258l50.961-50.879 11.281 11.277-50.878 50.961zm4.48 50.96a24.006 24.006 0 0 1 7.04-17.038l62.242-62.242c9.508-9.02 24.414-9.02 33.918 0l50.883 50.879a8.001 8.001 0 0 1-11.281 11.28l-36.88-36.878a8.115 8.115 0 0 0-11.48-.04c-3.183 3.157-3.2 8.298-.039 11.477l14.32 14.243-73.601 73.52-28.238-28.24a24.007 24.007 0 0 1-6.883-16.96zm153.923 152.72a8.002 8.002 0 0 1-11.282 0l-5.68-5.68 11.36-11.281 5.602 5.601c1.511 1.5 2.367 3.547 2.367 5.68s-.856 4.18-2.367 5.68zm22.64-22.64a8.002 8.002 0 0 1-11.281 0l-5.281-5.68 11.281-11.282 1.918 1.844 3.762 3.84a7.995 7.995 0 0 1 2.32 5.597 8.003 8.003 0 0 1-2.719 5.68zm22.637-22.642a7.997 7.997 0 0 1-11.277 0l-5.68-5.68 11.277-11.277 5.68 5.68a7.997 7.997 0 0 1 0 11.277zm22.64-33.918a8.002 8.002 0 0 1-5.68 13.645 8.011 8.011 0 0 1-5.679-2.363l-5.597-5.684 11.117-11.277zm5.68-40L330.656 360l-5.601 5.68-84.961 84.64a7.997 7.997 0 0 1-11.278 0 7.995 7.995 0 0 1 0-11.28l51.278-50.962a8 8 0 1 0-11.277-11.277l-50.962 50.879a8.005 8.005 0 0 1-10.863-.418 8.005 8.005 0 0 1-.418-10.864l50.88-50.878a7.999 7.999 0 0 0 0-11.36 7.997 7.997 0 0 0-11.278 0l-50.961 50.961a8.002 8.002 0 0 1-11.281 0 8.015 8.015 0 0 1-2.368-5.68c0-2.132.856-4.18 2.368-5.68l50.882-50.882a8.005 8.005 0 0 0 0-11.36 8.002 8.002 0 0 0-11.28 0l-50.962 50.961a8.007 8.007 0 0 1-11.32-.039c-3.113-3.136-3.098-8.207.039-11.32l79.203-79.2 11.277 11.36a24 24 0 0 0 34 0c9.36-9.37 9.36-24.55 0-33.922l-32.957-33.039a23.995 23.995 0 0 1 27.278 4.72l67.922 67.92c9.246 9.481 9.07 24.661-.403 33.919zm5.602-50.96l-50.88-50.88 11.278-11.28 50.961 50.878zm0 0"/>
</svg>
