<svg xmlns="http://www.w3.org/2000/svg" width="512" height="512" viewBox="0 0 503.322 503.322">
    <g fill="#165EC4">
        <path d="M399.186 355.797h-295.05c-5.207 0-8.678 3.471-8.678 8.678 0 5.207 3.471 8.678 8.678 8.678h295.051c5.207 0 8.678-3.471 8.678-8.678s-3.472-8.678-8.679-8.678z"/>
        <path d="M494.644 355.797h-17.356c-5.207 0-8.678-4.339-8.678-8.678v-30.373c0-43.143-12.642-84.478-34.623-119.564-.03-.064-.057-.129-.089-.192-.256-.396-.524-.785-.782-1.18-26.211-41.186-65.351-73.601-112.032-89.939v-2.603c0-13.885-11.281-25.166-25.166-25.166h-87.647c-14.753 0-26.034 11.281-26.034 25.166v3.471C95.458 136.244 34.712 219.553 34.712 312.407v34.712c0 5.207-4.339 8.678-8.678 8.678H8.678c-5.207 0-8.678 3.471-8.678 8.678v52.068c0 5.207 3.471 8.678 8.678 8.678h485.966c5.207 0 8.678-3.471 8.678-8.678v-52.068c0-5.207-3.471-8.678-8.678-8.678zM390.021 170.235a247.29 247.29 0 0 1 12.024 13.03 208.289 208.289 0 0 1 10.72 13.829l-69.118 23.327 23.316-69.948a202.65 202.65 0 0 1 23.058 19.762zm-253.777-19.238l23.43 70.292-69.424-23.431c13.018-18.224 28.638-34.712 45.994-46.861zm349.722 256.867H17.356v-34.712h8.678c14.753 0 26.034-12.149 26.034-26.034v-34.712c0-36.241 9.949-70.845 27.499-100.755l91.389 30.463c.868.868 1.736.868 2.603.868 2.603 0 4.339-.868 6.942-2.603 1.736-1.736 2.603-5.207 1.736-8.678l-29.731-92.497a196.296 196.296 0 0 1 29.731-13.925v30.924c0 5.207 3.471 8.678 8.678 8.678 5.207 0 8.678-3.471 8.678-8.678v-52.936c0-4.339 3.471-7.81 8.678-7.81h34.712v104.136c0 5.207 3.471 8.678 8.678 8.678s8.678-4.339 8.678-8.678V95.458h35.58a7.777 7.777 0 0 1 7.81 7.81v52.936c0 5.207 3.471 8.678 8.678 8.678 5.207 0 8.678-3.471 8.678-8.678V125.41a194.217 194.217 0 0 1 30.98 15.141l-30.113 91.151c-1.736 2.603-.868 6.075 1.736 8.678 1.736 1.736 3.471 2.603 6.075 2.603h2.603l90.286-30.633c18.241 31.057 28.602 67.03 28.602 104.395v30.373c0 14.753 12.149 26.034 26.034 26.034h8.678v34.712z"/>
    </g>
</svg>
