<svg xmlns="http://www.w3.org/2000/svg" width="512" height="512" viewBox="0 0 64 64">
    <path fill="#165EC4" d="M61.394 25.081L48 19.341V8a1 1 0 0 0-.293-.707l-5-5A1 1 0 0 0 42 2H5a3 3 0 0 0-3 3v54a3 3 0 0 0 3 3h40a3 3 0 0 0 3-3v-2.486l5.206-3.714A21.04 21.04 0 0 0 62 35.708V26a1 1 0 0 0-.606-.919zM46 8.414V9h-5V4h.586zM45 60H5a1 1 0 0 1-1-1V5a1 1 0 0 1 1-1h34v6a1 1 0 0 0 1 1h6v8.341l-13.394 5.74A1 1 0 0 0 32 26v9.708A21.04 21.04 0 0 0 40.794 52.8L46 56.514V59a1 1 0 0 1-1 1zm15-24.292a19.037 19.037 0 0 1-7.956 15.461L47 54.771l-5.044-3.6A19.037 19.037 0 0 1 34 35.708v-9.049l13-5.571 13 5.571z"/>
    <path fill="#165EC4" d="M46.628 24.071l-10 4A1 1 0 0 0 36 29v6.31a16.919 16.919 0 0 0 6.38 13.275l3.995 3.2a1 1 0 0 0 1.25 0l3.995-3.2A16.919 16.919 0 0 0 58 35.31V29a1 1 0 0 0-.628-.929l-10-4a1.007 1.007 0 0 0-.744 0zM56 29.677v5.633a14.924 14.924 0 0 1-5.629 11.712L47 49.72l-3.371-2.7A14.924 14.924 0 0 1 38 35.31v-5.633l9-3.6zM7 20h28a1 1 0 0 0 1-1V7a1 1 0 0 0-1-1H7a1 1 0 0 0-1 1v12a1 1 0 0 0 1 1zM8 8h26v10H8zM29 44H7a1 1 0 0 0-1 1v12a1 1 0 0 0 1 1h22a1 1 0 0 0 1-1V45a1 1 0 0 0-1-1zm-1 12H8V46h20zM6 25h24v2H6zM6 31h24v2H6zM6 37h24v2H6z"/>
</svg>
