<svg xmlns="http://www.w3.org/2000/svg" width="512" height="512" viewBox="0 0 64 64">
    <g fill="#165EC4">
        <path d="M59 19h-1v-2h1.171A3.832 3.832 0 0 0 63 13.171a3.8 3.8 0 0 0-1.122-2.707l-8.343-8.343A3.802 3.802 0 0 0 50.829 1 3.832 3.832 0 0 0 47 4.829V6c-6.105 0-10.622 2-15.086 6.672A3.101 3.101 0 0 0 31 14.879c0 1.271.766 2.362 1.858 2.849l-.944.944c-.102.102-.184.216-.27.328H5c-2.206 0-4 1.794-4 4v36c0 2.206 1.794 4 4 4h54c2.206 0 4-1.794 4-4V23c0-2.206-1.794-4-4-4zM50.829 3c.488 0 .947.19 1.293.536l8.343 8.343A1.83 1.83 0 0 1 59.171 15h-1.757L49 6.586V4.829A1.83 1.83 0 0 1 50.829 3zM34.121 16a1.122 1.122 0 0 1-.777-1.93C37.464 9.759 41.421 8 47 8h.586L56 16.414V19a13.4 13.4 0 0 1-3.95 9.536l-5.636 5.636a1.122 1.122 0 0 1-1.586-1.586l4.758-4.758a3.101 3.101 0 0 0 .914-2.207c0-1.721-1.4-3.121-3.121-3.121-.834 0-1.618.325-2.207.914L34.914 33.672a1.122 1.122 0 0 1-1.586-1.586l9.379-9.379-1.414-1.414L35.586 27h-.465a1.122 1.122 0 0 1-.793-1.914l6.379-6.379-1.414-1.414L34.586 22h-.465a1.122 1.122 0 0 1-.793-1.914l5.379-5.379-1.414-1.414L34.586 16zm-1.904 11c.299.771.89 1.393 1.641 1.728l-1.944 1.944A3.101 3.101 0 0 0 31 32.879c0 .63.191 1.215.513 1.706L23 29.856l-10 5.555V40h2v7h-2v2h20v-2h-2v-7h2v-4.217c.349.135.725.217 1.121.217.834 0 1.618-.324 2.207-.914l10.258-10.258a1.122 1.122 0 0 1 1.586 1.586l-4.758 4.758a3.101 3.101 0 0 0-.914 2.207c0 1.721 1.4 3.121 3.121 3.121.834 0 1.618-.324 2.207-.914L53 30.414V55H11V27zM27 47v-7h2v7zm-8-7v7h-2v-7zm2 0h4v7h-4zm-6-2v-1.411l8-4.445 8 4.445V38zm46 21c0 1.103-.897 2-2 2H5c-1.103 0-2-.897-2-2V23c0-1.103.897-2 2-2h26.012a3.115 3.115 0 0 0 1.853 2.731A3.09 3.09 0 0 0 32.14 25H9v32h46V28.135A15.298 15.298 0 0 0 57.857 21H59c1.103 0 2 .897 2 2z"/>
        <path d="M5 40h2v2H5zM57 34h2v14h-2zM13 51h20v2H13zM37 51h14v2H37zM37 47h14v2H37zM37 43h6v2h-6zM45 43h6v2h-6z"/>
    </g>
</svg>
