<svg xmlns="http://www.w3.org/2000/svg" width="512" height="512" viewBox="0 0 512 512">
    <path fill="#165EC4" d="M209.031 124.014h-58.525c-12.164 0-22.061 9.896-22.061 22.061v81.219h-2.541c-12.164 0-22.061 9.896-22.061 22.061 0 12.164 9.896 22.061 22.061 22.061h2.541v13.732h-2.541c-12.164 0-22.061 9.897-22.061 22.061s9.896 22.061 22.061 22.061h2.541v20.403c0 12.164 9.896 22.061 22.061 22.061 12.164 0 22.061-9.896 22.061-22.061V329.27h33.021c12.164 0 22.061-9.896 22.061-22.061 0-12.164-9.896-22.061-22.061-22.061h-33.021v-13.732h36.464c40.639 0 73.7-33.062 73.7-73.7 0-40.641-33.061-73.702-73.7-73.702zm0 132.4h-43.964a7.5 7.5 0 0 0-7.5 7.5v28.732a7.5 7.5 0 0 0 7.5 7.5h40.521c3.893 0 7.061 3.168 7.061 7.061s-3.167 7.061-7.061 7.061h-40.521a7.5 7.5 0 0 0-7.5 7.5v27.903a7.069 7.069 0 0 1-7.061 7.061 7.069 7.069 0 0 1-7.061-7.061v-27.903a7.5 7.5 0 0 0-7.5-7.5h-10.041a7.069 7.069 0 0 1-7.061-7.061 7.069 7.069 0 0 1 7.061-7.061h10.041a7.5 7.5 0 0 0 7.5-7.5v-28.732a7.5 7.5 0 0 0-7.5-7.5h-10.041c-3.893 0-7.061-3.167-7.061-7.061s3.167-7.061 7.061-7.061h10.041a7.5 7.5 0 0 0 7.5-7.5v-88.719a7.069 7.069 0 0 1 7.061-7.061h58.525c32.367 0 58.7 26.333 58.7 58.7s-26.333 58.702-58.7 58.702zM108.519 446.62c-28.464-22.055-52.013-50.676-68.1-82.768C23.552 330.205 15 293.918 15 256c0-64.374 25.068-124.894 70.587-170.413S191.626 15 256 15c33.502 0 65.924 6.741 96.365 20.036 29.409 12.844 55.614 31.174 77.887 54.479a7.5 7.5 0 1 0 10.843-10.364c-23.653-24.75-51.487-44.217-82.728-57.861C326.022 7.163 291.581 0 256 0 187.62 0 123.332 26.628 74.98 74.981 26.629 123.332 0 187.62 0 256c0 40.273 9.087 78.821 27.009 114.573 17.086 34.086 42.095 64.482 72.322 87.904a7.469 7.469 0 0 0 4.588 1.572 7.5 7.5 0 0 0 4.6-13.429zm355.928-339.267a7.5 7.5 0 0 0-12.206 8.719C481.522 157.062 497 205.448 497 256c0 64.374-25.068 124.894-70.587 170.413S320.374 497 256 497c-41.219 0-81.893-10.582-117.625-30.603a7.5 7.5 0 0 0-7.332 13.086C169.01 500.756 212.219 512 256 512c68.38 0 132.668-26.629 181.02-74.98C485.372 388.668 512 324.38 512 256c0-53.697-16.444-105.098-47.553-148.647zM256 45.487C139.923 45.487 45.487 139.923 45.487 256S139.923 466.513 256 466.513c31.079 0 60.603-6.776 87.182-18.919a7.421 7.421 0 0 0 1.624-.759c23.396-10.931 44.462-26.037 62.235-44.36a7.456 7.456 0 0 0 1.685-1.745c35.795-37.754 57.786-88.72 57.786-144.729C466.513 139.923 372.077 45.487 256 45.487zm137.297 209.999c-.968 16.214 2.831 32.728 5.182 41.128.082.292.181.578.297.858a94.64 94.64 0 0 1 4.203 12.558l-.014-.049.083.341c6.214 24.29 3.747 53.293-6.899 81.848a197.029 197.029 0 0 1-26.499 22.824 173.816 173.816 0 0 0 8.091-15.331c13.588-29.214 17.876-60.27 11.762-85.204a7.382 7.382 0 0 0-.288-.917c-1.258-3.255-2.523-7.034-3.66-10.929a7.435 7.435 0 0 0-.319-.883 70.263 70.263 0 0 0-3.521-7.049c-12.297-21.377-29.807-23.08-39.15-22.196-16.486 1.56-32.433 12.885-37.093 26.345a7.016 7.016 0 0 1-3.587 4.04 7.02 7.02 0 0 1-5.395.321 7.018 7.018 0 0 1-4.042-3.588 7.013 7.013 0 0 1-.321-5.394c5.603-16.183 22.303-30.063 41.558-34.539a7.501 7.501 0 0 0 5.057-10.564c-4.478-9.284-7.676-19.819-9.505-31.313-3.873-24.338.29-44.938 11.724-58.004 2.563-2.929 7.033-3.228 9.963-.664a7.018 7.018 0 0 1 2.396 4.844 7.015 7.015 0 0 1-1.731 5.119c-8.498 9.711-11.561 26.655-8.405 46.484 1.335 8.389 4.133 17.802 7.677 25.825 4.283 9.697 9.116 16.446 14.363 20.061.415.286.857.528 1.32.726.652.277 1.297.569 1.938.874a7.5 7.5 0 0 0 10.721-6.485c.91-23.876 9.701-39.806 26.128-47.347a7.02 7.02 0 0 1 5.4-.203c1.768.656 3.175 1.961 3.962 3.675s.859 3.631.203 5.4a7.014 7.014 0 0 1-3.675 3.962c-7.471 3.431-16.645 12.014-17.924 33.426zm26.03 107.853c3.239-19.938 2.7-39.352-1.752-56.755a12.104 12.104 0 0 0-.141-.561 109.798 109.798 0 0 0-4.628-13.875c-6.641-24.02-7.168-51.018 4.672-56.454 5.356-2.458 9.433-6.854 11.482-12.379s1.823-11.517-.635-16.872-6.855-9.433-12.379-11.481a21.912 21.912 0 0 0-16.873.635c-17.242 7.915-28.396 22.748-32.806 43.364-3.632-7.156-6.841-16.769-8.269-25.742-2.381-14.964-.512-28.087 4.88-34.249 3.881-4.435 5.802-10.115 5.41-15.995s-3.05-11.255-7.485-15.135c-9.155-8.01-23.12-7.079-31.128 2.075-14.419 16.479-19.834 41.423-15.249 70.239 1.554 9.768 4.008 18.963 7.317 27.445-20.397 7.389-37.435 23.354-43.789 41.706a21.91 21.91 0 0 0 1.003 16.854 21.916 21.916 0 0 0 12.628 11.21 21.92 21.92 0 0 0 16.854-1.003 21.915 21.915 0 0 0 11.209-12.627c2.719-7.855 13.862-15.328 24.333-16.318 10.223-.968 18.548 3.99 24.733 14.743a54.737 54.737 0 0 1 2.58 5.125c1.179 3.997 2.438 7.758 3.75 11.194 5.153 21.611 1.189 48.861-10.903 74.857-7.129 15.327-16.666 29.403-27.624 40.816-24.567 11.147-51.829 17.359-80.517 17.359-107.806 0-195.513-87.706-195.513-195.513S148.194 60.487 256 60.487 451.513 148.194 451.513 256c0 39.615-11.855 76.507-32.186 107.339zM209.031 153.135h-43.964a7.5 7.5 0 0 0-7.5 7.5v74.158a7.5 7.5 0 0 0 7.5 7.5h43.964c24.581 0 44.579-19.998 44.579-44.579s-19.998-44.579-44.579-44.579zm0 74.158h-36.464v-59.158h36.464c16.31 0 29.579 13.269 29.579 29.579s-13.269 29.579-29.579 29.579z"/>
</svg>
