<svg xmlns="http://www.w3.org/2000/svg" id="outline" viewBox="0 0 512 512">
    <style>
        .st0{fill:#165ec4}
    </style>
    <path d="M24 368h48c4.4 0 8-3.6 8-8h5.4c21.8 15.6 47.9 23.9 74.6 24h40v24c-4.4 0-8 3.6-8 8v72c0 4.4 3.6 8 8 8h112c4.4 0 8-3.6 8-8v-72c0-4.4-3.6-8-8-8h-2.3c3.7-7.6 6.4-15.7 8.1-24H360c25.7-.1 50.9-7.8 72.2-22.3.8 3.7 4 6.3 7.8 6.3h48c4.4 0 8-3.6 8-8v-96c0-4.4-3.6-8-8-8h-48c-4.4 0-8 3.6-8 8v16h-6.1c-21.9-.1-43 7.9-59.4 22.4-2.4-7.6-7.6-14.1-14.5-18.1V200c0-36.1-24.2-67.6-58.9-77.2l.7-1.1c6.7-10 10.2-21.7 10.2-33.8 0-4.4-3.6-8-8-8h-80c-4.4 0-8 3.6-8 8 0 12 3.5 23.8 10.2 33.8l.7 1.1c-34.8 9.5-58.9 41.1-58.9 77.2v79.1c0 2.5-1.4 4.7-3.6 5.8-4.8 2.4-8.6 6.5-10.7 11.5A88.634 88.634 0 0 0 94 280.1H80v-16c0-4.4-3.6-8-8-8H24c-4.4 0-8 3.6-8 8v96c0 4.3 3.6 7.9 8 7.9zm424-96h32v80h-32v-80zM304 480h-96v-56h96v56zm-88-72v-72h56c-10.3 11.5-16 26.4-16 41.8v9.4h16v-9.4c0-12.4 4.9-24.2 13.7-33 1.5-1.5 2.3-3.5 2.3-5.7V312c0-4.4 3.6-8 8-8s8 3.6 8 8v51.2c0 15.8-4.3 31.3-12.4 44.8H216zm209.9-112h6.1v48c-1.7 0-3.4.6-4.8 1.6-19.4 14.5-43 22.3-67.2 22.4h-40.1c.1-1.6.1-3.2.1-4.8l48-11.2v-16h-41.4c-3.6 0-6.6-3.6-6.6-8 0-2.2.7-4.3 2.2-5.9 1.1-1.3 2.7-2 4.4-2.1H368c2.1 0 4.2-.8 5.7-2.3 13.8-14 32.6-21.8 52.2-21.7zM231.5 112.9c-3.4-5.1-5.7-10.8-6.8-16.9h62.6c-1.1 6-3.4 11.8-6.8 16.9l-4.8 7.2c-1.2-.1-2.4-.1-3.7-.1h-32c-1.2 0-2.4 0-3.7.1l-4.8-7.2zm-67.9 186.3c7.6-3.8 12.5-11.6 12.4-20.1V200c0-35.3 28.7-64 64-64h32c35.3 0 64 28.7 64 64v80h-16v16h16c5.7 0 11 3.1 13.8 8h-23.2c-2.6 0-5.1.5-7.5 1.4-3.7-12.7-17-20.1-29.7-16.4-10.3 3-17.4 12.4-17.4 23.1v8h-65.4c-3.4-9.6-12.5-16-22.6-16h-23.9c.3-2.2 1.6-4 3.5-4.9zM94.1 296c19.6-.1 38.5 7.7 52.3 21.7 1.5 1.5 3.5 2.3 5.7 2.3h32c4.4 0 8 3.6 8 8s-3.6 8-8 8h-40v16h56v16h-40c-24.2-.1-47.8-7.9-67.2-22.4-1.4-1-3.1-1.6-4.8-1.6h-8v-48h14zM32 272h32v80H32v-80z" class="st0"/>
    <path d="M120 144h24v16h-24zM368 144h24v16h-24z" class="st0"/>
    <path d="M331.7 56.3h24v16h-24z" class="st0" transform="rotate(-45.001 343.683 64.323)"/>
    <path d="M248 16h16v24h-16z" class="st0"/>
    <path d="M160.3 52.3h16v24h-16z" class="st0" transform="rotate(-45.001 168.308 64.321)"/>
    <path d="M222.9 220.1H233v-39.8h27.7c20.4 0 30.5 8.4 30.5 26 0 17-10 26.1-29 26.1h-13.8v7h20.4v12.3h-20.4v16.1H233v-16.1h-10.1v-12.3H233v-7h-10.1v-12.3zm35.4 0c12.4 0 17.7-4.4 17.7-13.8 0-9.5-5.2-13.8-17.7-13.8h-9.9v27.7h9.9z" class="st0"/>
</svg>
