<svg xmlns="http://www.w3.org/2000/svg" width="512" height="512" viewBox="-32 0 480 480.01717">
    <path fill="#165EC4" d="M237.977 66.191A39.635 39.635 0 0 0 247.992 40c0-22.09-17.91-40-40-40s-40 17.91-40 40a39.635 39.635 0 0 0 10.016 26.191C70.109 81.918-7.332 178.301.555 287.055c7.882 108.757 98.414 192.96 207.453 192.96s199.57-84.202 207.457-192.96C423.348 178.3 345.91 81.918 238.008 66.19zM183.992 40c0-13.254 10.746-24 24-24s24 10.746 24 24-10.746 24-24 24-24-10.746-24-24zm24 424c-106.039 0-192-85.96-192-192s85.961-192 192-192c106.04 0 192 85.96 192 192-.12 105.988-86.012 191.875-192 192zm0 0"/>
    <path fill="#165EC4" d="M207.992 136a8 8 0 0 0 8-8V96a8 8 0 0 0-16 0v32a8 8 0 0 0 8 8zm0 0M156.793 111.793a8 8 0 0 0 7.719 5.934 7.818 7.818 0 0 0 2.082-.278 8.006 8.006 0 0 0 5.656-9.793l-2.074-7.726a7.996 7.996 0 0 0-9.785-5.625 8 8 0 0 0-5.672 9.757zm0 0M117.066 130.504A7.996 7.996 0 0 0 124 134.55a8.01 8.01 0 0 0 6.957-4.016 8.008 8.008 0 0 0-.035-8.031l-4-6.93a8 8 0 0 0-10.902-2.879 7.994 7.994 0 0 0-2.954 10.88zm0 0M89.2 141.895a7.998 7.998 0 1 0-11.313 11.313l5.656 5.655a8 8 0 0 0 11.312-11.312zm0 0M51.57 190.93l6.926 4a8.003 8.003 0 1 0 8-13.86l-6.926-4a8.003 8.003 0 0 0-8 13.86zm0 0M35.922 234.176l7.726 2.07a7.999 7.999 0 1 0 4.137-15.453l-7.73-2.074a8 8 0 0 0-9.758 5.672 7.996 7.996 0 0 0 5.625 9.785zm0 0M79.992 272a8 8 0 0 0-8-8h-40a8 8 0 0 0 0 16h40a8 8 0 0 0 8-8zm0 0M53.441 313.406a8 8 0 0 0-9.793-5.652l-7.726 2.07a7.991 7.991 0 0 0-5.692 5.653 8 8 0 0 0 2.07 7.75 8.005 8.005 0 0 0 7.755 2.054l7.73-2.074a8 8 0 0 0 5.656-9.8zm0 0M58.496 349.07l-6.926 4a7.999 7.999 0 0 0-4.047 6.938 7.994 7.994 0 0 0 4.016 6.957 8.008 8.008 0 0 0 8.031-.035l6.926-4a8.003 8.003 0 1 0-8-13.86zm0 0M83.543 385.137l-5.656 5.656a8.001 8.001 0 1 0 11.312 11.312l5.656-5.656a8 8 0 0 0-11.312-11.312zm0 0M127.992 410.559a7.999 7.999 0 0 0-10.926 2.937l-4 6.93a7.994 7.994 0 0 0 6.918 12.043 8.003 8.003 0 0 0 6.938-4.043l4-6.93a7.996 7.996 0 0 0 .8-6.074 8 8 0 0 0-3.73-4.863zm0 0M166.586 426.55a8.003 8.003 0 0 0-9.8 5.657l-2.075 7.73c-1.137 4.266 1.394 8.649 5.656 9.79.68.187 1.38.28 2.082.28a7.995 7.995 0 0 0 7.719-5.937l2.074-7.726a8.006 8.006 0 0 0-5.656-9.793zm0 0M207.992 400a8 8 0 0 0-8 8v40a8 8 0 0 0 16 0v-40a8 8 0 0 0-8-8zm0 0M259.191 432.207a8.002 8.002 0 0 0-9.785-5.625c-4.254 1.14-6.789 5.504-5.668 9.762l2.07 7.726a7.999 7.999 0 0 0 7.72 5.938c.702 0 1.402-.094 2.081-.281a7.997 7.997 0 0 0 5.657-9.79zm0 0M298.922 413.496a8.007 8.007 0 0 0-6.938-4.047 8.01 8.01 0 0 0-6.957 4.016 7.999 7.999 0 0 0 .04 8.031l4 6.93a7.995 7.995 0 0 0 10.898 2.879 7.999 7.999 0 0 0 2.957-10.88zm0 0M332.441 385.137a8 8 0 0 0-11.312 11.312l5.656 5.656a8 8 0 0 0 11.313-11.312zm0 0M364.418 353.07l-6.93-4a8.008 8.008 0 0 0-8.031-.035 8.01 8.01 0 0 0-4.016 6.957 8.007 8.007 0 0 0 4.047 6.938l6.93 4a7.998 7.998 0 0 0 10.879-2.957 8 8 0 0 0-2.879-10.903zm0 0M380.066 309.824l-7.73-2.07a7.995 7.995 0 0 0-9.758 5.668 7.996 7.996 0 0 0 5.621 9.785l7.73 2.074c.676.18 1.372.27 2.071.27a7.998 7.998 0 0 0 2.066-15.727zm0 0M383.992 264h-40a8 8 0 0 0 0 16h40a8 8 0 0 0 0-16zm0 0M362.543 230.594a8 8 0 0 0 9.793 5.652l7.73-2.07a7.996 7.996 0 0 0 5.622-9.785 8 8 0 0 0-9.758-5.672l-7.73 2.074a8.003 8.003 0 0 0-5.657 9.8zm0 0M353.488 196a8.02 8.02 0 0 0 4-1.07l6.93-4a8 8 0 0 0 2.879-10.903 7.998 7.998 0 0 0-10.879-2.957l-6.93 4a8.001 8.001 0 0 0 4 14.93zm0 0M326.785 161.207a8.001 8.001 0 0 0 5.656-2.344l5.657-5.656a8 8 0 0 0-11.313-11.312l-5.656 5.656a8 8 0 0 0 5.656 13.656zm0 0M287.992 133.441a8.004 8.004 0 0 0 10.93-2.937l4-6.93a7.999 7.999 0 0 0-2.957-10.879 7.995 7.995 0 0 0-10.899 2.88l-4 6.929c-1.066 1.84-1.355 4.023-.804 6.074s1.89 3.8 3.73 4.863zm0 0M249.402 117.45a7.769 7.769 0 0 0 2.078.277 7.996 7.996 0 0 0 7.72-5.934l2.073-7.73a8 8 0 0 0-5.671-9.758c-4.254-1.14-8.625 1.375-9.786 5.625l-2.07 7.726a8 8 0 0 0 5.656 9.793zm0 0M207.992 296a23.861 23.861 0 0 0 16.969-7.023c9.367-9.372 9.367-24.567 0-33.938-9.5-9.062-24.445-9.062-33.945 0a23.997 23.997 0 0 0-5.188 26.149A24 24 0 0 0 207.992 296zm-5.656-29.656a8 8 0 0 1 7.781-2.18 8 8 0 0 1 5.715 5.711 8.01 8.01 0 0 1-2.184 7.781 8.188 8.188 0 0 1-11.312 0 8.004 8.004 0 0 1 0-11.312zm0 0"/>
    <path fill="#165EC4" d="M300.703 168.617L170.602 230.84a7.995 7.995 0 0 0-3.832 3.914L110.2 359.199a7.996 7.996 0 0 0 1.628 8.965 7.996 7.996 0 0 0 8.965 1.629l124.45-56.57a8.003 8.003 0 0 0 3.91-3.832l62.222-130.102a8.004 8.004 0 0 0-1.555-9.117 8.004 8.004 0 0 0-9.117-1.555zm-64.71 131.246l-102.4 46.535L180.13 244l107.062-51.2zm0 0M202.313 34.32a8 8 0 0 0 11.328 11.297 7.996 7.996 0 0 0 .03-11.297 8.414 8.414 0 0 0-11.358 0zm0 0"/>
</svg>
