<svg xmlns="http://www.w3.org/2000/svg" width="512" height="512" viewBox="0 0 485.656 485.656">
    <g fill="#165EC4">
        <path d="M301.656 306.88h-16v-8c0-8.837-7.163-16-16-16h-16v-72.408c57.267-4.418 100.11-54.424 95.692-111.692C344.93 41.513 294.923-1.329 237.656 3.089c-57.267 4.418-100.11 54.424-95.692 111.692 3.944 51.126 44.566 91.747 95.692 95.692v72.408h-24a8 8 0 0 0-5.656 2.344l-66.344 66.344v-4.688a8 8 0 0 0-8-8h-16v-8a8 8 0 0 0-8-8h-16v-16.408c43.961-4.418 76.017-43.638 71.599-87.599s-43.638-76.017-87.599-71.599c-43.961 4.418-76.017 43.638-71.599 87.599 3.805 37.855 33.744 67.794 71.599 71.599v16.408h-32A8 8 0 0 0 40 325.225l-40 40 11.312 11.312 37.656-37.656h52.688v32h-16v-16h-16v68.688L40 453.224a8 8 0 0 0-2.344 5.656v16a8 8 0 0 0 8 8h128a8 8 0 0 0 5.656-2.344l29.656-29.656h92.688c13.255 0 24-10.745 24-24v-96c0-13.254-10.745-24-24-24zm-280-80c0-35.346 28.654-64 64-64s64 28.654 64 64c0 35.346-28.654 64-64 64-35.33-.039-63.96-28.67-64-64zm136-120c0-48.601 39.399-88 88-88s88 39.399 88 88-39.399 88-88 88c-48.577-.057-87.943-39.422-88-88zm-40 248h8v12.688l-8 8V354.88zm-32 32h20.688l-20.688 20.688V386.88zm84.688 80H53.656v-4.688l80-80 60.688 60.688-24 24zm67.312-32h-28.688l-64-64 72-72h52.688v72h-16v-32h-16v96zm72-8a8 8 0 0 1-8 8h-48v-16h56v8zm0-24h-56v-16h56v16zm0-32h-24v-16h24v16zm0-32h-24v-16h16a8 8 0 0 1 8 8v8z"/>
        <path d="M288 53.224l-74.344 74.344-26.344-26.344L176 112.536l32 32a8 8 0 0 0 11.312 0l80-80L288 53.224zM437.656 330.88h-24v-16.408c40.853-4.154 71.948-38.528 72-79.592.004-44.183-35.81-80.003-79.993-80.007-44.183-.004-80.003 35.81-80.007 79.993-.004 41.088 31.118 75.497 72 79.606v16.408c-8.837 0-16 7.163-16 16v8h-16c-13.255 0-24 10.745-24 24v104h16v-16h56v16h16v-112h-16v16h-16v-40h36.688L472 384.536l11.312-11.312-40-40a8.003 8.003 0 0 0-5.656-2.344zm-80 48a8 8 0 0 1 8-8h16v16h-24v-8zm56 72h-56v-16h56v16zm0-48v16h-56v-16h56zm-72-168c0-35.346 28.654-64 64-64 35.346 0 64 28.654 64 64 0 35.346-28.654 64-64 64-35.33-.039-63.96-28.67-64-64z"/>
        <path d="M381.656 247.568l-18.344-18.344L352 240.536l24 24a8 8 0 0 0 11.312 0l60-60L436 193.224l-54.344 54.344zM61.656 239.568l-18.344-18.344L32 232.536l24 24a8 8 0 0 0 11.312 0l60-60L116 185.224l-54.344 54.344z"/>
    </g>
</svg>
