<svg xmlns="http://www.w3.org/2000/svg" width="512" height="512" viewBox="-3 0 482 482.23046">
    <path fill="#165EC4" d="M472.148 287.2c-8.91-15.212-28.398-20.43-43.718-11.712l-68.282 39.39a30.393 30.393 0 0 0-6.304-9.495A31.806 31.806 0 0 0 331.227 296h-120c-1.36 0-2.696.348-3.887 1.008l-52.91 29.441-8.922-24.496c-1.504-4.156-6.094-6.308-10.246-4.8l-75.203 27.359a8.002 8.002 0 0 0-4.797 10.258l2.734 7.511L5.395 361.45a7.99 7.99 0 0 0-4.524 4.133 7.98 7.98 0 0 0-.273 6.121l38.328 105.25a8 8 0 0 0 10.246 4.8l52.633-19.151 2.734 7.511a7.998 7.998 0 0 0 10.25 4.797l75.2-27.367a8 8 0 0 0 4.8-10.246L192.83 432h90.398a8.02 8.02 0 0 0 4-1.07l173.203-100a31.712 31.712 0 0 0 16-27.73 32.266 32.266 0 0 0-4.282-16zM51.227 464L18.43 373.754l45.101-16.418 32.84 90.207zm65.601-6.848l-43.77-120.351 60.137-21.899L176.973 435.2zM452.43 317.07L281.086 416h-94.082l-27.047-74.32L213.301 312h117.926a15.88 15.88 0 0 1 11.296 4.688 15.344 15.344 0 0 1 3.778 6.183c.644 1.633.96 3.375.926 5.129 0 8.836-7.16 16-16 16h-88v16h88c16.156-.05 29.726-12.156 31.617-28.2l73.55-42.448a16.003 16.003 0 0 1 16 0c4.95 2.855 8 8.132 8 13.847a15.86 15.86 0 0 1-7.964 13.871zm0 0M189.57 186.34l96-96.004 11.317 11.316-96.004 96zm0 0M259.227 184c0 13.254 10.746 24 24 24 13.257 0 24-10.746 24-24s-10.743-24-24-24c-13.254 0-24 10.746-24 24zm32 0a8 8 0 1 1-16 0 8 8 0 0 1 16 0zm0 0M203.227 128c13.257 0 24-10.746 24-24s-10.743-24-24-24c-13.254 0-24 10.746-24 24s10.746 24 24 24zm0-32c4.421 0 8 3.582 8 8s-3.579 8-8 8a8 8 0 0 1 0-16zm0 0"/>
    <path fill="#165EC4" d="M243.227 256c61.859 0 112-50.145 112-112s-50.141-112-112-112c-61.856 0-112 50.145-112 112 .066 61.828 50.171 111.934 112 112zm0-208c53.02 0 96 42.98 96 96s-42.98 96-96 96-96-42.98-96-96c.058-52.996 43.007-95.941 96-96zm0 0M235.227 0h16v16h-16zm0 0M198.25 6.926l15.453-4.14 4.145 15.452-15.453 4.145zm0 0M164.3 23.297l13.86-8 8 13.855-13.855 8zm0 0M135.75 47.836l11.313-11.313 11.312 11.313-11.313 11.316zm0 0M114.516 78.93l8-13.856 13.859 8-8.004 13.856zm0 0M102.098 114.48l4.144-15.457 15.453 4.145-4.14 15.457zm0 0M99.227 136h16v16h-16zm0 0M102.066 173.547l15.454-4.14 4.14 15.452L106.207 189zm0 0M114.523 209.066l13.856-8 8 13.856-13.86 8zm0 0M135.75 240.168l11.316-11.313 11.313 11.313-11.313 11.312zm0 0M164.293 264.71l8-13.855 13.86 8-8.005 13.856zm0 0M198.3 281.082l4.145-15.453 15.457 4.144-4.144 15.454zm0 0M235.227 272h16v16h-16zm0 0M268.629 269.707l15.453-4.148 4.148 15.46-15.453 4.149zm0 0M300.3 258.844l13.86-7.996 7.996 13.855-13.855 8zm0 0M328.086 240.168l11.316-11.313 11.309 11.317-11.313 11.312zm0 0M350.078 214.934l8-13.86 13.86 8-8 13.856zm0 0M364.797 184.86l4.14-15.458 15.458 4.141L380.254 189zm0 0M371.227 136h16v16h-16zm0 0M364.797 103.145l15.453-4.141 4.14 15.453-15.452 4.14zm0 0M350.074 73.074l13.856-8 8 13.86-13.86 7.996zm0 0M328.074 47.832l11.313-11.312 11.312 11.312-11.312 11.316zm0 0M300.293 29.148l8-13.859 13.855 8-7.996 13.856zm0 0M268.621 18.281l4.152-15.46 15.45 4.148-4.149 15.46zm0 0"/>
</svg>
