<svg xmlns="http://www.w3.org/2000/svg" width="512" height="512" viewBox="0 0 480 480.12601">
    <path fill="#165EC4" d="M111.613 432.125h96v16h-96zm0 0M111.613 368.125h96v16h-96zm0 0"/>
    <path fill="#165EC4" d="M478.566 187.477L403.926 82.98a36.53 36.53 0 0 0 8.511-6.16l1.282-1.277-11.313-11.313-1.277 1.282a20.921 20.921 0 0 1-24.145 3.925 127.345 127.345 0 0 0-99.32-5.71 107.432 107.432 0 0 1-13.601 3.855V53.164c11.347-12.863 10.53-32.387-1.852-44.258-12.379-11.875-31.918-11.875-44.297 0-12.379 11.871-13.195 31.395-1.851 44.258v14.402a107.122 107.122 0 0 1-13.551-3.847 127.242 127.242 0 0 0-99.328 5.687A21.327 21.327 0 0 1 79 65.492l-1.281-1.277-11.313 11.312 1.274 1.278a36.44 36.44 0 0 0 8.527 6.144L1.559 187.477l.113.082a7.804 7.804 0 0 0-1.61 4.566c.04 30.914 25.09 55.96 56 56h64c30.91-.04 55.961-25.086 56-56a7.828 7.828 0 0 0-1.597-4.566l.11-.082-72.11-100.903a38.679 38.679 0 0 0 7.765-2.808 111.072 111.072 0 0 1 86.747-5.008 125.343 125.343 0 0 0 19.085 5.097v204.27h-24c-27.804.055-51.367 20.484-55.359 48h-81.09a7.998 7.998 0 0 0-7.148 4.426 79.847 79.847 0 0 0-1.54 67.574 79.856 79.856 0 0 0 1.54 67.578 7.994 7.994 0 0 0 7.148 4.422h376a7.997 7.997 0 0 0 7.16-11.574 63.89 63.89 0 0 1 0-56.848c.09-.21.165-.43.227-.648.129-.305.242-.618.328-.938a7.24 7.24 0 0 0 .176-1 6.262 6.262 0 0 0 0-1.984 7.24 7.24 0 0 0-.176-1 7.148 7.148 0 0 0-.328-.934 5.305 5.305 0 0 0-.227-.648 63.89 63.89 0 0 1 0-56.848 8 8 0 0 0-7.16-11.578h-88.191c-3.992-27.516-27.555-47.945-55.36-48h-24V83.855a126.454 126.454 0 0 0 19.09-5.105 111.072 111.072 0 0 1 86.711 5.016 37.09 37.09 0 0 0 7.758 2.816L305.56 187.477l.113.082a7.804 7.804 0 0 0-1.61 4.566c.04 30.914 25.09 55.96 56 56h64c30.91-.04 55.961-25.086 56-56a7.828 7.828 0 0 0-1.597-4.566zM88.063 93.895l64.457 90.23H23.605zm32 138.23h-64c-19-.02-35.376-13.387-39.2-32h142.399c-3.825 18.613-20.196 31.98-39.2 32zm296.496 152a79.717 79.717 0 0 0 3.199 16H284.863c-.183-.465-.418-.918-.593-1.383-.301-.8-.575-1.601-.848-2.398a60.064 60.064 0 0 1-1.246-4.227c-.207-.8-.426-1.597-.602-2.398a66.956 66.956 0 0 1-.8-4.64c-.04-.298-.086-.587-.126-.88zm0 48H280.664c0-.297.086-.582.125-.879.219-1.55.473-3.105.8-4.64.177-.801.395-1.598.602-2.399.368-1.418.801-2.832 1.247-4.227.273-.796.546-1.597.847-2.398.18-.465.41-.922.594-1.383H419.78a79.597 79.597 0 0 0-3.222 15.926zm-150.313-74.398l-.055.207a80.387 80.387 0 0 0-1.39 8c-.09.687-.16 1.359-.235 2.046-.261 2.665-.449 5.329-.457 8v.211c0 2.672.196 5.336.457 8 .075.688.145 1.36.235 2.04a78.19 78.19 0 0 0 1.39 8l.055.207a78.912 78.912 0 0 0 1.535 5.601h-15.344a63.82 63.82 0 0 1 0-48h15.344a95.102 95.102 0 0 0-1.535 5.727zM92.863 416.125h142.602a79.986 79.986 0 0 0 0 48H92.863a63.784 63.784 0 0 1 0-48zm142.582-16H92.863a63.784 63.784 0 0 1 0-48h142.602a79.986 79.986 0 0 0 0 48zm-174.672-48H75.91a79.986 79.986 0 0 0 0 48H60.773a63.969 63.969 0 0 1 0-48zm0 64H75.91a79.986 79.986 0 0 0 0 48H60.773a63.969 63.969 0 0 1 0-48zm191.665 48a63.82 63.82 0 0 1 0-48h15.343a86.419 86.419 0 0 0-1.535 5.602l-.055.207a80.387 80.387 0 0 0-1.39 8c-.09.687-.16 1.359-.235 2.046-.261 2.665-.449 5.329-.457 8v.211c0 2.672.196 5.336.457 8 .075.688.145 1.36.235 2.04a78.19 78.19 0 0 0 1.39 8l.055.207a78.912 78.912 0 0 0 1.535 5.601zm32.425 0c-.183-.465-.418-.918-.593-1.383-.301-.8-.575-1.601-.848-2.398a60.064 60.064 0 0 1-1.246-4.227c-.207-.8-.426-1.597-.602-2.398a66.956 66.956 0 0 1-.8-4.64c-.04-.298-.086-.587-.126-.88h135.91a79.826 79.826 0 0 0 3.2 16zm131.68-96H280.664c0-.297.086-.582.125-.879.219-1.55.473-3.105.8-4.64.177-.801.395-1.598.602-2.399.368-1.418.801-2.832 1.247-4.227.273-.796.546-1.597.847-2.398.18-.465.41-.922.594-1.383H419.78a79.597 79.597 0 0 0-3.222 15.926zm-89.281-32H152.863c3.825-18.613 20.2-31.977 39.2-32h96c19.003.023 35.375 13.387 39.199 32zm-95.2-48V49.902a8.006 8.006 0 0 0-2.64-5.945 15.802 15.802 0 0 1-5.36-11.832c0-8.836 7.165-16 16-16s16 7.164 16 16a15.788 15.788 0 0 1-5.359 11.832 8.006 8.006 0 0 0-2.64 5.945v238.223zm224.458-104H327.605l64.458-90.23zm-32.457 48h-64c-19-.02-35.375-13.387-39.2-32h142.399c-3.824 18.613-20.196 31.98-39.2 32zm0 0"/>
</svg>
