<svg xmlns="http://www.w3.org/2000/svg" width="512" height="512" viewBox="0 0 512 512">
    <path fill="#FFF" d="M370.907 353.269a7.525 7.525 0 0 0-7.14-7.892 7.504 7.504 0 0 0-7.891 7.141c-.782 15.655-9.306 30.959-22.363 40.984-8.07-17.059-24.96-24.861-38.804-21.571-11.017 2.602-19.647 13.312-19.647 24.382 0 16.728 19.443 29.772 47.876 19.865-.326 6.765-2.42 13.493-5.981 19.13-7.6 12.045-25.349 21.749-39.925 25.735-.313-18.894-9.836-27.689-22.764-53.869-10.02-18.523-33.134-25.355-51.588-15.372l-7.336 3.967c-20.306 10.985-45.668 3.429-56.652-16.882l-49.177-90.924c-10.985-20.306-3.429-45.668 16.882-56.652l7.336-3.968c18.525-10.019 25.355-33.134 15.372-51.587L112.4 144.872c-17.59-32.525-63.598-35.585-85.163-4.746-32.116 45.925-34.604 104.939-8.777 152.689l45.667 84.436a7.525 7.525 0 0 0 10.199 3.039 7.524 7.524 0 0 0 3.039-10.199l-45.667-84.436c-23.205-42.901-20.872-95.796 7.873-136.902 14.94-21.367 47.112-19.79 59.589 3.281 14.989 29.251 19.481 32.232 19.481 41.804 0 17.604-17.017 22.295-19.407 24.236-27.673 14.967-37.87 49.488-22.961 77.052l49.176 90.923a56.837 56.837 0 0 0 50.05 29.816c18.654 0 29.825-8.866 34.338-10.823 11.184-6.049 25.141-1.886 31.189 9.293l16.708 30.892c12.135 22.442-3.002 50.662-29.087 51.631-47.446 1.764-94.912-22.54-119.672-68.32l-17.29-31.97a7.524 7.524 0 0 0-10.199-3.039 7.524 7.524 0 0 0-3.039 10.199l17.29 31.969c27.035 49.986 79.303 78.211 133.469 76.201 21.601-.803 39.423-15.202 45.555-34.898 19.606-3.75 44.266-16.773 54.92-33.659 6.194-9.805 9.347-22.241 8.069-34.436 19.229-12.414 32.063-33.715 33.157-55.636zm-80.794 43.044c0-4.456 4.337-10.078 11.032-10.078 6.702 0 15.11 5.025 19.259 14.819-15.586 6.318-30.291 3.367-30.291-4.741z"/>
    <path fill="#FFF" d="M344.38 25a7.526 7.526 0 0 0-11.138 10.123c35.395 38.942 7.906 102.002-45.138 102.002h-85.125a7.524 7.524 0 0 0-6.878 4.473l-21.62 48.733c-2.381 5.367-10.315 3.644-10.315-2.185v-51.703a7.524 7.524 0 0 0-3.945-6.619c-19.862-10.743-32.2-31.334-32.2-53.737 0-33.656 27.382-61.037 61.037-61.037 94.334 1.298 103.44-3.281 122.475 4.705a7.525 7.525 0 1 0 5.821-13.879A75.235 75.235 0 0 0 288.104 0h-99.047c-41.955 0-76.088 34.133-76.088 76.088 0 26.418 13.739 50.805 36.145 64.689v47.369c0 21.914 30.146 28.525 39.123 8.289l19.635-44.259h80.231c66.099 0 100.4-78.631 56.277-127.176z"/>
    <path fill="#FFF" d="M458.057 307.011a7.526 7.526 0 0 0-3.945 6.619v11.081c0 4.156 3.368 7.525 7.525 7.525s7.525-3.369 7.525-7.525v-6.73c25.971-15.823 41.923-43.911 41.923-74.356 0-47.999-39.05-87.049-87.048-87.049h-114.88c-47.998 0-87.048 39.05-87.048 87.048 0 47.998 39.05 87.048 87.048 87.048h93.838l23.092 52.05c9.904 22.323 43.076 14.959 43.076-9.126v-18.783c0-4.156-3.368-7.525-7.525-7.525s-7.525 3.369-7.525 7.525v18.783c0 8.017-10.972 10.446-14.267 3.022l-25.076-56.523a7.524 7.524 0 0 0-6.878-4.473h-98.733c-39.699 0-71.997-32.297-71.997-71.997s32.297-71.997 71.997-71.997h114.88c39.699 0 71.997 32.298 71.997 71.997-.001 26.426-14.553 50.715-37.979 63.386z"/>
    <circle cx="167.547" cy="71.321" r="12.03" fill="#FFF"/>
    <circle cx="214.907" cy="71.321" r="12.03" fill="#FFF"/>
    <circle cx="262.257" cy="71.321" r="12.03" fill="#FFF"/>
    <circle cx="309.607" cy="71.321" r="12.03" fill="#FFF"/>
    <path fill="#FFF" d="M363.317 280.782c-5.518 0-9.992 4.623-9.992 10.14 0 5.369 4.325 10.14 9.992 10.14 5.667 0 10.14-4.772 10.14-10.14 0-5.518-4.623-10.14-10.14-10.14zM364.958 190.562c-18.044 0-27.439 10.438-27.439 17.596 0 4.922 4.026 7.158 7.455 7.158 6.86 0 4.922-10.29 19.535-10.29 9.097 0 15.36 4.474 15.36 12.824 0 10.141-9.394 15.36-14.613 20.281-4.176 3.729-8.947 9.694-8.947 23.562 0 6.413 1.939 8.351 6.859 8.351 15.047-.001-.007-12.875 14.913-25.054 4.473-4.176 17.596-13.869 17.596-29.229-.001-14.314-11.78-25.199-30.719-25.199z"/>
</svg>
