<svg xmlns="http://www.w3.org/2000/svg" width="512" height="512" viewBox="0 0 512 512">
    <path fill="#FFF" d="M256 0C114.844 0 0 114.844 0 256s114.844 256 256 256 256-114.844 256-256S397.156 0 256 0zM53.333 266.667H32c-5.896 0-10.667-4.771-10.667-10.667S26.104 245.333 32 245.333h21.333C59.229 245.333 64 250.104 64 256s-4.771 10.667-10.667 10.667zM245.333 32c0-5.896 4.771-10.667 10.667-10.667S266.667 26.104 266.667 32v21.333C266.667 59.229 261.896 64 256 64s-10.667-4.771-10.667-10.667V32zm21.334 448c0 5.896-4.771 10.667-10.667 10.667s-10.667-4.771-10.667-10.667v-21.333c0-5.896 4.771-10.667 10.667-10.667s10.667 4.771 10.667 10.667V480zm92.875-120.458a10.634 10.634 0 0 1-7.542 3.125 10.636 10.636 0 0 1-7.542-3.125l-83.26-83.26c-1.707.441-3.355 1.052-5.198 1.052-11.76 0-21.333-9.573-21.333-21.333 0-11.049 8.552-19.865 19.328-20.927L321 91.49c2.5-5.323 8.854-7.604 14.177-5.156 5.344 2.49 7.646 8.844 5.156 14.177L273.28 244.189c2.355 3.43 4.053 7.346 4.053 11.811 0 1.842-.611 3.491-1.052 5.198l83.26 83.26c4.167 4.167 4.167 10.917.001 15.084zM480 266.667h-21.333c-5.896 0-10.667-4.771-10.667-10.667s4.771-10.667 10.667-10.667H480c5.896 0 10.667 4.771 10.667 10.667s-4.771 10.667-10.667 10.667z"/>
</svg>
