<svg xmlns="http://www.w3.org/2000/svg" width="512" height="512" viewBox="0 0 500.158 500.158">
    <path fill="#165EC4" d="M426.904 73.296c-97.725-97.723-255.89-97.734-353.624 0-68.556 68.556-88.31 165.671-62.149 250.618a7.5 7.5 0 0 0 14.335-4.415C.976 239.982 19.198 148.591 83.885 83.902c91.863-91.862 240.54-91.869 332.41 0 91.861 91.862 91.868 240.54 0 332.41-115.513 115.516-312.678 81.151-380.57-69.632a7.5 7.5 0 0 0-13.678 6.158c38.834 86.247 125.744 147.319 228.043 147.319 138.203 0 250.049-111.834 250.049-250.05.001-66.79-26.008-129.583-73.235-176.811z"/>
    <path fill="#165EC4" d="M172.708 54.826C94.425 85.952 40.041 162.174 40.041 250.108c0 155.208 163.782 257.322 303.003 188.343a7.501 7.501 0 0 0-6.66-13.441C207.302 488.965 55.041 394.396 55.041 250.108c0-80.402 48.362-151.583 123.208-181.344a7.499 7.499 0 0 0 4.198-9.74 7.498 7.498 0 0 0-9.739-4.198zM205.774 60.136c122.543-28.58 239.367 64.977 239.367 189.972 0 63.761-31.375 123.657-83.929 160.22-6.021 4.189-3.018 13.657 4.29 13.657a7.464 7.464 0 0 0 4.276-1.344c56.582-39.367 90.362-103.865 90.362-172.534 0-134.717-125.884-235.337-257.774-204.581a7.501 7.501 0 0 0 3.408 14.61z"/>
    <path fill="#165EC4" d="M139.763 158.425l31.968 55.83-80.874 21.979c-14.131 3.84-14.121 23.913 0 27.75l80.874 21.979-31.969 55.83c-6.912 12.074 6.581 25.552 18.646 18.645l55.829-31.968 21.979 80.874c3.885 14.297 23.948 13.989 27.75 0l21.979-80.874 55.83 31.969c12.09 6.92 25.534-6.613 18.646-18.646l-31.969-55.83 80.873-21.978c14.14-3.843 14.114-23.915 0-27.75l-80.873-21.979 31.969-55.83c6.915-12.079-6.585-25.551-18.646-18.645l-55.829 31.968-21.979-80.875c-3.843-14.137-23.915-14.114-27.75 0l-21.979 80.874-55.83-31.969c-12.076-6.915-25.551 6.583-18.645 18.646zm15.463 186.548l31.463-54.947 18.465 5.018 5.018 18.466zm189.731 0L290.01 313.51l5.019-18.466 18.465-5.018zm0-189.731l-31.464 54.947-18.465-5.018-5.019-18.466zm-125.422 54.206l30.556-112.432 30.555 112.431a14.432 14.432 0 0 0 10.104 10.105l112.431 30.555-112.431 30.556h-.001a14.437 14.437 0 0 0-10.103 10.104L250.09 403.199l-30.555-112.431a14.436 14.436 0 0 0-10.104-10.105l-112.43-30.555 112.432-30.555a14.433 14.433 0 0 0 10.102-10.105zm-14.381-4.277l-18.465 5.018-31.463-54.947 54.947 31.463z"/>
</svg>
