<svg xmlns="http://www.w3.org/2000/svg" width="512" height="512" viewBox="0 -23 512 512">
    <path fill="#FFF" d="M484.23 0H27.77C12.457 0 0 12.457 0 27.77v100.546c0 4.18 3.39 7.575 7.574 7.575a7.576 7.576 0 0 0 7.574-7.575V27.77c0-6.957 5.665-12.622 12.622-12.622h456.46c6.961 0 12.622 5.665 12.622 12.622v302.96c0 6.961-5.664 12.622-12.622 12.622H327.422a72.452 72.452 0 0 0 0-21.207h98.234a7.574 7.574 0 0 0 7.574-7.575c0-19.21 15.63-34.84 34.84-34.84a7.574 7.574 0 0 0 7.575-7.574v-128.84a7.574 7.574 0 0 0-7.575-7.574 7.574 7.574 0 0 0-7.574 7.574v121.84c-21.512 3.285-38.558 20.328-41.84 41.84h-95.215c-10.394-27.129-36.699-46.453-67.441-46.453s-57.047 19.324-67.441 46.453H93.344c-3.281-21.512-20.328-38.555-41.84-41.84V93.344c21.512-3.285 38.559-20.328 41.84-41.84h325.312c3.285 21.512 20.328 38.555 41.84 41.84v14.648a7.576 7.576 0 0 0 7.574 7.574 7.574 7.574 0 0 0 7.575-7.574V86.344a7.574 7.574 0 0 0-7.575-7.574c-19.21 0-34.84-15.63-34.84-34.84a7.574 7.574 0 0 0-7.574-7.575H86.344a7.574 7.574 0 0 0-7.574 7.575c0 19.21-15.63 34.84-34.84 34.84a7.574 7.574 0 0 0-7.575 7.574v185.812a7.574 7.574 0 0 0 7.575 7.574c19.21 0 34.84 15.63 34.84 34.84a7.574 7.574 0 0 0 7.574 7.575h98.234c-.512 3.464-.781 7.003-.781 10.605s.27 7.14.781 10.605H27.77c-6.961 0-12.622-5.664-12.622-12.625V163.535a7.574 7.574 0 0 0-7.574-7.574A7.574 7.574 0 0 0 0 163.535V330.73c0 15.313 12.457 27.77 27.77 27.77h160.789a72.172 72.172 0 0 0 10.382 18.422v81.05a7.576 7.576 0 0 0 10.438 7.012L256 445.954l46.621 19.03a7.574 7.574 0 0 0 7.086-.727 7.571 7.571 0 0 0 3.352-6.284v-21.664a7.576 7.576 0 0 0-7.575-7.575 7.574 7.574 0 0 0-7.574 7.575v10.39l-39.047-15.937a7.605 7.605 0 0 0-5.726 0l-39.047 15.937v-55.207c11.828 8.461 26.293 13.461 41.91 13.461s30.082-5 41.91-13.46v9.421a7.574 7.574 0 0 0 7.574 7.574c4.18 0 7.575-3.39 7.575-7.574v-23.992A72.172 72.172 0 0 0 323.44 358.5h160.79c15.312 0 27.769-12.457 27.769-27.77V27.77C512 12.457 499.543 0 484.23 0zM256 389.805c-31.46 0-57.059-25.594-57.059-57.055S224.54 275.691 256 275.691s57.059 25.598 57.059 57.059S287.46 389.805 256 389.805zm0 0"/>
    <path fill="#FFF" d="M322.652 99.977c4.184 0 7.575-3.391 7.575-7.575s-3.391-7.574-7.575-7.574H189.348c-4.184 0-7.575 3.39-7.575 7.574s3.391 7.575 7.575 7.575zm0 0M373.145 125.223h-234.29c-4.183 0-7.574 3.39-7.574 7.574s3.39 7.574 7.574 7.574h234.29c4.183 0 7.574-3.39 7.574-7.574s-3.39-7.574-7.574-7.574zm0 0M373.145 165.617h-234.29c-4.183 0-7.574 3.39-7.574 7.574s3.39 7.575 7.574 7.575h234.29c4.183 0 7.574-3.391 7.574-7.575s-3.39-7.574-7.574-7.574zm0 0M373.145 212.07h-36.356a7.574 7.574 0 0 0-7.574 7.575 7.574 7.574 0 0 0 7.574 7.574h36.356a7.574 7.574 0 0 0 7.574-7.574 7.574 7.574 0 0 0-7.574-7.575zm0 0M138.855 212.07a7.574 7.574 0 0 0-7.574 7.575 7.574 7.574 0 0 0 7.574 7.574h36.356a7.574 7.574 0 0 0 7.574-7.574 7.574 7.574 0 0 0-7.574-7.575zm0 0M256 292.86c-21.996 0-39.89 17.894-39.89 39.89s17.894 39.89 39.89 39.89 39.89-17.894 39.89-39.89-17.894-39.89-39.89-39.89zm0 64.632c-13.645 0-24.742-11.101-24.742-24.742 0-13.645 11.097-24.742 24.742-24.742s24.742 11.097 24.742 24.742c0 13.64-11.097 24.742-24.742 24.742zm0 0M230.25 219.645c0 14.199 11.55 25.75 25.75 25.75s25.75-11.551 25.75-25.75-11.55-25.75-25.75-25.75-25.75 11.55-25.75 25.75zm36.355 0c0 5.847-4.757 10.605-10.605 10.605s-10.605-4.758-10.605-10.605c0-5.848 4.757-10.606 10.605-10.606s10.605 4.758 10.605 10.606zm0 0"/>
</svg>
