<svg xmlns="http://www.w3.org/2000/svg" width="944" height="130">
    <path fill="#165EC4" fill-rule="evenodd" d="M943.18 113.912a.76.76 0 0 1-.57-.239.788.788 0 0 1-.23-.56c0-.201.077-.37.23-.51a.808.808 0 0 1 .57-.21c.2 0 .37.073.51.22.14.147.21.313.21.5 0 .213-.07.399-.21.56a.656.656 0 0 1-.51.239zm0-16a.756.756 0 0 1-.57-.239.784.784 0 0 1-.23-.56c0-.201.077-.371.23-.511a.816.816 0 0 1 .57-.209c.2 0 .37.073.51.22.14.147.21.313.21.5 0 .214-.07.4-.21.56a.653.653 0 0 1-.51.239zm0-15.999a.754.754 0 0 1-.57-.241.782.782 0 0 1-.23-.559c0-.2.077-.371.23-.51a.813.813 0 0 1 .57-.21c.2 0 .37.073.51.22.14.146.21.313.21.5 0 .213-.07.4-.21.559a.651.651 0 0 1-.51.241zm0-16.001a.753.753 0 0 1-.57-.24.784.784 0 0 1-.23-.559c0-.201.077-.37.23-.51a.813.813 0 0 1 .57-.21c.2 0 .37.074.51.22.14.146.21.313.21.5 0 .213-.07.399-.21.559a.65.65 0 0 1-.51.24zm0-16a.756.756 0 0 1-.57-.239.788.788 0 0 1-.23-.56c0-.201.077-.371.23-.51a.813.813 0 0 1 .57-.21c.2 0 .37.074.51.219.14.147.21.314.21.501 0 .213-.07.399-.21.56a.653.653 0 0 1-.51.239zm0-15.999a.754.754 0 0 1-.57-.241.784.784 0 0 1-.23-.559c0-.2.077-.37.23-.51a.813.813 0 0 1 .57-.21c.2 0 .37.073.51.219.14.147.21.314.21.501 0 .213-.07.399-.21.559a.651.651 0 0 1-.51.241zm0-16a.758.758 0 0 1-.57-.241.784.784 0 0 1-.23-.559c0-.201.077-.37.23-.51a.813.813 0 0 1 .57-.21c.2 0 .37.073.51.22.14.147.21.313.21.5 0 .213-.07.399-.21.559a.655.655 0 0 1-.51.241zm0-16.001a.76.76 0 0 1-.57-.239.786.786 0 0 1-.23-.56c0-.201.077-.37.23-.511a.816.816 0 0 1 .57-.209c.2 0 .37.073.51.219a.71.71 0 0 1 .21.501c0 .213-.07.4-.21.56a.656.656 0 0 1-.51.239zm-17.45 128a.759.759 0 0 1-.57-.239.788.788 0 0 1-.23-.56c0-.2.077-.37.23-.51a.816.816 0 0 1 .57-.21c.2 0 .37.073.51.219.14.147.21.314.21.501 0 .213-.07.399-.21.56a.653.653 0 0 1-.51.239zm0-16a.763.763 0 0 1-.57-.239.788.788 0 0 1-.23-.56c0-.201.077-.37.23-.51a.812.812 0 0 1 .57-.21c.2 0 .37.073.51.22.14.147.21.313.21.5 0 .213-.07.399-.21.56a.656.656 0 0 1-.51.239zm0-16a.759.759 0 0 1-.57-.239.784.784 0 0 1-.23-.56c0-.201.077-.371.23-.511a.82.82 0 0 1 .57-.209c.2 0 .37.073.51.22.14.147.21.313.21.5 0 .214-.07.4-.21.56a.653.653 0 0 1-.51.239zm0-15.999a.757.757 0 0 1-.57-.241.782.782 0 0 1-.23-.559c0-.2.077-.371.23-.51a.816.816 0 0 1 .57-.21c.2 0 .37.073.51.22.14.146.21.313.21.5 0 .213-.07.4-.21.559a.651.651 0 0 1-.51.241zm0-16.001a.756.756 0 0 1-.57-.24.784.784 0 0 1-.23-.559c0-.201.077-.37.23-.51a.816.816 0 0 1 .57-.21c.2 0 .37.074.51.22.14.146.21.313.21.5 0 .213-.07.399-.21.559a.65.65 0 0 1-.51.24zm0-16a.759.759 0 0 1-.57-.239.788.788 0 0 1-.23-.56c0-.201.077-.371.23-.51a.816.816 0 0 1 .57-.21c.2 0 .37.074.51.219.14.147.21.314.21.501 0 .213-.07.399-.21.56a.653.653 0 0 1-.51.239zm0-15.999a.757.757 0 0 1-.57-.241.784.784 0 0 1-.23-.559c0-.2.077-.37.23-.51a.816.816 0 0 1 .57-.21c.2 0 .37.073.51.219.14.147.21.314.21.501 0 .213-.07.399-.21.559a.651.651 0 0 1-.51.241zm0-16a.76.76 0 0 1-.57-.241.784.784 0 0 1-.23-.559c0-.201.077-.37.23-.51a.816.816 0 0 1 .57-.21c.2 0 .37.073.51.22.14.147.21.313.21.5 0 .213-.07.399-.21.559a.655.655 0 0 1-.51.241zm0-16.001a.763.763 0 0 1-.57-.239.786.786 0 0 1-.23-.56c0-.201.077-.37.23-.511a.82.82 0 0 1 .57-.209c.2 0 .37.073.51.219a.71.71 0 0 1 .21.501c0 .213-.07.4-.21.56a.656.656 0 0 1-.51.239zm-17.45 128a.756.756 0 0 1-.57-.239.788.788 0 0 1-.23-.56c0-.2.077-.37.23-.51a.813.813 0 0 1 .57-.21c.2 0 .37.073.51.219.14.147.21.314.21.501 0 .213-.07.399-.21.56a.653.653 0 0 1-.51.239zm0-16a.76.76 0 0 1-.57-.239.788.788 0 0 1-.23-.56c0-.201.077-.37.23-.51a.808.808 0 0 1 .57-.21c.2 0 .37.073.51.22.14.147.21.313.21.5 0 .213-.07.399-.21.56a.656.656 0 0 1-.51.239zm0-16a.756.756 0 0 1-.57-.239.784.784 0 0 1-.23-.56c0-.201.077-.371.23-.511a.816.816 0 0 1 .57-.209c.2 0 .37.073.51.22.14.147.21.313.21.5 0 .214-.07.4-.21.56a.653.653 0 0 1-.51.239zm0-15.999a.754.754 0 0 1-.57-.241.782.782 0 0 1-.23-.559c0-.2.077-.371.23-.51a.813.813 0 0 1 .57-.21c.2 0 .37.073.51.22.14.146.21.313.21.5 0 .213-.07.4-.21.559a.651.651 0 0 1-.51.241zm0-16.001a.753.753 0 0 1-.57-.24.784.784 0 0 1-.23-.559c0-.201.077-.37.23-.51a.813.813 0 0 1 .57-.21c.2 0 .37.074.51.22.14.146.21.313.21.5 0 .213-.07.399-.21.559a.65.65 0 0 1-.51.24zm0-16a.756.756 0 0 1-.57-.239.788.788 0 0 1-.23-.56c0-.201.077-.371.23-.51a.813.813 0 0 1 .57-.21c.2 0 .37.074.51.219.14.147.21.314.21.501 0 .213-.07.399-.21.56a.653.653 0 0 1-.51.239zm0-15.999a.754.754 0 0 1-.57-.241.784.784 0 0 1-.23-.559c0-.2.077-.37.23-.51a.813.813 0 0 1 .57-.21c.2 0 .37.073.51.219.14.147.21.314.21.501 0 .213-.07.399-.21.559a.651.651 0 0 1-.51.241zm0-16a.758.758 0 0 1-.57-.241.784.784 0 0 1-.23-.559c0-.201.077-.37.23-.51a.813.813 0 0 1 .57-.21c.2 0 .37.073.51.22.14.147.21.313.21.5 0 .213-.07.399-.21.559a.655.655 0 0 1-.51.241zm0-16.001a.76.76 0 0 1-.57-.239.786.786 0 0 1-.23-.56c0-.201.077-.37.23-.511a.816.816 0 0 1 .57-.209c.2 0 .37.073.51.219a.71.71 0 0 1 .21.501c0 .213-.07.4-.21.56a.656.656 0 0 1-.51.239zm-17.45 128a.756.756 0 0 1-.57-.239.788.788 0 0 1-.23-.56c0-.2.077-.37.23-.51a.813.813 0 0 1 .57-.21c.2 0 .37.073.51.219.14.147.21.314.21.501 0 .213-.07.399-.21.56a.653.653 0 0 1-.51.239zm0-16a.76.76 0 0 1-.57-.239.788.788 0 0 1-.23-.56c0-.201.077-.37.23-.51a.808.808 0 0 1 .57-.21c.2 0 .37.073.51.22.14.147.21.313.21.5 0 .213-.07.399-.21.56a.656.656 0 0 1-.51.239zm0-16a.756.756 0 0 1-.57-.239.784.784 0 0 1-.23-.56c0-.201.077-.371.23-.511a.816.816 0 0 1 .57-.209c.2 0 .37.073.51.22.14.147.21.313.21.5 0 .214-.07.4-.21.56a.653.653 0 0 1-.51.239zm0-15.999a.754.754 0 0 1-.57-.241.782.782 0 0 1-.23-.559c0-.2.077-.371.23-.51a.813.813 0 0 1 .57-.21c.2 0 .37.073.51.22.14.146.21.313.21.5 0 .213-.07.4-.21.559a.651.651 0 0 1-.51.241zm0-16.001a.753.753 0 0 1-.57-.24.784.784 0 0 1-.23-.559c0-.201.077-.37.23-.51a.813.813 0 0 1 .57-.21c.2 0 .37.074.51.22.14.146.21.313.21.5 0 .213-.07.399-.21.559a.65.65 0 0 1-.51.24zm0-16a.756.756 0 0 1-.57-.239.788.788 0 0 1-.23-.56c0-.201.077-.371.23-.51a.813.813 0 0 1 .57-.21c.2 0 .37.074.51.219.14.147.21.314.21.501 0 .213-.07.399-.21.56a.653.653 0 0 1-.51.239zm0-15.999a.754.754 0 0 1-.57-.241.784.784 0 0 1-.23-.559c0-.2.077-.37.23-.51a.813.813 0 0 1 .57-.21c.2 0 .37.073.51.219.14.147.21.314.21.501 0 .213-.07.399-.21.559a.651.651 0 0 1-.51.241zm0-16a.758.758 0 0 1-.57-.241.784.784 0 0 1-.23-.559c0-.201.077-.37.23-.51a.813.813 0 0 1 .57-.21c.2 0 .37.073.51.22.14.147.21.313.21.5 0 .213-.07.399-.21.559a.655.655 0 0 1-.51.241zm0-16.001a.76.76 0 0 1-.57-.239.786.786 0 0 1-.23-.56c0-.201.077-.37.23-.511a.816.816 0 0 1 .57-.209c.2 0 .37.073.51.219a.71.71 0 0 1 .21.501c0 .213-.07.4-.21.56a.656.656 0 0 1-.51.239zm-17.45 128a.756.756 0 0 1-.57-.239.788.788 0 0 1-.23-.56c0-.2.077-.37.23-.51a.813.813 0 0 1 .57-.21c.2 0 .37.073.51.219.14.147.21.314.21.501 0 .213-.07.399-.21.56a.653.653 0 0 1-.51.239zm0-16a.76.76 0 0 1-.57-.239.788.788 0 0 1-.23-.56c0-.201.077-.37.23-.51a.808.808 0 0 1 .57-.21c.2 0 .37.073.51.22.14.147.21.313.21.5 0 .213-.07.399-.21.56a.656.656 0 0 1-.51.239zm0-16a.756.756 0 0 1-.57-.239.784.784 0 0 1-.23-.56c0-.201.077-.371.23-.511a.816.816 0 0 1 .57-.209c.2 0 .37.073.51.22.14.147.21.313.21.5 0 .214-.07.4-.21.56a.653.653 0 0 1-.51.239zm0-15.999a.754.754 0 0 1-.57-.241.782.782 0 0 1-.23-.559c0-.2.077-.371.23-.51a.813.813 0 0 1 .57-.21c.2 0 .37.073.51.22.14.146.21.313.21.5 0 .213-.07.4-.21.559a.651.651 0 0 1-.51.241zm0-16.001a.753.753 0 0 1-.57-.24.784.784 0 0 1-.23-.559c0-.201.077-.37.23-.51a.813.813 0 0 1 .57-.21c.2 0 .37.074.51.22.14.146.21.313.21.5 0 .213-.07.399-.21.559a.65.65 0 0 1-.51.24zm0-16a.756.756 0 0 1-.57-.239.788.788 0 0 1-.23-.56c0-.201.077-.371.23-.51a.813.813 0 0 1 .57-.21c.2 0 .37.074.51.219.14.147.21.314.21.501 0 .213-.07.399-.21.56a.653.653 0 0 1-.51.239zm0-15.999a.754.754 0 0 1-.57-.241.784.784 0 0 1-.23-.559c0-.2.077-.37.23-.51a.813.813 0 0 1 .57-.21c.2 0 .37.073.51.219.14.147.21.314.21.501 0 .213-.07.399-.21.559a.651.651 0 0 1-.51.241zm0-16a.758.758 0 0 1-.57-.241.784.784 0 0 1-.23-.559c0-.201.077-.37.23-.51a.813.813 0 0 1 .57-.21c.2 0 .37.073.51.22.14.147.21.313.21.5 0 .213-.07.399-.21.559a.655.655 0 0 1-.51.241zm0-16.001a.76.76 0 0 1-.57-.239.786.786 0 0 1-.23-.56c0-.201.077-.37.23-.511a.816.816 0 0 1 .57-.209c.2 0 .37.073.51.219a.71.71 0 0 1 .21.501c0 .213-.07.4-.21.56a.656.656 0 0 1-.51.239zm-17.45 128a.756.756 0 0 1-.57-.239.788.788 0 0 1-.23-.56c0-.2.077-.37.23-.51a.813.813 0 0 1 .57-.21c.2 0 .37.073.51.219.14.147.21.314.21.501 0 .213-.07.399-.21.56a.653.653 0 0 1-.51.239zm0-16a.76.76 0 0 1-.57-.239.788.788 0 0 1-.23-.56c0-.201.077-.37.23-.51a.808.808 0 0 1 .57-.21c.2 0 .37.073.51.22.14.147.21.313.21.5 0 .213-.07.399-.21.56a.656.656 0 0 1-.51.239zm0-16a.756.756 0 0 1-.57-.239.784.784 0 0 1-.23-.56c0-.201.077-.371.23-.511a.816.816 0 0 1 .57-.209c.2 0 .37.073.51.22.14.147.21.313.21.5 0 .214-.07.4-.21.56a.653.653 0 0 1-.51.239zm0-15.999a.754.754 0 0 1-.57-.241.782.782 0 0 1-.23-.559c0-.2.077-.371.23-.51a.813.813 0 0 1 .57-.21c.2 0 .37.073.51.22.14.146.21.313.21.5 0 .213-.07.4-.21.559a.651.651 0 0 1-.51.241zm0-16.001a.753.753 0 0 1-.57-.24.784.784 0 0 1-.23-.559c0-.201.077-.37.23-.51a.813.813 0 0 1 .57-.21c.2 0 .37.074.51.22.14.146.21.313.21.5 0 .213-.07.399-.21.559a.65.65 0 0 1-.51.24zm0-16a.756.756 0 0 1-.57-.239.788.788 0 0 1-.23-.56c0-.201.077-.371.23-.51a.813.813 0 0 1 .57-.21c.2 0 .37.074.51.219.14.147.21.314.21.501 0 .213-.07.399-.21.56a.653.653 0 0 1-.51.239zm0-15.999a.754.754 0 0 1-.57-.241.784.784 0 0 1-.23-.559c0-.2.077-.37.23-.51a.813.813 0 0 1 .57-.21c.2 0 .37.073.51.219.14.147.21.314.21.501 0 .213-.07.399-.21.559a.651.651 0 0 1-.51.241zm0-16a.758.758 0 0 1-.57-.241.784.784 0 0 1-.23-.559c0-.201.077-.37.23-.51a.813.813 0 0 1 .57-.21c.2 0 .37.073.51.22.14.147.21.313.21.5 0 .213-.07.399-.21.559a.655.655 0 0 1-.51.241zm0-16.001a.76.76 0 0 1-.57-.239.786.786 0 0 1-.23-.56c0-.201.077-.37.23-.511a.816.816 0 0 1 .57-.209c.2 0 .37.073.51.219a.71.71 0 0 1 .21.501c0 .213-.07.4-.21.56a.656.656 0 0 1-.51.239zm-17.45 128a.756.756 0 0 1-.57-.239.788.788 0 0 1-.23-.56c0-.2.077-.37.23-.51a.813.813 0 0 1 .57-.21c.2 0 .37.073.51.219.14.147.21.314.21.501 0 .213-.07.399-.21.56a.653.653 0 0 1-.51.239zm0-16a.76.76 0 0 1-.57-.239.788.788 0 0 1-.23-.56c0-.201.077-.37.23-.51a.808.808 0 0 1 .57-.21c.2 0 .37.073.51.22.14.147.21.313.21.5 0 .213-.07.399-.21.56a.656.656 0 0 1-.51.239zm0-16a.756.756 0 0 1-.57-.239.784.784 0 0 1-.23-.56c0-.201.077-.371.23-.511a.816.816 0 0 1 .57-.209c.2 0 .37.073.51.22.14.147.21.313.21.5 0 .214-.07.4-.21.56a.653.653 0 0 1-.51.239zm0-15.999a.754.754 0 0 1-.57-.241.782.782 0 0 1-.23-.559c0-.2.077-.371.23-.51a.813.813 0 0 1 .57-.21c.2 0 .37.073.51.22.14.146.21.313.21.5 0 .213-.07.4-.21.559a.651.651 0 0 1-.51.241zm0-16.001a.753.753 0 0 1-.57-.24.784.784 0 0 1-.23-.559c0-.201.077-.37.23-.51a.813.813 0 0 1 .57-.21c.2 0 .37.074.51.22.14.146.21.313.21.5 0 .213-.07.399-.21.559a.65.65 0 0 1-.51.24zm0-16a.756.756 0 0 1-.57-.239.788.788 0 0 1-.23-.56c0-.201.077-.371.23-.51a.813.813 0 0 1 .57-.21c.2 0 .37.074.51.219.14.147.21.314.21.501 0 .213-.07.399-.21.56a.653.653 0 0 1-.51.239zm0-15.999a.754.754 0 0 1-.57-.241.784.784 0 0 1-.23-.559c0-.2.077-.37.23-.51a.813.813 0 0 1 .57-.21c.2 0 .37.073.51.219.14.147.21.314.21.501 0 .213-.07.399-.21.559a.651.651 0 0 1-.51.241zm0-16a.758.758 0 0 1-.57-.241.784.784 0 0 1-.23-.559c0-.201.077-.37.23-.51a.813.813 0 0 1 .57-.21c.2 0 .37.073.51.22.14.147.21.313.21.5 0 .213-.07.399-.21.559a.655.655 0 0 1-.51.241zm0-16.001a.76.76 0 0 1-.57-.239.786.786 0 0 1-.23-.56c0-.201.077-.37.23-.511a.816.816 0 0 1 .57-.209c.2 0 .37.073.51.219a.71.71 0 0 1 .21.501c0 .213-.07.4-.21.56a.656.656 0 0 1-.51.239zm-17.45 128a.756.756 0 0 1-.57-.239.788.788 0 0 1-.23-.56c0-.2.077-.37.23-.51a.813.813 0 0 1 .57-.21c.2 0 .37.073.51.219.14.147.21.314.21.501 0 .213-.07.399-.21.56a.653.653 0 0 1-.51.239zm0-16a.76.76 0 0 1-.57-.239.788.788 0 0 1-.23-.56c0-.201.077-.37.23-.51a.808.808 0 0 1 .57-.21c.2 0 .37.073.51.22.14.147.21.313.21.5 0 .213-.07.399-.21.56a.656.656 0 0 1-.51.239zm0-16a.756.756 0 0 1-.57-.239.784.784 0 0 1-.23-.56c0-.201.077-.371.23-.511a.816.816 0 0 1 .57-.209c.2 0 .37.073.51.22.14.147.21.313.21.5 0 .214-.07.4-.21.56a.653.653 0 0 1-.51.239zm0-15.999a.754.754 0 0 1-.57-.241.782.782 0 0 1-.23-.559c0-.2.077-.371.23-.51a.813.813 0 0 1 .57-.21c.2 0 .37.073.51.22.14.146.21.313.21.5 0 .213-.07.4-.21.559a.651.651 0 0 1-.51.241zm0-16.001a.753.753 0 0 1-.57-.24.784.784 0 0 1-.23-.559c0-.201.077-.37.23-.51a.813.813 0 0 1 .57-.21c.2 0 .37.074.51.22.14.146.21.313.21.5 0 .213-.07.399-.21.559a.65.65 0 0 1-.51.24zm0-16a.756.756 0 0 1-.57-.239.788.788 0 0 1-.23-.56c0-.201.077-.371.23-.51a.813.813 0 0 1 .57-.21c.2 0 .37.074.51.219.14.147.21.314.21.501 0 .213-.07.399-.21.56a.653.653 0 0 1-.51.239zm0-15.999a.754.754 0 0 1-.57-.241.784.784 0 0 1-.23-.559c0-.2.077-.37.23-.51a.813.813 0 0 1 .57-.21c.2 0 .37.073.51.219.14.147.21.314.21.501 0 .213-.07.399-.21.559a.651.651 0 0 1-.51.241zm0-16a.758.758 0 0 1-.57-.241.784.784 0 0 1-.23-.559c0-.201.077-.37.23-.51a.813.813 0 0 1 .57-.21c.2 0 .37.073.51.22.14.147.21.313.21.5 0 .213-.07.399-.21.559a.655.655 0 0 1-.51.241zm0-16.001a.76.76 0 0 1-.57-.239.786.786 0 0 1-.23-.56c0-.201.077-.37.23-.511a.816.816 0 0 1 .57-.209c.2 0 .37.073.51.219a.71.71 0 0 1 .21.501c0 .213-.07.4-.21.56a.656.656 0 0 1-.51.239zm-17.45 128a.756.756 0 0 1-.57-.239.788.788 0 0 1-.23-.56c0-.2.077-.37.23-.51a.813.813 0 0 1 .57-.21c.2 0 .37.073.51.219.14.147.21.314.21.501 0 .213-.07.399-.21.56a.653.653 0 0 1-.51.239zm0-16a.76.76 0 0 1-.57-.239.788.788 0 0 1-.23-.56c0-.201.077-.37.23-.51a.808.808 0 0 1 .57-.21c.2 0 .37.073.51.22.14.147.21.313.21.5 0 .213-.07.399-.21.56a.656.656 0 0 1-.51.239zm0-16a.756.756 0 0 1-.57-.239.784.784 0 0 1-.23-.56c0-.201.077-.371.23-.511a.816.816 0 0 1 .57-.209c.2 0 .37.073.51.22.14.147.21.313.21.5 0 .214-.07.4-.21.56a.653.653 0 0 1-.51.239zm0-15.999a.754.754 0 0 1-.57-.241.782.782 0 0 1-.23-.559c0-.2.077-.371.23-.51a.813.813 0 0 1 .57-.21c.2 0 .37.073.51.22.14.146.21.313.21.5 0 .213-.07.4-.21.559a.651.651 0 0 1-.51.241zm0-16.001a.753.753 0 0 1-.57-.24.784.784 0 0 1-.23-.559c0-.201.077-.37.23-.51a.813.813 0 0 1 .57-.21c.2 0 .37.074.51.22.14.146.21.313.21.5 0 .213-.07.399-.21.559a.65.65 0 0 1-.51.24zm0-16a.756.756 0 0 1-.57-.239.788.788 0 0 1-.23-.56c0-.201.077-.371.23-.51a.813.813 0 0 1 .57-.21c.2 0 .37.074.51.219.14.147.21.314.21.501 0 .213-.07.399-.21.56a.653.653 0 0 1-.51.239zm0-15.999a.754.754 0 0 1-.57-.241.784.784 0 0 1-.23-.559c0-.2.077-.37.23-.51a.813.813 0 0 1 .57-.21c.2 0 .37.073.51.219.14.147.21.314.21.501 0 .213-.07.399-.21.559a.651.651 0 0 1-.51.241zm0-16a.758.758 0 0 1-.57-.241.784.784 0 0 1-.23-.559c0-.201.077-.37.23-.51a.813.813 0 0 1 .57-.21c.2 0 .37.073.51.22.14.147.21.313.21.5 0 .213-.07.399-.21.559a.655.655 0 0 1-.51.241zm0-16.001a.76.76 0 0 1-.57-.239.786.786 0 0 1-.23-.56c0-.201.077-.37.23-.511a.816.816 0 0 1 .57-.209c.2 0 .37.073.51.219a.71.71 0 0 1 .21.501c0 .213-.07.4-.21.56a.656.656 0 0 1-.51.239zm-17.45 128a.756.756 0 0 1-.57-.239.788.788 0 0 1-.23-.56c0-.2.077-.37.23-.51a.813.813 0 0 1 .57-.21c.2 0 .37.073.51.219.14.147.21.314.21.501 0 .213-.07.399-.21.56a.653.653 0 0 1-.51.239zm0-16a.76.76 0 0 1-.57-.239.788.788 0 0 1-.23-.56c0-.201.077-.37.23-.51a.808.808 0 0 1 .57-.21c.2 0 .37.073.51.22.14.147.21.313.21.5 0 .213-.07.399-.21.56a.656.656 0 0 1-.51.239zm0-16a.756.756 0 0 1-.57-.239.784.784 0 0 1-.23-.56c0-.201.077-.371.23-.511a.816.816 0 0 1 .57-.209c.2 0 .37.073.51.22.14.147.21.313.21.5 0 .214-.07.4-.21.56a.653.653 0 0 1-.51.239zm0-15.999a.754.754 0 0 1-.57-.241.782.782 0 0 1-.23-.559c0-.2.077-.371.23-.51a.813.813 0 0 1 .57-.21c.2 0 .37.073.51.22.14.146.21.313.21.5 0 .213-.07.4-.21.559a.651.651 0 0 1-.51.241zm0-16.001a.753.753 0 0 1-.57-.24.784.784 0 0 1-.23-.559c0-.201.077-.37.23-.51a.813.813 0 0 1 .57-.21c.2 0 .37.074.51.22.14.146.21.313.21.5 0 .213-.07.399-.21.559a.65.65 0 0 1-.51.24zm0-16a.756.756 0 0 1-.57-.239.788.788 0 0 1-.23-.56c0-.201.077-.371.23-.51a.813.813 0 0 1 .57-.21c.2 0 .37.074.51.219.14.147.21.314.21.501 0 .213-.07.399-.21.56a.653.653 0 0 1-.51.239zm0-15.999a.754.754 0 0 1-.57-.241.784.784 0 0 1-.23-.559c0-.2.077-.37.23-.51a.813.813 0 0 1 .57-.21c.2 0 .37.073.51.219.14.147.21.314.21.501 0 .213-.07.399-.21.559a.651.651 0 0 1-.51.241zm0-16a.758.758 0 0 1-.57-.241.784.784 0 0 1-.23-.559c0-.201.077-.37.23-.51a.813.813 0 0 1 .57-.21c.2 0 .37.073.51.22.14.147.21.313.21.5 0 .213-.07.399-.21.559a.655.655 0 0 1-.51.241zm0-16.001a.76.76 0 0 1-.57-.239.786.786 0 0 1-.23-.56c0-.201.077-.37.23-.511a.816.816 0 0 1 .57-.209c.2 0 .37.073.51.219a.71.71 0 0 1 .21.501c0 .213-.07.4-.21.56a.656.656 0 0 1-.51.239zm-17.45 128a.756.756 0 0 1-.57-.239.788.788 0 0 1-.23-.56c0-.2.077-.37.23-.51a.813.813 0 0 1 .57-.21c.2 0 .37.073.51.219.14.147.21.314.21.501 0 .213-.07.399-.21.56a.653.653 0 0 1-.51.239zm0-16a.76.76 0 0 1-.57-.239.788.788 0 0 1-.23-.56c0-.201.077-.37.23-.51a.808.808 0 0 1 .57-.21c.2 0 .37.073.51.22.14.147.21.313.21.5 0 .213-.07.399-.21.56a.656.656 0 0 1-.51.239zm0-16a.756.756 0 0 1-.57-.239.784.784 0 0 1-.23-.56c0-.201.077-.371.23-.511a.816.816 0 0 1 .57-.209c.2 0 .37.073.51.22.14.147.21.313.21.5 0 .214-.07.4-.21.56a.653.653 0 0 1-.51.239zm0-15.999a.754.754 0 0 1-.57-.241.782.782 0 0 1-.23-.559c0-.2.077-.371.23-.51a.813.813 0 0 1 .57-.21c.2 0 .37.073.51.22.14.146.21.313.21.5 0 .213-.07.4-.21.559a.651.651 0 0 1-.51.241zm0-16.001a.753.753 0 0 1-.57-.24.784.784 0 0 1-.23-.559c0-.201.077-.37.23-.51a.813.813 0 0 1 .57-.21c.2 0 .37.074.51.22.14.146.21.313.21.5 0 .213-.07.399-.21.559a.65.65 0 0 1-.51.24zm0-16a.756.756 0 0 1-.57-.239.788.788 0 0 1-.23-.56c0-.201.077-.371.23-.51a.813.813 0 0 1 .57-.21c.2 0 .37.074.51.219.14.147.21.314.21.501 0 .213-.07.399-.21.56a.653.653 0 0 1-.51.239zm0-15.999a.754.754 0 0 1-.57-.241.784.784 0 0 1-.23-.559c0-.2.077-.37.23-.51a.813.813 0 0 1 .57-.21c.2 0 .37.073.51.219.14.147.21.314.21.501 0 .213-.07.399-.21.559a.651.651 0 0 1-.51.241zm0-16a.758.758 0 0 1-.57-.241.784.784 0 0 1-.23-.559c0-.201.077-.37.23-.51a.813.813 0 0 1 .57-.21c.2 0 .37.073.51.22.14.147.21.313.21.5 0 .213-.07.399-.21.559a.655.655 0 0 1-.51.241zm0-16.001a.76.76 0 0 1-.57-.239.786.786 0 0 1-.23-.56c0-.201.077-.37.23-.511a.816.816 0 0 1 .57-.209c.2 0 .37.073.51.219a.71.71 0 0 1 .21.501c0 .213-.07.4-.21.56a.656.656 0 0 1-.51.239zm-17.45 128a.756.756 0 0 1-.57-.239.788.788 0 0 1-.23-.56c0-.2.077-.37.23-.51a.813.813 0 0 1 .57-.21c.2 0 .37.073.51.219.14.147.21.314.21.501 0 .213-.07.399-.21.56a.653.653 0 0 1-.51.239zm0-16a.76.76 0 0 1-.57-.239.788.788 0 0 1-.23-.56c0-.201.077-.37.23-.51a.808.808 0 0 1 .57-.21c.2 0 .37.073.51.22.14.147.21.313.21.5 0 .213-.07.399-.21.56a.656.656 0 0 1-.51.239zm0-16a.756.756 0 0 1-.57-.239.784.784 0 0 1-.23-.56c0-.201.077-.371.23-.511a.816.816 0 0 1 .57-.209c.2 0 .37.073.51.22.14.147.21.313.21.5 0 .214-.07.4-.21.56a.653.653 0 0 1-.51.239zm0-15.999a.754.754 0 0 1-.57-.241.782.782 0 0 1-.23-.559c0-.2.077-.371.23-.51a.813.813 0 0 1 .57-.21c.2 0 .37.073.51.22.14.146.21.313.21.5 0 .213-.07.4-.21.559a.651.651 0 0 1-.51.241zm0-16.001a.753.753 0 0 1-.57-.24.784.784 0 0 1-.23-.559c0-.201.077-.37.23-.51a.813.813 0 0 1 .57-.21c.2 0 .37.074.51.22.14.146.21.313.21.5 0 .213-.07.399-.21.559a.65.65 0 0 1-.51.24zm0-16a.756.756 0 0 1-.57-.239.788.788 0 0 1-.23-.56c0-.201.077-.371.23-.51a.813.813 0 0 1 .57-.21c.2 0 .37.074.51.219.14.147.21.314.21.501 0 .213-.07.399-.21.56a.653.653 0 0 1-.51.239zm0-15.999a.754.754 0 0 1-.57-.241.784.784 0 0 1-.23-.559c0-.2.077-.37.23-.51a.813.813 0 0 1 .57-.21c.2 0 .37.073.51.219.14.147.21.314.21.501 0 .213-.07.399-.21.559a.651.651 0 0 1-.51.241zm0-16a.758.758 0 0 1-.57-.241.784.784 0 0 1-.23-.559c0-.201.077-.37.23-.51a.813.813 0 0 1 .57-.21c.2 0 .37.073.51.22.14.147.21.313.21.5 0 .213-.07.399-.21.559a.655.655 0 0 1-.51.241zm0-16.001a.76.76 0 0 1-.57-.239.786.786 0 0 1-.23-.56c0-.201.077-.37.23-.511a.816.816 0 0 1 .57-.209c.2 0 .37.073.51.219a.71.71 0 0 1 .21.501c0 .213-.07.4-.21.56a.656.656 0 0 1-.51.239zm-17.45 128a.756.756 0 0 1-.57-.239.788.788 0 0 1-.23-.56c0-.2.077-.37.23-.51a.813.813 0 0 1 .57-.21c.2 0 .37.073.51.219.14.147.21.314.21.501 0 .213-.07.399-.21.56a.653.653 0 0 1-.51.239zm0-16a.76.76 0 0 1-.57-.239.788.788 0 0 1-.23-.56c0-.201.077-.37.23-.51a.808.808 0 0 1 .57-.21c.2 0 .37.073.51.22.14.147.21.313.21.5 0 .213-.07.399-.21.56a.656.656 0 0 1-.51.239zm0-16a.756.756 0 0 1-.57-.239.784.784 0 0 1-.23-.56c0-.201.077-.371.23-.511a.816.816 0 0 1 .57-.209c.2 0 .37.073.51.22.14.147.21.313.21.5 0 .214-.07.4-.21.56a.653.653 0 0 1-.51.239zm0-15.999a.754.754 0 0 1-.57-.241.782.782 0 0 1-.23-.559c0-.2.077-.371.23-.51a.813.813 0 0 1 .57-.21c.2 0 .37.073.51.22.14.146.21.313.21.5 0 .213-.07.4-.21.559a.651.651 0 0 1-.51.241zm0-16.001a.753.753 0 0 1-.57-.24.784.784 0 0 1-.23-.559c0-.201.077-.37.23-.51a.813.813 0 0 1 .57-.21c.2 0 .37.074.51.22.14.146.21.313.21.5 0 .213-.07.399-.21.559a.65.65 0 0 1-.51.24zm0-16a.756.756 0 0 1-.57-.239.788.788 0 0 1-.23-.56c0-.201.077-.371.23-.51a.813.813 0 0 1 .57-.21c.2 0 .37.074.51.219.14.147.21.314.21.501 0 .213-.07.399-.21.56a.653.653 0 0 1-.51.239zm0-15.999a.754.754 0 0 1-.57-.241.784.784 0 0 1-.23-.559c0-.2.077-.37.23-.51a.813.813 0 0 1 .57-.21c.2 0 .37.073.51.219.14.147.21.314.21.501 0 .213-.07.399-.21.559a.651.651 0 0 1-.51.241zm0-16a.758.758 0 0 1-.57-.241.784.784 0 0 1-.23-.559c0-.201.077-.37.23-.51a.813.813 0 0 1 .57-.21c.2 0 .37.073.51.22.14.147.21.313.21.5 0 .213-.07.399-.21.559a.655.655 0 0 1-.51.241zm0-16.001a.76.76 0 0 1-.57-.239.786.786 0 0 1-.23-.56c0-.201.077-.37.23-.511a.816.816 0 0 1 .57-.209c.2 0 .37.073.51.219a.71.71 0 0 1 .21.501c0 .213-.07.4-.21.56a.656.656 0 0 1-.51.239zm-17.45 128a.756.756 0 0 1-.57-.239.788.788 0 0 1-.23-.56c0-.2.077-.37.23-.51a.813.813 0 0 1 .57-.21c.2 0 .37.073.51.219.14.147.21.314.21.501 0 .213-.07.399-.21.56a.653.653 0 0 1-.51.239zm0-16a.76.76 0 0 1-.57-.239.788.788 0 0 1-.23-.56c0-.201.077-.37.23-.51a.808.808 0 0 1 .57-.21c.2 0 .37.073.51.22.14.147.21.313.21.5 0 .213-.07.399-.21.56a.656.656 0 0 1-.51.239zm0-16a.756.756 0 0 1-.57-.239.784.784 0 0 1-.23-.56c0-.201.077-.371.23-.511a.816.816 0 0 1 .57-.209c.2 0 .37.073.51.22.14.147.21.313.21.5 0 .214-.07.4-.21.56a.653.653 0 0 1-.51.239zm0-15.999a.754.754 0 0 1-.57-.241.782.782 0 0 1-.23-.559c0-.2.077-.371.23-.51a.813.813 0 0 1 .57-.21c.2 0 .37.073.51.22.14.146.21.313.21.5 0 .213-.07.4-.21.559a.651.651 0 0 1-.51.241zm0-16.001a.753.753 0 0 1-.57-.24.784.784 0 0 1-.23-.559c0-.201.077-.37.23-.51a.813.813 0 0 1 .57-.21c.2 0 .37.074.51.22.14.146.21.313.21.5 0 .213-.07.399-.21.559a.65.65 0 0 1-.51.24zm0-16a.756.756 0 0 1-.57-.239.788.788 0 0 1-.23-.56c0-.201.077-.371.23-.51a.813.813 0 0 1 .57-.21c.2 0 .37.074.51.219.14.147.21.314.21.501 0 .213-.07.399-.21.56a.653.653 0 0 1-.51.239zm0-15.999a.754.754 0 0 1-.57-.241.784.784 0 0 1-.23-.559c0-.2.077-.37.23-.51a.813.813 0 0 1 .57-.21c.2 0 .37.073.51.219.14.147.21.314.21.501 0 .213-.07.399-.21.559a.651.651 0 0 1-.51.241zm0-16a.758.758 0 0 1-.57-.241.784.784 0 0 1-.23-.559c0-.201.077-.37.23-.51a.813.813 0 0 1 .57-.21c.2 0 .37.073.51.22.14.147.21.313.21.5 0 .213-.07.399-.21.559a.655.655 0 0 1-.51.241zm0-16.001a.76.76 0 0 1-.57-.239.786.786 0 0 1-.23-.56c0-.201.077-.37.23-.511a.816.816 0 0 1 .57-.209c.2 0 .37.073.51.219a.71.71 0 0 1 .21.501c0 .213-.07.4-.21.56a.656.656 0 0 1-.51.239zm-17.45 128a.756.756 0 0 1-.57-.239.788.788 0 0 1-.23-.56c0-.2.077-.37.23-.51a.813.813 0 0 1 .57-.21c.2 0 .37.073.51.219.14.147.21.314.21.501 0 .213-.07.399-.21.56a.653.653 0 0 1-.51.239zm0-16a.76.76 0 0 1-.57-.239.788.788 0 0 1-.23-.56c0-.201.077-.37.23-.51a.808.808 0 0 1 .57-.21c.2 0 .37.073.51.22.14.147.21.313.21.5 0 .213-.07.399-.21.56a.656.656 0 0 1-.51.239zm0-16a.756.756 0 0 1-.57-.239.784.784 0 0 1-.23-.56c0-.201.077-.371.23-.511a.816.816 0 0 1 .57-.209c.2 0 .37.073.51.22.14.147.21.313.21.5 0 .214-.07.4-.21.56a.653.653 0 0 1-.51.239zm0-15.999a.754.754 0 0 1-.57-.241.782.782 0 0 1-.23-.559c0-.2.077-.371.23-.51a.813.813 0 0 1 .57-.21c.2 0 .37.073.51.22.14.146.21.313.21.5 0 .213-.07.4-.21.559a.651.651 0 0 1-.51.241zm0-16.001a.753.753 0 0 1-.57-.24.784.784 0 0 1-.23-.559c0-.201.077-.37.23-.51a.813.813 0 0 1 .57-.21c.2 0 .37.074.51.22.14.146.21.313.21.5 0 .213-.07.399-.21.559a.65.65 0 0 1-.51.24zm0-16a.756.756 0 0 1-.57-.239.788.788 0 0 1-.23-.56c0-.201.077-.371.23-.51a.813.813 0 0 1 .57-.21c.2 0 .37.074.51.219.14.147.21.314.21.501 0 .213-.07.399-.21.56a.653.653 0 0 1-.51.239zm0-15.999a.754.754 0 0 1-.57-.241.784.784 0 0 1-.23-.559c0-.2.077-.37.23-.51a.813.813 0 0 1 .57-.21c.2 0 .37.073.51.219.14.147.21.314.21.501 0 .213-.07.399-.21.559a.651.651 0 0 1-.51.241zm0-16a.758.758 0 0 1-.57-.241.784.784 0 0 1-.23-.559c0-.201.077-.37.23-.51a.813.813 0 0 1 .57-.21c.2 0 .37.073.51.22.14.147.21.313.21.5 0 .213-.07.399-.21.559a.655.655 0 0 1-.51.241zm0-16.001a.76.76 0 0 1-.57-.239.786.786 0 0 1-.23-.56c0-.201.077-.37.23-.511a.816.816 0 0 1 .57-.209c.2 0 .37.073.51.219a.71.71 0 0 1 .21.501c0 .213-.07.4-.21.56a.656.656 0 0 1-.51.239zm-17.45 128a.756.756 0 0 1-.57-.239.788.788 0 0 1-.23-.56c0-.2.077-.37.23-.51a.813.813 0 0 1 .57-.21c.2 0 .37.073.51.219.14.147.21.314.21.501 0 .213-.07.399-.21.56a.653.653 0 0 1-.51.239zm0-16a.76.76 0 0 1-.57-.239.788.788 0 0 1-.23-.56c0-.201.077-.37.23-.51a.808.808 0 0 1 .57-.21c.2 0 .37.073.51.22.14.147.21.313.21.5 0 .213-.07.399-.21.56a.656.656 0 0 1-.51.239zm0-16a.756.756 0 0 1-.57-.239.784.784 0 0 1-.23-.56c0-.201.077-.371.23-.511a.816.816 0 0 1 .57-.209c.2 0 .37.073.51.22.14.147.21.313.21.5 0 .214-.07.4-.21.56a.653.653 0 0 1-.51.239zm0-15.999a.754.754 0 0 1-.57-.241.782.782 0 0 1-.23-.559c0-.2.077-.371.23-.51a.813.813 0 0 1 .57-.21c.2 0 .37.073.51.22.14.146.21.313.21.5 0 .213-.07.4-.21.559a.651.651 0 0 1-.51.241zm0-16.001a.753.753 0 0 1-.57-.24.784.784 0 0 1-.23-.559c0-.201.077-.37.23-.51a.813.813 0 0 1 .57-.21c.2 0 .37.074.51.22.14.146.21.313.21.5 0 .213-.07.399-.21.559a.65.65 0 0 1-.51.24zm0-16a.756.756 0 0 1-.57-.239.788.788 0 0 1-.23-.56c0-.201.077-.371.23-.51a.813.813 0 0 1 .57-.21c.2 0 .37.074.51.219.14.147.21.314.21.501 0 .213-.07.399-.21.56a.653.653 0 0 1-.51.239zm0-15.999a.754.754 0 0 1-.57-.241.784.784 0 0 1-.23-.559c0-.2.077-.37.23-.51a.813.813 0 0 1 .57-.21c.2 0 .37.073.51.219.14.147.21.314.21.501 0 .213-.07.399-.21.559a.651.651 0 0 1-.51.241zm0-16a.758.758 0 0 1-.57-.241.784.784 0 0 1-.23-.559c0-.201.077-.37.23-.51a.813.813 0 0 1 .57-.21c.2 0 .37.073.51.22.14.147.21.313.21.5 0 .213-.07.399-.21.559a.655.655 0 0 1-.51.241zm0-16.001a.76.76 0 0 1-.57-.239.786.786 0 0 1-.23-.56c0-.201.077-.37.23-.511a.816.816 0 0 1 .57-.209c.2 0 .37.073.51.219a.71.71 0 0 1 .21.501c0 .213-.07.4-.21.56a.656.656 0 0 1-.51.239zm-17.45 128a.756.756 0 0 1-.57-.239.788.788 0 0 1-.23-.56c0-.2.077-.37.23-.51a.813.813 0 0 1 .57-.21c.2 0 .37.073.51.219.14.147.21.314.21.501 0 .213-.07.399-.21.56a.653.653 0 0 1-.51.239zm0-16a.76.76 0 0 1-.57-.239.788.788 0 0 1-.23-.56c0-.201.077-.37.23-.51a.808.808 0 0 1 .57-.21c.2 0 .37.073.51.22.14.147.21.313.21.5 0 .213-.07.399-.21.56a.656.656 0 0 1-.51.239zm0-16a.756.756 0 0 1-.57-.239.784.784 0 0 1-.23-.56c0-.201.077-.371.23-.511a.816.816 0 0 1 .57-.209c.2 0 .37.073.51.22.14.147.21.313.21.5 0 .214-.07.4-.21.56a.653.653 0 0 1-.51.239zm0-15.999a.754.754 0 0 1-.57-.241.782.782 0 0 1-.23-.559c0-.2.077-.371.23-.51a.813.813 0 0 1 .57-.21c.2 0 .37.073.51.22.14.146.21.313.21.5 0 .213-.07.4-.21.559a.651.651 0 0 1-.51.241zm0-16.001a.753.753 0 0 1-.57-.24.784.784 0 0 1-.23-.559c0-.201.077-.37.23-.51a.813.813 0 0 1 .57-.21c.2 0 .37.074.51.22.14.146.21.313.21.5 0 .213-.07.399-.21.559a.65.65 0 0 1-.51.24zm0-16a.756.756 0 0 1-.57-.239.788.788 0 0 1-.23-.56c0-.201.077-.371.23-.51a.813.813 0 0 1 .57-.21c.2 0 .37.074.51.219.14.147.21.314.21.501 0 .213-.07.399-.21.56a.653.653 0 0 1-.51.239zm0-15.999a.754.754 0 0 1-.57-.241.784.784 0 0 1-.23-.559c0-.2.077-.37.23-.51a.813.813 0 0 1 .57-.21c.2 0 .37.073.51.219.14.147.21.314.21.501 0 .213-.07.399-.21.559a.651.651 0 0 1-.51.241zm0-16a.758.758 0 0 1-.57-.241.784.784 0 0 1-.23-.559c0-.201.077-.37.23-.51a.813.813 0 0 1 .57-.21c.2 0 .37.073.51.22.14.147.21.313.21.5 0 .213-.07.399-.21.559a.655.655 0 0 1-.51.241zm0-16.001a.76.76 0 0 1-.57-.239.786.786 0 0 1-.23-.56c0-.201.077-.37.23-.511a.816.816 0 0 1 .57-.209c.2 0 .37.073.51.219a.71.71 0 0 1 .21.501c0 .213-.07.4-.21.56a.656.656 0 0 1-.51.239zm-17.45 128a.756.756 0 0 1-.57-.239.788.788 0 0 1-.23-.56c0-.2.077-.37.23-.51a.813.813 0 0 1 .57-.21c.2 0 .37.073.51.219.14.147.21.314.21.501 0 .213-.07.399-.21.56a.653.653 0 0 1-.51.239zm0-16a.76.76 0 0 1-.57-.239.788.788 0 0 1-.23-.56c0-.201.077-.37.23-.51a.808.808 0 0 1 .57-.21c.2 0 .37.073.51.22.14.147.21.313.21.5 0 .213-.07.399-.21.56a.656.656 0 0 1-.51.239zm0-16a.756.756 0 0 1-.57-.239.784.784 0 0 1-.23-.56c0-.201.077-.371.23-.511a.816.816 0 0 1 .57-.209c.2 0 .37.073.51.22.14.147.21.313.21.5 0 .214-.07.4-.21.56a.653.653 0 0 1-.51.239zm0-15.999a.754.754 0 0 1-.57-.241.782.782 0 0 1-.23-.559c0-.2.077-.371.23-.51a.813.813 0 0 1 .57-.21c.2 0 .37.073.51.22.14.146.21.313.21.5 0 .213-.07.4-.21.559a.651.651 0 0 1-.51.241zm0-16.001a.753.753 0 0 1-.57-.24.784.784 0 0 1-.23-.559c0-.201.077-.37.23-.51a.813.813 0 0 1 .57-.21c.2 0 .37.074.51.22.14.146.21.313.21.5 0 .213-.07.399-.21.559a.65.65 0 0 1-.51.24zm0-16a.756.756 0 0 1-.57-.239.788.788 0 0 1-.23-.56c0-.201.077-.371.23-.51a.813.813 0 0 1 .57-.21c.2 0 .37.074.51.219.14.147.21.314.21.501 0 .213-.07.399-.21.56a.653.653 0 0 1-.51.239zm0-15.999a.754.754 0 0 1-.57-.241.784.784 0 0 1-.23-.559c0-.2.077-.37.23-.51a.813.813 0 0 1 .57-.21c.2 0 .37.073.51.219.14.147.21.314.21.501 0 .213-.07.399-.21.559a.651.651 0 0 1-.51.241zm0-16a.758.758 0 0 1-.57-.241.784.784 0 0 1-.23-.559c0-.201.077-.37.23-.51a.813.813 0 0 1 .57-.21c.2 0 .37.073.51.22.14.147.21.313.21.5 0 .213-.07.399-.21.559a.655.655 0 0 1-.51.241zm0-16.001a.76.76 0 0 1-.57-.239.786.786 0 0 1-.23-.56c0-.201.077-.37.23-.511a.816.816 0 0 1 .57-.209c.2 0 .37.073.51.219a.71.71 0 0 1 .21.501c0 .213-.07.4-.21.56a.656.656 0 0 1-.51.239zm-17.45 128a.756.756 0 0 1-.57-.239.788.788 0 0 1-.23-.56c0-.2.077-.37.23-.51a.813.813 0 0 1 .57-.21c.2 0 .37.073.51.219.14.147.21.314.21.501 0 .213-.07.399-.21.56a.653.653 0 0 1-.51.239zm0-16a.76.76 0 0 1-.57-.239.788.788 0 0 1-.23-.56c0-.201.077-.37.23-.51a.808.808 0 0 1 .57-.21c.2 0 .37.073.51.22.14.147.21.313.21.5 0 .213-.07.399-.21.56a.656.656 0 0 1-.51.239zm0-16a.756.756 0 0 1-.57-.239.784.784 0 0 1-.23-.56c0-.201.077-.371.23-.511a.816.816 0 0 1 .57-.209c.2 0 .37.073.51.22.14.147.21.313.21.5 0 .214-.07.4-.21.56a.653.653 0 0 1-.51.239zm0-15.999a.754.754 0 0 1-.57-.241.782.782 0 0 1-.23-.559c0-.2.077-.371.23-.51a.813.813 0 0 1 .57-.21c.2 0 .37.073.51.22.14.146.21.313.21.5 0 .213-.07.4-.21.559a.651.651 0 0 1-.51.241zm0-16.001a.753.753 0 0 1-.57-.24.784.784 0 0 1-.23-.559c0-.201.077-.37.23-.51a.813.813 0 0 1 .57-.21c.2 0 .37.074.51.22.14.146.21.313.21.5 0 .213-.07.399-.21.559a.65.65 0 0 1-.51.24zm0-16a.756.756 0 0 1-.57-.239.788.788 0 0 1-.23-.56c0-.201.077-.371.23-.51a.813.813 0 0 1 .57-.21c.2 0 .37.074.51.219.14.147.21.314.21.501 0 .213-.07.399-.21.56a.653.653 0 0 1-.51.239zm0-15.999a.754.754 0 0 1-.57-.241.784.784 0 0 1-.23-.559c0-.2.077-.37.23-.51a.813.813 0 0 1 .57-.21c.2 0 .37.073.51.219.14.147.21.314.21.501 0 .213-.07.399-.21.559a.651.651 0 0 1-.51.241zm0-16a.758.758 0 0 1-.57-.241.784.784 0 0 1-.23-.559c0-.201.077-.37.23-.51a.813.813 0 0 1 .57-.21c.2 0 .37.073.51.22.14.147.21.313.21.5 0 .213-.07.399-.21.559a.655.655 0 0 1-.51.241zm0-16.001a.76.76 0 0 1-.57-.239.786.786 0 0 1-.23-.56c0-.201.077-.37.23-.511a.816.816 0 0 1 .57-.209c.2 0 .37.073.51.219a.71.71 0 0 1 .21.501c0 .213-.07.4-.21.56a.656.656 0 0 1-.51.239zm-17.45 128a.756.756 0 0 1-.57-.239.788.788 0 0 1-.23-.56c0-.2.077-.37.23-.51a.813.813 0 0 1 .57-.21c.2 0 .37.073.51.219.14.147.21.314.21.501 0 .213-.07.399-.21.56a.653.653 0 0 1-.51.239zm0-16a.76.76 0 0 1-.57-.239.788.788 0 0 1-.23-.56c0-.201.077-.37.23-.51a.808.808 0 0 1 .57-.21c.2 0 .37.073.51.22.14.147.21.313.21.5 0 .213-.07.399-.21.56a.656.656 0 0 1-.51.239zm0-16a.756.756 0 0 1-.57-.239.784.784 0 0 1-.23-.56c0-.201.077-.371.23-.511a.816.816 0 0 1 .57-.209c.2 0 .37.073.51.22.14.147.21.313.21.5 0 .214-.07.4-.21.56a.653.653 0 0 1-.51.239zm0-15.999a.754.754 0 0 1-.57-.241.782.782 0 0 1-.23-.559c0-.2.077-.371.23-.51a.813.813 0 0 1 .57-.21c.2 0 .37.073.51.22.14.146.21.313.21.5 0 .213-.07.4-.21.559a.651.651 0 0 1-.51.241zm0-16.001a.753.753 0 0 1-.57-.24.784.784 0 0 1-.23-.559c0-.201.077-.37.23-.51a.813.813 0 0 1 .57-.21c.2 0 .37.074.51.22.14.146.21.313.21.5 0 .213-.07.399-.21.559a.65.65 0 0 1-.51.24zm0-16a.756.756 0 0 1-.57-.239.788.788 0 0 1-.23-.56c0-.201.077-.371.23-.51a.813.813 0 0 1 .57-.21c.2 0 .37.074.51.219.14.147.21.314.21.501 0 .213-.07.399-.21.56a.653.653 0 0 1-.51.239zm0-15.999a.754.754 0 0 1-.57-.241.784.784 0 0 1-.23-.559c0-.2.077-.37.23-.51a.813.813 0 0 1 .57-.21c.2 0 .37.073.51.219.14.147.21.314.21.501 0 .213-.07.399-.21.559a.651.651 0 0 1-.51.241zm0-16a.758.758 0 0 1-.57-.241.784.784 0 0 1-.23-.559c0-.201.077-.37.23-.51a.813.813 0 0 1 .57-.21c.2 0 .37.073.51.22.14.147.21.313.21.5 0 .213-.07.399-.21.559a.655.655 0 0 1-.51.241zm0-16.001a.76.76 0 0 1-.57-.239.786.786 0 0 1-.23-.56c0-.201.077-.37.23-.511a.816.816 0 0 1 .57-.209c.2 0 .37.073.51.219a.71.71 0 0 1 .21.501c0 .213-.07.4-.21.56a.656.656 0 0 1-.51.239zm-17.45 128a.756.756 0 0 1-.57-.239.788.788 0 0 1-.23-.56c0-.2.077-.37.23-.51a.813.813 0 0 1 .57-.21c.2 0 .37.073.51.219.14.147.21.314.21.501 0 .213-.07.399-.21.56a.653.653 0 0 1-.51.239zm0-16a.76.76 0 0 1-.57-.239.788.788 0 0 1-.23-.56c0-.201.077-.37.23-.51a.808.808 0 0 1 .57-.21c.2 0 .37.073.51.22.14.147.21.313.21.5 0 .213-.07.399-.21.56a.656.656 0 0 1-.51.239zm0-16a.756.756 0 0 1-.57-.239.784.784 0 0 1-.23-.56c0-.201.077-.371.23-.511a.816.816 0 0 1 .57-.209c.2 0 .37.073.51.22.14.147.21.313.21.5 0 .214-.07.4-.21.56a.653.653 0 0 1-.51.239zm0-15.999a.754.754 0 0 1-.57-.241.782.782 0 0 1-.23-.559c0-.2.077-.371.23-.51a.813.813 0 0 1 .57-.21c.2 0 .37.073.51.22.14.146.21.313.21.5 0 .213-.07.4-.21.559a.651.651 0 0 1-.51.241zm0-16.001a.753.753 0 0 1-.57-.24.784.784 0 0 1-.23-.559c0-.201.077-.37.23-.51a.813.813 0 0 1 .57-.21c.2 0 .37.074.51.22.14.146.21.313.21.5 0 .213-.07.399-.21.559a.65.65 0 0 1-.51.24zm0-16a.756.756 0 0 1-.57-.239.788.788 0 0 1-.23-.56c0-.201.077-.371.23-.51a.813.813 0 0 1 .57-.21c.2 0 .37.074.51.219.14.147.21.314.21.501 0 .213-.07.399-.21.56a.653.653 0 0 1-.51.239zm0-15.999a.754.754 0 0 1-.57-.241.784.784 0 0 1-.23-.559c0-.2.077-.37.23-.51a.813.813 0 0 1 .57-.21c.2 0 .37.073.51.219.14.147.21.314.21.501 0 .213-.07.399-.21.559a.651.651 0 0 1-.51.241zm0-16a.758.758 0 0 1-.57-.241.784.784 0 0 1-.23-.559c0-.201.077-.37.23-.51a.813.813 0 0 1 .57-.21c.2 0 .37.073.51.22.14.147.21.313.21.5 0 .213-.07.399-.21.559a.655.655 0 0 1-.51.241zm0-16.001a.76.76 0 0 1-.57-.239.786.786 0 0 1-.23-.56c0-.201.077-.37.23-.511a.816.816 0 0 1 .57-.209c.2 0 .37.073.51.219a.71.71 0 0 1 .21.501c0 .213-.07.4-.21.56a.656.656 0 0 1-.51.239zm-17.45 128a.756.756 0 0 1-.57-.239.788.788 0 0 1-.23-.56c0-.2.077-.37.23-.51a.813.813 0 0 1 .57-.21c.2 0 .37.073.51.219.14.147.21.314.21.501 0 .213-.07.399-.21.56a.653.653 0 0 1-.51.239zm0-16a.76.76 0 0 1-.57-.239.788.788 0 0 1-.23-.56c0-.201.077-.37.23-.51a.808.808 0 0 1 .57-.21c.2 0 .37.073.51.22.14.147.21.313.21.5 0 .213-.07.399-.21.56a.656.656 0 0 1-.51.239zm0-16a.756.756 0 0 1-.57-.239.784.784 0 0 1-.23-.56c0-.201.077-.371.23-.511a.816.816 0 0 1 .57-.209c.2 0 .37.073.51.22.14.147.21.313.21.5 0 .214-.07.4-.21.56a.653.653 0 0 1-.51.239zm0-15.999a.754.754 0 0 1-.57-.241.782.782 0 0 1-.23-.559c0-.2.077-.371.23-.51a.813.813 0 0 1 .57-.21c.2 0 .37.073.51.22.14.146.21.313.21.5 0 .213-.07.4-.21.559a.651.651 0 0 1-.51.241zm0-16.001a.753.753 0 0 1-.57-.24.784.784 0 0 1-.23-.559c0-.201.077-.37.23-.51a.813.813 0 0 1 .57-.21c.2 0 .37.074.51.22.14.146.21.313.21.5 0 .213-.07.399-.21.559a.65.65 0 0 1-.51.24zm0-16a.756.756 0 0 1-.57-.239.788.788 0 0 1-.23-.56c0-.201.077-.371.23-.51a.813.813 0 0 1 .57-.21c.2 0 .37.074.51.219.14.147.21.314.21.501 0 .213-.07.399-.21.56a.653.653 0 0 1-.51.239zm0-15.999a.754.754 0 0 1-.57-.241.784.784 0 0 1-.23-.559c0-.2.077-.37.23-.51a.813.813 0 0 1 .57-.21c.2 0 .37.073.51.219.14.147.21.314.21.501 0 .213-.07.399-.21.559a.651.651 0 0 1-.51.241zm0-16a.758.758 0 0 1-.57-.241.784.784 0 0 1-.23-.559c0-.201.077-.37.23-.51a.813.813 0 0 1 .57-.21c.2 0 .37.073.51.22.14.147.21.313.21.5 0 .213-.07.399-.21.559a.655.655 0 0 1-.51.241zm0-16.001a.76.76 0 0 1-.57-.239.786.786 0 0 1-.23-.56c0-.201.077-.37.23-.511a.816.816 0 0 1 .57-.209c.2 0 .37.073.51.219a.71.71 0 0 1 .21.501c0 .213-.07.4-.21.56a.656.656 0 0 1-.51.239zm-17.45 128a.756.756 0 0 1-.57-.239.788.788 0 0 1-.23-.56c0-.2.077-.37.23-.51a.813.813 0 0 1 .57-.21c.2 0 .37.073.51.219.14.147.21.314.21.501 0 .213-.07.399-.21.56a.653.653 0 0 1-.51.239zm0-16a.76.76 0 0 1-.57-.239.788.788 0 0 1-.23-.56c0-.201.077-.37.23-.51a.808.808 0 0 1 .57-.21c.2 0 .37.073.51.22.14.147.21.313.21.5 0 .213-.07.399-.21.56a.656.656 0 0 1-.51.239zm0-16a.756.756 0 0 1-.57-.239.784.784 0 0 1-.23-.56c0-.201.077-.371.23-.511a.816.816 0 0 1 .57-.209c.2 0 .37.073.51.22.14.147.21.313.21.5 0 .214-.07.4-.21.56a.653.653 0 0 1-.51.239zm0-15.999a.754.754 0 0 1-.57-.241.782.782 0 0 1-.23-.559c0-.2.077-.371.23-.51a.813.813 0 0 1 .57-.21c.2 0 .37.073.51.22.14.146.21.313.21.5 0 .213-.07.4-.21.559a.651.651 0 0 1-.51.241zm0-16.001a.753.753 0 0 1-.57-.24.784.784 0 0 1-.23-.559c0-.201.077-.37.23-.51a.813.813 0 0 1 .57-.21c.2 0 .37.074.51.22.14.146.21.313.21.5 0 .213-.07.399-.21.559a.65.65 0 0 1-.51.24zm0-16a.756.756 0 0 1-.57-.239.788.788 0 0 1-.23-.56c0-.201.077-.371.23-.51a.813.813 0 0 1 .57-.21c.2 0 .37.074.51.219.14.147.21.314.21.501 0 .213-.07.399-.21.56a.653.653 0 0 1-.51.239zm0-15.999a.754.754 0 0 1-.57-.241.784.784 0 0 1-.23-.559c0-.2.077-.37.23-.51a.813.813 0 0 1 .57-.21c.2 0 .37.073.51.219.14.147.21.314.21.501 0 .213-.07.399-.21.559a.651.651 0 0 1-.51.241zm0-16a.758.758 0 0 1-.57-.241.784.784 0 0 1-.23-.559c0-.201.077-.37.23-.51a.813.813 0 0 1 .57-.21c.2 0 .37.073.51.22.14.147.21.313.21.5 0 .213-.07.399-.21.559a.655.655 0 0 1-.51.241zm0-16.001a.76.76 0 0 1-.57-.239.786.786 0 0 1-.23-.56c0-.201.077-.37.23-.511a.816.816 0 0 1 .57-.209c.2 0 .37.073.51.219a.71.71 0 0 1 .21.501c0 .213-.07.4-.21.56a.656.656 0 0 1-.51.239zm-17.45 128a.756.756 0 0 1-.57-.239.788.788 0 0 1-.23-.56c0-.2.077-.37.23-.51a.813.813 0 0 1 .57-.21c.2 0 .37.073.51.219.14.147.21.314.21.501 0 .213-.07.399-.21.56a.653.653 0 0 1-.51.239zm0-16a.76.76 0 0 1-.57-.239.788.788 0 0 1-.23-.56c0-.201.077-.37.23-.51a.808.808 0 0 1 .57-.21c.2 0 .37.073.51.22.14.147.21.313.21.5 0 .213-.07.399-.21.56a.656.656 0 0 1-.51.239zm0-16a.756.756 0 0 1-.57-.239.784.784 0 0 1-.23-.56c0-.201.077-.371.23-.511a.816.816 0 0 1 .57-.209c.2 0 .37.073.51.22.14.147.21.313.21.5 0 .214-.07.4-.21.56a.653.653 0 0 1-.51.239zm0-15.999a.754.754 0 0 1-.57-.241.782.782 0 0 1-.23-.559c0-.2.077-.371.23-.51a.813.813 0 0 1 .57-.21c.2 0 .37.073.51.22.14.146.21.313.21.5 0 .213-.07.4-.21.559a.651.651 0 0 1-.51.241zm0-16.001a.753.753 0 0 1-.57-.24.784.784 0 0 1-.23-.559c0-.201.077-.37.23-.51a.813.813 0 0 1 .57-.21c.2 0 .37.074.51.22.14.146.21.313.21.5 0 .213-.07.399-.21.559a.65.65 0 0 1-.51.24zm0-16a.756.756 0 0 1-.57-.239.788.788 0 0 1-.23-.56c0-.201.077-.371.23-.51a.813.813 0 0 1 .57-.21c.2 0 .37.074.51.219.14.147.21.314.21.501 0 .213-.07.399-.21.56a.653.653 0 0 1-.51.239zm0-15.999a.754.754 0 0 1-.57-.241.784.784 0 0 1-.23-.559c0-.2.077-.37.23-.51a.813.813 0 0 1 .57-.21c.2 0 .37.073.51.219.14.147.21.314.21.501 0 .213-.07.399-.21.559a.651.651 0 0 1-.51.241zm0-16a.758.758 0 0 1-.57-.241.784.784 0 0 1-.23-.559c0-.201.077-.37.23-.51a.813.813 0 0 1 .57-.21c.2 0 .37.073.51.22.14.147.21.313.21.5 0 .213-.07.399-.21.559a.655.655 0 0 1-.51.241zm0-16.001a.76.76 0 0 1-.57-.239.786.786 0 0 1-.23-.56c0-.201.077-.37.23-.511a.816.816 0 0 1 .57-.209c.2 0 .37.073.51.219a.71.71 0 0 1 .21.501c0 .213-.07.4-.21.56a.656.656 0 0 1-.51.239zm-17.45 128a.756.756 0 0 1-.57-.239.788.788 0 0 1-.23-.56c0-.2.077-.37.23-.51a.813.813 0 0 1 .57-.21c.2 0 .37.073.51.219.14.147.21.314.21.501 0 .213-.07.399-.21.56a.653.653 0 0 1-.51.239zm0-16a.76.76 0 0 1-.57-.239.788.788 0 0 1-.23-.56c0-.201.077-.37.23-.51a.808.808 0 0 1 .57-.21c.2 0 .37.073.51.22.14.147.21.313.21.5 0 .213-.07.399-.21.56a.656.656 0 0 1-.51.239zm0-16a.756.756 0 0 1-.57-.239.784.784 0 0 1-.23-.56c0-.201.077-.371.23-.511a.816.816 0 0 1 .57-.209c.2 0 .37.073.51.22.14.147.21.313.21.5 0 .214-.07.4-.21.56a.653.653 0 0 1-.51.239zm0-15.999a.754.754 0 0 1-.57-.241.782.782 0 0 1-.23-.559c0-.2.077-.371.23-.51a.813.813 0 0 1 .57-.21c.2 0 .37.073.51.22.14.146.21.313.21.5 0 .213-.07.4-.21.559a.651.651 0 0 1-.51.241zm0-16.001a.753.753 0 0 1-.57-.24.784.784 0 0 1-.23-.559c0-.201.077-.37.23-.51a.813.813 0 0 1 .57-.21c.2 0 .37.074.51.22.14.146.21.313.21.5 0 .213-.07.399-.21.559a.65.65 0 0 1-.51.24zm0-16a.756.756 0 0 1-.57-.239.788.788 0 0 1-.23-.56c0-.201.077-.371.23-.51a.813.813 0 0 1 .57-.21c.2 0 .37.074.51.219.14.147.21.314.21.501 0 .213-.07.399-.21.56a.653.653 0 0 1-.51.239zm0-15.999a.754.754 0 0 1-.57-.241.784.784 0 0 1-.23-.559c0-.2.077-.37.23-.51a.813.813 0 0 1 .57-.21c.2 0 .37.073.51.219.14.147.21.314.21.501 0 .213-.07.399-.21.559a.651.651 0 0 1-.51.241zm0-16a.758.758 0 0 1-.57-.241.784.784 0 0 1-.23-.559c0-.201.077-.37.23-.51a.813.813 0 0 1 .57-.21c.2 0 .37.073.51.22.14.147.21.313.21.5 0 .213-.07.399-.21.559a.655.655 0 0 1-.51.241zm0-16.001a.76.76 0 0 1-.57-.239.786.786 0 0 1-.23-.56c0-.201.077-.37.23-.511a.816.816 0 0 1 .57-.209c.2 0 .37.073.51.219a.71.71 0 0 1 .21.501c0 .213-.07.4-.21.56a.656.656 0 0 1-.51.239zm-17.45 128a.756.756 0 0 1-.57-.239.788.788 0 0 1-.23-.56c0-.2.077-.37.23-.51a.813.813 0 0 1 .57-.21c.2 0 .37.073.51.219.14.147.21.314.21.501 0 .213-.07.399-.21.56a.653.653 0 0 1-.51.239zm0-16a.76.76 0 0 1-.57-.239.788.788 0 0 1-.23-.56c0-.201.077-.37.23-.51a.808.808 0 0 1 .57-.21c.2 0 .37.073.51.22.14.147.21.313.21.5 0 .213-.07.399-.21.56a.656.656 0 0 1-.51.239zm0-16a.756.756 0 0 1-.57-.239.784.784 0 0 1-.23-.56c0-.201.077-.371.23-.511a.816.816 0 0 1 .57-.209c.2 0 .37.073.51.22.14.147.21.313.21.5 0 .214-.07.4-.21.56a.653.653 0 0 1-.51.239zm0-15.999a.754.754 0 0 1-.57-.241.782.782 0 0 1-.23-.559c0-.2.077-.371.23-.51a.813.813 0 0 1 .57-.21c.2 0 .37.073.51.22.14.146.21.313.21.5 0 .213-.07.4-.21.559a.651.651 0 0 1-.51.241zm0-16.001a.753.753 0 0 1-.57-.24.784.784 0 0 1-.23-.559c0-.201.077-.37.23-.51a.813.813 0 0 1 .57-.21c.2 0 .37.074.51.22.14.146.21.313.21.5 0 .213-.07.399-.21.559a.65.65 0 0 1-.51.24zm0-16a.756.756 0 0 1-.57-.239.788.788 0 0 1-.23-.56c0-.201.077-.371.23-.51a.813.813 0 0 1 .57-.21c.2 0 .37.074.51.219.14.147.21.314.21.501 0 .213-.07.399-.21.56a.653.653 0 0 1-.51.239zm0-15.999a.754.754 0 0 1-.57-.241.784.784 0 0 1-.23-.559c0-.2.077-.37.23-.51a.813.813 0 0 1 .57-.21c.2 0 .37.073.51.219.14.147.21.314.21.501 0 .213-.07.399-.21.559a.651.651 0 0 1-.51.241zm0-16a.758.758 0 0 1-.57-.241.784.784 0 0 1-.23-.559c0-.201.077-.37.23-.51a.813.813 0 0 1 .57-.21c.2 0 .37.073.51.22.14.147.21.313.21.5 0 .213-.07.399-.21.559a.655.655 0 0 1-.51.241zm0-16.001a.76.76 0 0 1-.57-.239.786.786 0 0 1-.23-.56c0-.201.077-.37.23-.511a.816.816 0 0 1 .57-.209c.2 0 .37.073.51.219a.71.71 0 0 1 .21.501c0 .213-.07.4-.21.56a.656.656 0 0 1-.51.239zm-17.45 128a.756.756 0 0 1-.57-.239.788.788 0 0 1-.23-.56c0-.2.077-.37.23-.51a.813.813 0 0 1 .57-.21c.2 0 .37.073.51.219.14.147.21.314.21.501 0 .213-.07.399-.21.56a.653.653 0 0 1-.51.239zm0-16a.76.76 0 0 1-.57-.239.788.788 0 0 1-.23-.56c0-.201.077-.37.23-.51a.808.808 0 0 1 .57-.21c.2 0 .37.073.51.22.14.147.21.313.21.5 0 .213-.07.399-.21.56a.656.656 0 0 1-.51.239zm0-16a.756.756 0 0 1-.57-.239.784.784 0 0 1-.23-.56c0-.201.077-.371.23-.511a.816.816 0 0 1 .57-.209c.2 0 .37.073.51.22.14.147.21.313.21.5 0 .214-.07.4-.21.56a.653.653 0 0 1-.51.239zm0-15.999a.754.754 0 0 1-.57-.241.782.782 0 0 1-.23-.559c0-.2.077-.371.23-.51a.813.813 0 0 1 .57-.21c.2 0 .37.073.51.22.14.146.21.313.21.5 0 .213-.07.4-.21.559a.651.651 0 0 1-.51.241zm0-16.001a.753.753 0 0 1-.57-.24.784.784 0 0 1-.23-.559c0-.201.077-.37.23-.51a.813.813 0 0 1 .57-.21c.2 0 .37.074.51.22.14.146.21.313.21.5 0 .213-.07.399-.21.559a.65.65 0 0 1-.51.24zm0-16a.756.756 0 0 1-.57-.239.788.788 0 0 1-.23-.56c0-.201.077-.371.23-.51a.813.813 0 0 1 .57-.21c.2 0 .37.074.51.219.14.147.21.314.21.501 0 .213-.07.399-.21.56a.653.653 0 0 1-.51.239zm0-15.999a.754.754 0 0 1-.57-.241.784.784 0 0 1-.23-.559c0-.2.077-.37.23-.51a.813.813 0 0 1 .57-.21c.2 0 .37.073.51.219.14.147.21.314.21.501 0 .213-.07.399-.21.559a.651.651 0 0 1-.51.241zm0-16a.758.758 0 0 1-.57-.241.784.784 0 0 1-.23-.559c0-.201.077-.37.23-.51a.813.813 0 0 1 .57-.21c.2 0 .37.073.51.22.14.147.21.313.21.5 0 .213-.07.399-.21.559a.655.655 0 0 1-.51.241zm0-16.001a.76.76 0 0 1-.57-.239.786.786 0 0 1-.23-.56c0-.201.077-.37.23-.511a.816.816 0 0 1 .57-.209c.2 0 .37.073.51.219a.71.71 0 0 1 .21.501c0 .213-.07.4-.21.56a.656.656 0 0 1-.51.239zm-17.45 128a.756.756 0 0 1-.57-.239.788.788 0 0 1-.23-.56c0-.2.077-.37.23-.51a.813.813 0 0 1 .57-.21c.2 0 .37.073.51.219.14.147.21.314.21.501 0 .213-.07.399-.21.56a.653.653 0 0 1-.51.239zm0-16a.76.76 0 0 1-.57-.239.788.788 0 0 1-.23-.56c0-.201.077-.37.23-.51a.808.808 0 0 1 .57-.21c.2 0 .37.073.51.22.14.147.21.313.21.5 0 .213-.07.399-.21.56a.656.656 0 0 1-.51.239zm0-16a.756.756 0 0 1-.57-.239.784.784 0 0 1-.23-.56c0-.201.077-.371.23-.511a.816.816 0 0 1 .57-.209c.2 0 .37.073.51.22.14.147.21.313.21.5 0 .214-.07.4-.21.56a.653.653 0 0 1-.51.239zm0-15.999a.754.754 0 0 1-.57-.241.782.782 0 0 1-.23-.559c0-.2.077-.371.23-.51a.813.813 0 0 1 .57-.21c.2 0 .37.073.51.22.14.146.21.313.21.5 0 .213-.07.4-.21.559a.651.651 0 0 1-.51.241zm0-16.001a.753.753 0 0 1-.57-.24.784.784 0 0 1-.23-.559c0-.201.077-.37.23-.51a.813.813 0 0 1 .57-.21c.2 0 .37.074.51.22.14.146.21.313.21.5 0 .213-.07.399-.21.559a.65.65 0 0 1-.51.24zm0-16a.756.756 0 0 1-.57-.239.788.788 0 0 1-.23-.56c0-.201.077-.371.23-.51a.813.813 0 0 1 .57-.21c.2 0 .37.074.51.219.14.147.21.314.21.501 0 .213-.07.399-.21.56a.653.653 0 0 1-.51.239zm0-15.999a.754.754 0 0 1-.57-.241.784.784 0 0 1-.23-.559c0-.2.077-.37.23-.51a.813.813 0 0 1 .57-.21c.2 0 .37.073.51.219.14.147.21.314.21.501 0 .213-.07.399-.21.559a.651.651 0 0 1-.51.241zm0-16a.758.758 0 0 1-.57-.241.784.784 0 0 1-.23-.559c0-.201.077-.37.23-.51a.813.813 0 0 1 .57-.21c.2 0 .37.073.51.22.14.147.21.313.21.5 0 .213-.07.399-.21.559a.655.655 0 0 1-.51.241zm0-16.001a.76.76 0 0 1-.57-.239.786.786 0 0 1-.23-.56c0-.201.077-.37.23-.511a.816.816 0 0 1 .57-.209c.2 0 .37.073.51.219a.71.71 0 0 1 .21.501c0 .213-.07.4-.21.56a.656.656 0 0 1-.51.239zm-17.45 128a.756.756 0 0 1-.57-.239.788.788 0 0 1-.23-.56c0-.2.077-.37.23-.51a.813.813 0 0 1 .57-.21c.2 0 .37.073.51.219.14.147.21.314.21.501 0 .213-.07.399-.21.56a.653.653 0 0 1-.51.239zm0-16a.76.76 0 0 1-.57-.239.788.788 0 0 1-.23-.56c0-.201.077-.37.23-.51a.808.808 0 0 1 .57-.21c.2 0 .37.073.51.22.14.147.21.313.21.5 0 .213-.07.399-.21.56a.656.656 0 0 1-.51.239zm0-16a.756.756 0 0 1-.57-.239.784.784 0 0 1-.23-.56c0-.201.077-.371.23-.511a.816.816 0 0 1 .57-.209c.2 0 .37.073.51.22.14.147.21.313.21.5 0 .214-.07.4-.21.56a.653.653 0 0 1-.51.239zm0-15.999a.754.754 0 0 1-.57-.241.782.782 0 0 1-.23-.559c0-.2.077-.371.23-.51a.813.813 0 0 1 .57-.21c.2 0 .37.073.51.22.14.146.21.313.21.5 0 .213-.07.4-.21.559a.651.651 0 0 1-.51.241zm0-16.001a.753.753 0 0 1-.57-.24.784.784 0 0 1-.23-.559c0-.201.077-.37.23-.51a.813.813 0 0 1 .57-.21c.2 0 .37.074.51.22.14.146.21.313.21.5 0 .213-.07.399-.21.559a.65.65 0 0 1-.51.24zm0-16a.756.756 0 0 1-.57-.239.788.788 0 0 1-.23-.56c0-.201.077-.371.23-.51a.813.813 0 0 1 .57-.21c.2 0 .37.074.51.219.14.147.21.314.21.501 0 .213-.07.399-.21.56a.653.653 0 0 1-.51.239zm0-15.999a.754.754 0 0 1-.57-.241.784.784 0 0 1-.23-.559c0-.2.077-.37.23-.51a.813.813 0 0 1 .57-.21c.2 0 .37.073.51.219.14.147.21.314.21.501 0 .213-.07.399-.21.559a.651.651 0 0 1-.51.241zm0-16a.758.758 0 0 1-.57-.241.784.784 0 0 1-.23-.559c0-.201.077-.37.23-.51a.813.813 0 0 1 .57-.21c.2 0 .37.073.51.22.14.147.21.313.21.5 0 .213-.07.399-.21.559a.655.655 0 0 1-.51.241zm0-16.001a.76.76 0 0 1-.57-.239.786.786 0 0 1-.23-.56c0-.201.077-.37.23-.511a.816.816 0 0 1 .57-.209c.2 0 .37.073.51.219a.71.71 0 0 1 .21.501c0 .213-.07.4-.21.56a.656.656 0 0 1-.51.239zm-17.45 128a.756.756 0 0 1-.57-.239.788.788 0 0 1-.23-.56c0-.2.077-.37.23-.51a.813.813 0 0 1 .57-.21c.2 0 .37.073.51.219.14.147.21.314.21.501 0 .213-.07.399-.21.56a.653.653 0 0 1-.51.239zm0-16a.76.76 0 0 1-.57-.239.788.788 0 0 1-.23-.56c0-.201.077-.37.23-.51a.808.808 0 0 1 .57-.21c.2 0 .37.073.51.22.14.147.21.313.21.5 0 .213-.07.399-.21.56a.656.656 0 0 1-.51.239zm0-16a.756.756 0 0 1-.57-.239.784.784 0 0 1-.23-.56c0-.201.077-.371.23-.511a.816.816 0 0 1 .57-.209c.2 0 .37.073.51.22.14.147.21.313.21.5 0 .214-.07.4-.21.56a.653.653 0 0 1-.51.239zm0-15.999a.754.754 0 0 1-.57-.241.782.782 0 0 1-.23-.559c0-.2.077-.371.23-.51a.813.813 0 0 1 .57-.21c.2 0 .37.073.51.22.14.146.21.313.21.5 0 .213-.07.4-.21.559a.651.651 0 0 1-.51.241zm0-16.001a.753.753 0 0 1-.57-.24.784.784 0 0 1-.23-.559c0-.201.077-.37.23-.51a.813.813 0 0 1 .57-.21c.2 0 .37.074.51.22.14.146.21.313.21.5 0 .213-.07.399-.21.559a.65.65 0 0 1-.51.24zm0-16a.756.756 0 0 1-.57-.239.788.788 0 0 1-.23-.56c0-.201.077-.371.23-.51a.813.813 0 0 1 .57-.21c.2 0 .37.074.51.219.14.147.21.314.21.501 0 .213-.07.399-.21.56a.653.653 0 0 1-.51.239zm0-15.999a.754.754 0 0 1-.57-.241.784.784 0 0 1-.23-.559c0-.2.077-.37.23-.51a.813.813 0 0 1 .57-.21c.2 0 .37.073.51.219.14.147.21.314.21.501 0 .213-.07.399-.21.559a.651.651 0 0 1-.51.241zm0-16a.758.758 0 0 1-.57-.241.784.784 0 0 1-.23-.559c0-.201.077-.37.23-.51a.813.813 0 0 1 .57-.21c.2 0 .37.073.51.22.14.147.21.313.21.5 0 .213-.07.399-.21.559a.655.655 0 0 1-.51.241zm0-16.001a.76.76 0 0 1-.57-.239.786.786 0 0 1-.23-.56c0-.201.077-.37.23-.511a.816.816 0 0 1 .57-.209c.2 0 .37.073.51.219a.71.71 0 0 1 .21.501c0 .213-.07.4-.21.56a.656.656 0 0 1-.51.239zm-17.45 128a.756.756 0 0 1-.57-.239.788.788 0 0 1-.23-.56c0-.2.077-.37.23-.51a.813.813 0 0 1 .57-.21c.2 0 .37.073.51.219.14.147.21.314.21.501 0 .213-.07.399-.21.56a.653.653 0 0 1-.51.239zm0-16a.76.76 0 0 1-.57-.239.788.788 0 0 1-.23-.56c0-.201.077-.37.23-.51a.808.808 0 0 1 .57-.21c.2 0 .37.073.51.22.14.147.21.313.21.5 0 .213-.07.399-.21.56a.656.656 0 0 1-.51.239zm0-16a.756.756 0 0 1-.57-.239.784.784 0 0 1-.23-.56c0-.201.077-.371.23-.511a.816.816 0 0 1 .57-.209c.2 0 .37.073.51.22.14.147.21.313.21.5 0 .214-.07.4-.21.56a.653.653 0 0 1-.51.239zm0-15.999a.754.754 0 0 1-.57-.241.782.782 0 0 1-.23-.559c0-.2.077-.371.23-.51a.813.813 0 0 1 .57-.21c.2 0 .37.073.51.22.14.146.21.313.21.5 0 .213-.07.4-.21.559a.651.651 0 0 1-.51.241zm0-16.001a.753.753 0 0 1-.57-.24.784.784 0 0 1-.23-.559c0-.201.077-.37.23-.51a.813.813 0 0 1 .57-.21c.2 0 .37.074.51.22.14.146.21.313.21.5 0 .213-.07.399-.21.559a.65.65 0 0 1-.51.24zm0-16a.756.756 0 0 1-.57-.239.788.788 0 0 1-.23-.56c0-.201.077-.371.23-.51a.813.813 0 0 1 .57-.21c.2 0 .37.074.51.219.14.147.21.314.21.501 0 .213-.07.399-.21.56a.653.653 0 0 1-.51.239zm0-15.999a.754.754 0 0 1-.57-.241.784.784 0 0 1-.23-.559c0-.2.077-.37.23-.51a.813.813 0 0 1 .57-.21c.2 0 .37.073.51.219.14.147.21.314.21.501 0 .213-.07.399-.21.559a.651.651 0 0 1-.51.241zm0-16a.758.758 0 0 1-.57-.241.784.784 0 0 1-.23-.559c0-.201.077-.37.23-.51a.813.813 0 0 1 .57-.21c.2 0 .37.073.51.22.14.147.21.313.21.5 0 .213-.07.399-.21.559a.655.655 0 0 1-.51.241zm0-16.001a.76.76 0 0 1-.57-.239.786.786 0 0 1-.23-.56c0-.201.077-.37.23-.511a.816.816 0 0 1 .57-.209c.2 0 .37.073.51.219a.71.71 0 0 1 .21.501c0 .213-.07.4-.21.56a.656.656 0 0 1-.51.239zm-17.45 128a.756.756 0 0 1-.57-.239.788.788 0 0 1-.23-.56c0-.2.077-.37.23-.51a.813.813 0 0 1 .57-.21c.2 0 .37.073.51.219.14.147.21.314.21.501 0 .213-.07.399-.21.56a.653.653 0 0 1-.51.239zm0-16a.76.76 0 0 1-.57-.239.788.788 0 0 1-.23-.56c0-.201.077-.37.23-.51a.808.808 0 0 1 .57-.21c.2 0 .37.073.51.22.14.147.21.313.21.5 0 .213-.07.399-.21.56a.656.656 0 0 1-.51.239zm0-16a.756.756 0 0 1-.57-.239.784.784 0 0 1-.23-.56c0-.201.077-.371.23-.511a.816.816 0 0 1 .57-.209c.2 0 .37.073.51.22.14.147.21.313.21.5 0 .214-.07.4-.21.56a.653.653 0 0 1-.51.239zm0-15.999a.754.754 0 0 1-.57-.241.782.782 0 0 1-.23-.559c0-.2.077-.371.23-.51a.813.813 0 0 1 .57-.21c.2 0 .37.073.51.22.14.146.21.313.21.5 0 .213-.07.4-.21.559a.651.651 0 0 1-.51.241zm0-16.001a.753.753 0 0 1-.57-.24.784.784 0 0 1-.23-.559c0-.201.077-.37.23-.51a.813.813 0 0 1 .57-.21c.2 0 .37.074.51.22.14.146.21.313.21.5 0 .213-.07.399-.21.559a.65.65 0 0 1-.51.24zm0-16a.756.756 0 0 1-.57-.239.788.788 0 0 1-.23-.56c0-.201.077-.371.23-.51a.813.813 0 0 1 .57-.21c.2 0 .37.074.51.219.14.147.21.314.21.501 0 .213-.07.399-.21.56a.653.653 0 0 1-.51.239zm0-15.999a.754.754 0 0 1-.57-.241.784.784 0 0 1-.23-.559c0-.2.077-.37.23-.51a.813.813 0 0 1 .57-.21c.2 0 .37.073.51.219.14.147.21.314.21.501 0 .213-.07.399-.21.559a.651.651 0 0 1-.51.241zm0-16a.758.758 0 0 1-.57-.241.784.784 0 0 1-.23-.559c0-.201.077-.37.23-.51a.813.813 0 0 1 .57-.21c.2 0 .37.073.51.22.14.147.21.313.21.5 0 .213-.07.399-.21.559a.655.655 0 0 1-.51.241zm0-16.001a.76.76 0 0 1-.57-.239.786.786 0 0 1-.23-.56c0-.201.077-.37.23-.511a.816.816 0 0 1 .57-.209c.2 0 .37.073.51.219a.71.71 0 0 1 .21.501c0 .213-.07.4-.21.56a.656.656 0 0 1-.51.239zm-17.45 128a.756.756 0 0 1-.57-.239.788.788 0 0 1-.23-.56c0-.2.077-.37.23-.51a.813.813 0 0 1 .57-.21c.2 0 .37.073.51.219.14.147.21.314.21.501 0 .213-.07.399-.21.56a.653.653 0 0 1-.51.239zm0-16a.76.76 0 0 1-.57-.239.788.788 0 0 1-.23-.56c0-.201.077-.37.23-.51a.808.808 0 0 1 .57-.21c.2 0 .37.073.51.22.14.147.21.313.21.5 0 .213-.07.399-.21.56a.656.656 0 0 1-.51.239zm0-16a.756.756 0 0 1-.57-.239.784.784 0 0 1-.23-.56c0-.201.077-.371.23-.511a.816.816 0 0 1 .57-.209c.2 0 .37.073.51.22.14.147.21.313.21.5 0 .214-.07.4-.21.56a.653.653 0 0 1-.51.239zm0-15.999a.754.754 0 0 1-.57-.241.782.782 0 0 1-.23-.559c0-.2.077-.371.23-.51a.813.813 0 0 1 .57-.21c.2 0 .37.073.51.22.14.146.21.313.21.5 0 .213-.07.4-.21.559a.651.651 0 0 1-.51.241zm0-16.001a.753.753 0 0 1-.57-.24.784.784 0 0 1-.23-.559c0-.201.077-.37.23-.51a.813.813 0 0 1 .57-.21c.2 0 .37.074.51.22.14.146.21.313.21.5 0 .213-.07.399-.21.559a.65.65 0 0 1-.51.24zm0-16a.756.756 0 0 1-.57-.239.788.788 0 0 1-.23-.56c0-.201.077-.371.23-.51a.813.813 0 0 1 .57-.21c.2 0 .37.074.51.219.14.147.21.314.21.501 0 .213-.07.399-.21.56a.653.653 0 0 1-.51.239zm0-15.999a.754.754 0 0 1-.57-.241.784.784 0 0 1-.23-.559c0-.2.077-.37.23-.51a.813.813 0 0 1 .57-.21c.2 0 .37.073.51.219.14.147.21.314.21.501 0 .213-.07.399-.21.559a.651.651 0 0 1-.51.241zm0-16a.758.758 0 0 1-.57-.241.784.784 0 0 1-.23-.559c0-.201.077-.37.23-.51a.813.813 0 0 1 .57-.21c.2 0 .37.073.51.22.14.147.21.313.21.5 0 .213-.07.399-.21.559a.655.655 0 0 1-.51.241zm0-16.001a.76.76 0 0 1-.57-.239.786.786 0 0 1-.23-.56c0-.201.077-.37.23-.511a.816.816 0 0 1 .57-.209c.2 0 .37.073.51.219a.71.71 0 0 1 .21.501c0 .213-.07.4-.21.56a.656.656 0 0 1-.51.239zm-17.45 128a.756.756 0 0 1-.57-.239.788.788 0 0 1-.23-.56c0-.2.077-.37.23-.51a.813.813 0 0 1 .57-.21c.2 0 .37.073.51.219.14.147.21.314.21.501 0 .213-.07.399-.21.56a.653.653 0 0 1-.51.239zm0-16a.76.76 0 0 1-.57-.239.788.788 0 0 1-.23-.56c0-.201.077-.37.23-.51a.808.808 0 0 1 .57-.21c.2 0 .37.073.51.22.14.147.21.313.21.5 0 .213-.07.399-.21.56a.656.656 0 0 1-.51.239zm0-16a.756.756 0 0 1-.57-.239.784.784 0 0 1-.23-.56c0-.201.077-.371.23-.511a.816.816 0 0 1 .57-.209c.2 0 .37.073.51.22.14.147.21.313.21.5 0 .214-.07.4-.21.56a.653.653 0 0 1-.51.239zm0-15.999a.754.754 0 0 1-.57-.241.782.782 0 0 1-.23-.559c0-.2.077-.371.23-.51a.813.813 0 0 1 .57-.21c.2 0 .37.073.51.22.14.146.21.313.21.5 0 .213-.07.4-.21.559a.651.651 0 0 1-.51.241zm0-16.001a.753.753 0 0 1-.57-.24.784.784 0 0 1-.23-.559c0-.201.077-.37.23-.51a.813.813 0 0 1 .57-.21c.2 0 .37.074.51.22.14.146.21.313.21.5 0 .213-.07.399-.21.559a.65.65 0 0 1-.51.24zm0-16a.756.756 0 0 1-.57-.239.788.788 0 0 1-.23-.56c0-.201.077-.371.23-.51a.813.813 0 0 1 .57-.21c.2 0 .37.074.51.219.14.147.21.314.21.501 0 .213-.07.399-.21.56a.653.653 0 0 1-.51.239zm0-15.999a.754.754 0 0 1-.57-.241.784.784 0 0 1-.23-.559c0-.2.077-.37.23-.51a.813.813 0 0 1 .57-.21c.2 0 .37.073.51.219.14.147.21.314.21.501 0 .213-.07.399-.21.559a.651.651 0 0 1-.51.241zm0-16a.758.758 0 0 1-.57-.241.784.784 0 0 1-.23-.559c0-.201.077-.37.23-.51a.813.813 0 0 1 .57-.21c.2 0 .37.073.51.22.14.147.21.313.21.5 0 .213-.07.399-.21.559a.655.655 0 0 1-.51.241zm0-16.001a.76.76 0 0 1-.57-.239.786.786 0 0 1-.23-.56c0-.201.077-.37.23-.511a.816.816 0 0 1 .57-.209c.2 0 .37.073.51.219a.71.71 0 0 1 .21.501c0 .213-.07.4-.21.56a.656.656 0 0 1-.51.239zm-17.45 128a.756.756 0 0 1-.57-.239.783.783 0 0 1-.23-.56c0-.2.076-.37.23-.51a.813.813 0 0 1 .57-.21c.2 0 .37.073.51.219.14.147.21.314.21.501 0 .213-.07.399-.21.56a.653.653 0 0 1-.51.239zm0-16a.76.76 0 0 1-.57-.239.783.783 0 0 1-.23-.56c0-.201.076-.37.23-.51a.808.808 0 0 1 .57-.21c.2 0 .37.073.51.22.14.147.21.313.21.5 0 .213-.07.399-.21.56a.656.656 0 0 1-.51.239zm0-16a.756.756 0 0 1-.57-.239.78.78 0 0 1-.23-.56c0-.201.076-.371.23-.511a.816.816 0 0 1 .57-.209c.2 0 .37.073.51.22.14.147.21.313.21.5 0 .214-.07.4-.21.56a.653.653 0 0 1-.51.239zm0-15.999a.754.754 0 0 1-.57-.241.778.778 0 0 1-.23-.559c0-.2.076-.371.23-.51a.813.813 0 0 1 .57-.21c.2 0 .37.073.51.22.14.146.21.313.21.5 0 .213-.07.4-.21.559a.651.651 0 0 1-.51.241zm0-16.001a.753.753 0 0 1-.57-.24.78.78 0 0 1-.23-.559c0-.201.076-.37.23-.51a.813.813 0 0 1 .57-.21c.2 0 .37.074.51.22.14.146.21.313.21.5 0 .213-.07.399-.21.559a.65.65 0 0 1-.51.24zm0-16a.756.756 0 0 1-.57-.239.783.783 0 0 1-.23-.56.66.66 0 0 1 .23-.51.813.813 0 0 1 .57-.21c.2 0 .37.074.51.219.14.147.21.314.21.501 0 .213-.07.399-.21.56a.653.653 0 0 1-.51.239zm0-15.999a.754.754 0 0 1-.57-.241.78.78 0 0 1-.23-.559c0-.2.076-.37.23-.51a.813.813 0 0 1 .57-.21c.2 0 .37.073.51.219.14.147.21.314.21.501 0 .213-.07.399-.21.559a.651.651 0 0 1-.51.241zm0-16a.758.758 0 0 1-.57-.241.78.78 0 0 1-.23-.559c0-.201.076-.37.23-.51a.813.813 0 0 1 .57-.21c.2 0 .37.073.51.22.14.147.21.313.21.5 0 .213-.07.399-.21.559a.655.655 0 0 1-.51.241zm0-16.001a.76.76 0 0 1-.57-.239.782.782 0 0 1-.23-.56c0-.201.076-.37.23-.511a.816.816 0 0 1 .57-.209c.2 0 .37.073.51.219a.71.71 0 0 1 .21.501c0 .213-.07.4-.21.56a.656.656 0 0 1-.51.239zm-17.45 128a.756.756 0 0 1-.57-.239.788.788 0 0 1-.23-.56c0-.2.077-.37.23-.51a.813.813 0 0 1 .57-.21c.2 0 .37.073.51.219.14.147.21.314.21.501 0 .213-.07.399-.21.56a.653.653 0 0 1-.51.239zm0-16a.76.76 0 0 1-.57-.239.788.788 0 0 1-.23-.56c0-.201.077-.37.23-.51a.808.808 0 0 1 .57-.21c.2 0 .37.073.51.22.14.147.21.313.21.5 0 .213-.07.399-.21.56a.656.656 0 0 1-.51.239zm0-16a.756.756 0 0 1-.57-.239.784.784 0 0 1-.23-.56c0-.201.077-.371.23-.511a.816.816 0 0 1 .57-.209c.2 0 .37.073.51.22.14.147.21.313.21.5 0 .214-.07.4-.21.56a.653.653 0 0 1-.51.239zm0-15.999a.754.754 0 0 1-.57-.241.782.782 0 0 1-.23-.559c0-.2.077-.371.23-.51a.813.813 0 0 1 .57-.21c.2 0 .37.073.51.22.14.146.21.313.21.5 0 .213-.07.4-.21.559a.651.651 0 0 1-.51.241zm0-16.001a.753.753 0 0 1-.57-.24.784.784 0 0 1-.23-.559c0-.201.077-.37.23-.51a.813.813 0 0 1 .57-.21c.2 0 .37.074.51.22.14.146.21.313.21.5 0 .213-.07.399-.21.559a.65.65 0 0 1-.51.24zm0-16a.756.756 0 0 1-.57-.239.788.788 0 0 1-.23-.56c0-.201.077-.371.23-.51a.813.813 0 0 1 .57-.21c.2 0 .37.074.51.219.14.147.21.314.21.501 0 .213-.07.399-.21.56a.653.653 0 0 1-.51.239zm0-15.999a.754.754 0 0 1-.57-.241.784.784 0 0 1-.23-.559c0-.2.077-.37.23-.51a.813.813 0 0 1 .57-.21c.2 0 .37.073.51.219.14.147.21.314.21.501 0 .213-.07.399-.21.559a.651.651 0 0 1-.51.241zm0-16a.758.758 0 0 1-.57-.241.784.784 0 0 1-.23-.559c0-.201.077-.37.23-.51a.813.813 0 0 1 .57-.21c.2 0 .37.073.51.22.14.147.21.313.21.5 0 .213-.07.399-.21.559a.655.655 0 0 1-.51.241zm0-16.001a.76.76 0 0 1-.57-.239.786.786 0 0 1-.23-.56c0-.201.077-.37.23-.511a.816.816 0 0 1 .57-.209c.2 0 .37.073.51.219a.71.71 0 0 1 .21.501c0 .213-.07.4-.21.56a.656.656 0 0 1-.51.239zm-17.45 128a.756.756 0 0 1-.57-.239.783.783 0 0 1-.23-.56c0-.2.076-.37.23-.51a.813.813 0 0 1 .57-.21c.2 0 .37.073.51.219.14.147.21.314.21.501 0 .213-.07.399-.21.56a.653.653 0 0 1-.51.239zm0-16a.76.76 0 0 1-.57-.239.783.783 0 0 1-.23-.56c0-.201.076-.37.23-.51a.808.808 0 0 1 .57-.21c.2 0 .37.073.51.22.14.147.21.313.21.5 0 .213-.07.399-.21.56a.656.656 0 0 1-.51.239zm0-16a.756.756 0 0 1-.57-.239.78.78 0 0 1-.23-.56c0-.201.076-.371.23-.511a.816.816 0 0 1 .57-.209c.2 0 .37.073.51.22.14.147.21.313.21.5 0 .214-.07.4-.21.56a.653.653 0 0 1-.51.239zm0-15.999a.754.754 0 0 1-.57-.241.778.778 0 0 1-.23-.559c0-.2.076-.371.23-.51a.813.813 0 0 1 .57-.21c.2 0 .37.073.51.22.14.146.21.313.21.5 0 .213-.07.4-.21.559a.651.651 0 0 1-.51.241zm0-16.001a.753.753 0 0 1-.57-.24.78.78 0 0 1-.23-.559c0-.201.076-.37.23-.51a.813.813 0 0 1 .57-.21c.2 0 .37.074.51.22.14.146.21.313.21.5 0 .213-.07.399-.21.559a.65.65 0 0 1-.51.24zm0-16a.756.756 0 0 1-.57-.239.783.783 0 0 1-.23-.56.66.66 0 0 1 .23-.51.813.813 0 0 1 .57-.21c.2 0 .37.074.51.219.14.147.21.314.21.501 0 .213-.07.399-.21.56a.653.653 0 0 1-.51.239zm0-15.999a.754.754 0 0 1-.57-.241.78.78 0 0 1-.23-.559c0-.2.076-.37.23-.51a.813.813 0 0 1 .57-.21c.2 0 .37.073.51.219.14.147.21.314.21.501 0 .213-.07.399-.21.559a.651.651 0 0 1-.51.241zm0-16a.758.758 0 0 1-.57-.241.78.78 0 0 1-.23-.559c0-.201.076-.37.23-.51a.813.813 0 0 1 .57-.21c.2 0 .37.073.51.22.14.147.21.313.21.5 0 .213-.07.399-.21.559a.655.655 0 0 1-.51.241zm0-16.001a.76.76 0 0 1-.57-.239.782.782 0 0 1-.23-.56c0-.201.076-.37.23-.511a.816.816 0 0 1 .57-.209c.2 0 .37.073.51.219a.71.71 0 0 1 .21.501c0 .213-.07.4-.21.56a.656.656 0 0 1-.51.239zm-17.45 128a.756.756 0 0 1-.57-.239.788.788 0 0 1-.23-.56c0-.2.077-.37.23-.51a.813.813 0 0 1 .57-.21c.2 0 .37.073.51.219.14.147.21.314.21.501 0 .213-.07.399-.21.56a.653.653 0 0 1-.51.239zm0-16a.76.76 0 0 1-.57-.239.788.788 0 0 1-.23-.56c0-.201.077-.37.23-.51a.808.808 0 0 1 .57-.21c.2 0 .37.073.51.22.14.147.21.313.21.5 0 .213-.07.399-.21.56a.656.656 0 0 1-.51.239zm0-16a.756.756 0 0 1-.57-.239.784.784 0 0 1-.23-.56c0-.201.077-.371.23-.511a.816.816 0 0 1 .57-.209c.2 0 .37.073.51.22.14.147.21.313.21.5 0 .214-.07.4-.21.56a.653.653 0 0 1-.51.239zm0-15.999a.754.754 0 0 1-.57-.241.782.782 0 0 1-.23-.559c0-.2.077-.371.23-.51a.813.813 0 0 1 .57-.21c.2 0 .37.073.51.22.14.146.21.313.21.5 0 .213-.07.4-.21.559a.651.651 0 0 1-.51.241zm0-16.001a.753.753 0 0 1-.57-.24.784.784 0 0 1-.23-.559c0-.201.077-.37.23-.51a.813.813 0 0 1 .57-.21c.2 0 .37.074.51.22.14.146.21.313.21.5 0 .213-.07.399-.21.559a.65.65 0 0 1-.51.24zm0-16a.756.756 0 0 1-.57-.239.788.788 0 0 1-.23-.56c0-.201.077-.371.23-.51a.813.813 0 0 1 .57-.21c.2 0 .37.074.51.219.14.147.21.314.21.501 0 .213-.07.399-.21.56a.653.653 0 0 1-.51.239zm0-15.999a.754.754 0 0 1-.57-.241.784.784 0 0 1-.23-.559c0-.2.077-.37.23-.51a.813.813 0 0 1 .57-.21c.2 0 .37.073.51.219.14.147.21.314.21.501 0 .213-.07.399-.21.559a.651.651 0 0 1-.51.241zm0-16a.758.758 0 0 1-.57-.241.784.784 0 0 1-.23-.559c0-.201.077-.37.23-.51a.813.813 0 0 1 .57-.21c.2 0 .37.073.51.22.14.147.21.313.21.5 0 .213-.07.399-.21.559a.655.655 0 0 1-.51.241zm0-16.001a.76.76 0 0 1-.57-.239.786.786 0 0 1-.23-.56c0-.201.077-.37.23-.511a.816.816 0 0 1 .57-.209c.2 0 .37.073.51.219a.71.71 0 0 1 .21.501c0 .213-.07.4-.21.56a.656.656 0 0 1-.51.239zm-17.45 128a.756.756 0 0 1-.57-.239.788.788 0 0 1-.23-.56c0-.2.077-.37.23-.51a.813.813 0 0 1 .57-.21c.2 0 .37.073.51.219.14.147.21.314.21.501 0 .213-.07.399-.21.56a.653.653 0 0 1-.51.239zm0-16a.76.76 0 0 1-.57-.239.788.788 0 0 1-.23-.56c0-.201.077-.37.23-.51a.808.808 0 0 1 .57-.21c.2 0 .37.073.51.22.14.147.21.313.21.5 0 .213-.07.399-.21.56a.656.656 0 0 1-.51.239zm0-16a.756.756 0 0 1-.57-.239.784.784 0 0 1-.23-.56c0-.201.077-.371.23-.511a.816.816 0 0 1 .57-.209c.2 0 .37.073.51.22.14.147.21.313.21.5 0 .214-.07.4-.21.56a.653.653 0 0 1-.51.239zm0-15.999a.754.754 0 0 1-.57-.241.782.782 0 0 1-.23-.559c0-.2.077-.371.23-.51a.813.813 0 0 1 .57-.21c.2 0 .37.073.51.22.14.146.21.313.21.5 0 .213-.07.4-.21.559a.651.651 0 0 1-.51.241zm0-16.001a.753.753 0 0 1-.57-.24.784.784 0 0 1-.23-.559c0-.201.077-.37.23-.51a.813.813 0 0 1 .57-.21c.2 0 .37.074.51.22.14.146.21.313.21.5 0 .213-.07.399-.21.559a.65.65 0 0 1-.51.24zm0-16a.756.756 0 0 1-.57-.239.788.788 0 0 1-.23-.56c0-.201.077-.371.23-.51a.813.813 0 0 1 .57-.21c.2 0 .37.074.51.219.14.147.21.314.21.501 0 .213-.07.399-.21.56a.653.653 0 0 1-.51.239zm0-15.999a.754.754 0 0 1-.57-.241.784.784 0 0 1-.23-.559c0-.2.077-.37.23-.51a.813.813 0 0 1 .57-.21c.2 0 .37.073.51.219.14.147.21.314.21.501 0 .213-.07.399-.21.559a.651.651 0 0 1-.51.241zm0-16a.758.758 0 0 1-.57-.241.784.784 0 0 1-.23-.559c0-.201.077-.37.23-.51a.813.813 0 0 1 .57-.21c.2 0 .37.073.51.22.14.147.21.313.21.5 0 .213-.07.399-.21.559a.655.655 0 0 1-.51.241zm0-16.001a.76.76 0 0 1-.57-.239.786.786 0 0 1-.23-.56c0-.201.077-.37.23-.511a.816.816 0 0 1 .57-.209c.2 0 .37.073.51.219a.71.71 0 0 1 .21.501c0 .213-.07.4-.21.56a.656.656 0 0 1-.51.239zm-17.45 128a.756.756 0 0 1-.57-.239.788.788 0 0 1-.23-.56c0-.2.077-.37.23-.51a.813.813 0 0 1 .57-.21c.2 0 .37.073.51.219.14.147.21.314.21.501 0 .213-.07.399-.21.56a.653.653 0 0 1-.51.239zm0-16a.76.76 0 0 1-.57-.239.788.788 0 0 1-.23-.56c0-.201.077-.37.23-.51a.808.808 0 0 1 .57-.21c.2 0 .37.073.51.22.14.147.21.313.21.5 0 .213-.07.399-.21.56a.656.656 0 0 1-.51.239zm0-16a.756.756 0 0 1-.57-.239.784.784 0 0 1-.23-.56c0-.201.077-.371.23-.511a.816.816 0 0 1 .57-.209c.2 0 .37.073.51.22.14.147.21.313.21.5 0 .214-.07.4-.21.56a.653.653 0 0 1-.51.239zm0-15.999a.754.754 0 0 1-.57-.241.782.782 0 0 1-.23-.559c0-.2.077-.371.23-.51a.813.813 0 0 1 .57-.21c.2 0 .37.073.51.22.14.146.21.313.21.5 0 .213-.07.4-.21.559a.651.651 0 0 1-.51.241zm0-16.001a.753.753 0 0 1-.57-.24.784.784 0 0 1-.23-.559c0-.201.077-.37.23-.51a.813.813 0 0 1 .57-.21c.2 0 .37.074.51.22.14.146.21.313.21.5 0 .213-.07.399-.21.559a.65.65 0 0 1-.51.24zm0-16a.756.756 0 0 1-.57-.239.788.788 0 0 1-.23-.56c0-.201.077-.371.23-.51a.813.813 0 0 1 .57-.21c.2 0 .37.074.51.219.14.147.21.314.21.501 0 .213-.07.399-.21.56a.653.653 0 0 1-.51.239zm0-15.999a.754.754 0 0 1-.57-.241.784.784 0 0 1-.23-.559c0-.2.077-.37.23-.51a.813.813 0 0 1 .57-.21c.2 0 .37.073.51.219.14.147.21.314.21.501 0 .213-.07.399-.21.559a.651.651 0 0 1-.51.241zm0-16a.758.758 0 0 1-.57-.241.784.784 0 0 1-.23-.559c0-.201.077-.37.23-.51a.813.813 0 0 1 .57-.21c.2 0 .37.073.51.22.14.147.21.313.21.5 0 .213-.07.399-.21.559a.655.655 0 0 1-.51.241zm0-16.001a.76.76 0 0 1-.57-.239.786.786 0 0 1-.23-.56c0-.201.077-.37.23-.511a.816.816 0 0 1 .57-.209c.2 0 .37.073.51.219a.71.71 0 0 1 .21.501c0 .213-.07.4-.21.56a.656.656 0 0 1-.51.239zm-17.45 128a.756.756 0 0 1-.57-.239.788.788 0 0 1-.23-.56c0-.2.077-.37.23-.51a.813.813 0 0 1 .57-.21c.2 0 .37.073.51.219.14.147.21.314.21.501 0 .213-.07.399-.21.56a.653.653 0 0 1-.51.239zm0-16a.76.76 0 0 1-.57-.239.788.788 0 0 1-.23-.56c0-.201.077-.37.23-.51a.808.808 0 0 1 .57-.21c.2 0 .37.073.51.22.14.147.21.313.21.5 0 .213-.07.399-.21.56a.656.656 0 0 1-.51.239zm0-16a.756.756 0 0 1-.57-.239.784.784 0 0 1-.23-.56c0-.201.077-.371.23-.511a.816.816 0 0 1 .57-.209c.2 0 .37.073.51.22.14.147.21.313.21.5 0 .214-.07.4-.21.56a.653.653 0 0 1-.51.239zm0-15.999a.754.754 0 0 1-.57-.241.782.782 0 0 1-.23-.559c0-.2.077-.371.23-.51a.813.813 0 0 1 .57-.21c.2 0 .37.073.51.22.14.146.21.313.21.5 0 .213-.07.4-.21.559a.651.651 0 0 1-.51.241zm0-16.001a.753.753 0 0 1-.57-.24.784.784 0 0 1-.23-.559c0-.201.077-.37.23-.51a.813.813 0 0 1 .57-.21c.2 0 .37.074.51.22.14.146.21.313.21.5 0 .213-.07.399-.21.559a.65.65 0 0 1-.51.24zm0-16a.756.756 0 0 1-.57-.239.788.788 0 0 1-.23-.56c0-.201.077-.371.23-.51a.813.813 0 0 1 .57-.21c.2 0 .37.074.51.219.14.147.21.314.21.501 0 .213-.07.399-.21.56a.653.653 0 0 1-.51.239zm0-15.999a.754.754 0 0 1-.57-.241.784.784 0 0 1-.23-.559c0-.2.077-.37.23-.51a.813.813 0 0 1 .57-.21c.2 0 .37.073.51.219.14.147.21.314.21.501 0 .213-.07.399-.21.559a.651.651 0 0 1-.51.241zm0-16a.758.758 0 0 1-.57-.241.784.784 0 0 1-.23-.559c0-.201.077-.37.23-.51a.813.813 0 0 1 .57-.21c.2 0 .37.073.51.22.14.147.21.313.21.5 0 .213-.07.399-.21.559a.655.655 0 0 1-.51.241zm0-16.001a.76.76 0 0 1-.57-.239.786.786 0 0 1-.23-.56c0-.201.077-.37.23-.511a.816.816 0 0 1 .57-.209c.2 0 .37.073.51.219a.71.71 0 0 1 .21.501c0 .213-.07.4-.21.56a.656.656 0 0 1-.51.239zm-17.45 128a.756.756 0 0 1-.57-.239.783.783 0 0 1-.23-.56c0-.2.076-.37.23-.51a.813.813 0 0 1 .57-.21c.2 0 .37.073.51.219.14.147.21.314.21.501 0 .213-.07.399-.21.56a.653.653 0 0 1-.51.239zm0-16a.76.76 0 0 1-.57-.239.783.783 0 0 1-.23-.56c0-.201.076-.37.23-.51a.808.808 0 0 1 .57-.21c.2 0 .37.073.51.22.14.147.21.313.21.5 0 .213-.07.399-.21.56a.656.656 0 0 1-.51.239zm0-16a.756.756 0 0 1-.57-.239.78.78 0 0 1-.23-.56c0-.201.076-.371.23-.511a.816.816 0 0 1 .57-.209c.2 0 .37.073.51.22.14.147.21.313.21.5 0 .214-.07.4-.21.56a.653.653 0 0 1-.51.239zm0-15.999a.754.754 0 0 1-.57-.241.778.778 0 0 1-.23-.559c0-.2.076-.371.23-.51a.813.813 0 0 1 .57-.21c.2 0 .37.073.51.22.14.146.21.313.21.5 0 .213-.07.4-.21.559a.651.651 0 0 1-.51.241zm0-16.001a.753.753 0 0 1-.57-.24.78.78 0 0 1-.23-.559c0-.201.076-.37.23-.51a.813.813 0 0 1 .57-.21c.2 0 .37.074.51.22.14.146.21.313.21.5 0 .213-.07.399-.21.559a.65.65 0 0 1-.51.24zm0-16a.756.756 0 0 1-.57-.239.783.783 0 0 1-.23-.56.66.66 0 0 1 .23-.51.813.813 0 0 1 .57-.21c.2 0 .37.074.51.219.14.147.21.314.21.501 0 .213-.07.399-.21.56a.653.653 0 0 1-.51.239zm0-15.999a.754.754 0 0 1-.57-.241.78.78 0 0 1-.23-.559c0-.2.076-.37.23-.51a.813.813 0 0 1 .57-.21c.2 0 .37.073.51.219.14.147.21.314.21.501 0 .213-.07.399-.21.559a.651.651 0 0 1-.51.241zm0-16a.758.758 0 0 1-.57-.241.78.78 0 0 1-.23-.559c0-.201.076-.37.23-.51a.813.813 0 0 1 .57-.21c.2 0 .37.073.51.22.14.147.21.313.21.5 0 .213-.07.399-.21.559a.655.655 0 0 1-.51.241zm0-16.001a.76.76 0 0 1-.57-.239.782.782 0 0 1-.23-.56c0-.201.076-.37.23-.511a.816.816 0 0 1 .57-.209c.2 0 .37.073.51.219a.71.71 0 0 1 .21.501c0 .213-.07.4-.21.56a.656.656 0 0 1-.51.239zm-17.45 128a.756.756 0 0 1-.57-.239.788.788 0 0 1-.23-.56c0-.2.077-.37.23-.51a.813.813 0 0 1 .57-.21c.2 0 .37.073.51.219.14.147.21.314.21.501 0 .213-.07.399-.21.56a.653.653 0 0 1-.51.239zm0-16a.76.76 0 0 1-.57-.239.788.788 0 0 1-.23-.56c0-.201.077-.37.23-.51a.808.808 0 0 1 .57-.21c.2 0 .37.073.51.22.14.147.21.313.21.5 0 .213-.07.399-.21.56a.656.656 0 0 1-.51.239zm0-16a.756.756 0 0 1-.57-.239.784.784 0 0 1-.23-.56c0-.201.077-.371.23-.511a.816.816 0 0 1 .57-.209c.2 0 .37.073.51.22.14.147.21.313.21.5 0 .214-.07.4-.21.56a.653.653 0 0 1-.51.239zm0-15.999a.754.754 0 0 1-.57-.241.782.782 0 0 1-.23-.559c0-.2.077-.371.23-.51a.813.813 0 0 1 .57-.21c.2 0 .37.073.51.22.14.146.21.313.21.5 0 .213-.07.4-.21.559a.651.651 0 0 1-.51.241zm0-16.001a.753.753 0 0 1-.57-.24.784.784 0 0 1-.23-.559c0-.201.077-.37.23-.51a.813.813 0 0 1 .57-.21c.2 0 .37.074.51.22.14.146.21.313.21.5 0 .213-.07.399-.21.559a.65.65 0 0 1-.51.24zm0-16a.756.756 0 0 1-.57-.239.788.788 0 0 1-.23-.56c0-.201.077-.371.23-.51a.813.813 0 0 1 .57-.21c.2 0 .37.074.51.219.14.147.21.314.21.501 0 .213-.07.399-.21.56a.653.653 0 0 1-.51.239zm0-15.999a.754.754 0 0 1-.57-.241.784.784 0 0 1-.23-.559c0-.2.077-.37.23-.51a.813.813 0 0 1 .57-.21c.2 0 .37.073.51.219.14.147.21.314.21.501 0 .213-.07.399-.21.559a.651.651 0 0 1-.51.241zm0-16a.758.758 0 0 1-.57-.241.784.784 0 0 1-.23-.559c0-.201.077-.37.23-.51a.813.813 0 0 1 .57-.21c.2 0 .37.073.51.22.14.147.21.313.21.5 0 .213-.07.399-.21.559a.655.655 0 0 1-.51.241zm0-16.001a.76.76 0 0 1-.57-.239.786.786 0 0 1-.23-.56c0-.201.077-.37.23-.511a.816.816 0 0 1 .57-.209c.2 0 .37.073.51.219a.71.71 0 0 1 .21.501c0 .213-.07.4-.21.56a.656.656 0 0 1-.51.239zm-17.45 128a.756.756 0 0 1-.57-.239.788.788 0 0 1-.23-.56c0-.2.077-.37.23-.51a.813.813 0 0 1 .57-.21c.2 0 .37.073.51.219.14.147.21.314.21.501 0 .213-.07.399-.21.56a.653.653 0 0 1-.51.239zm0-16a.76.76 0 0 1-.57-.239.788.788 0 0 1-.23-.56c0-.201.077-.37.23-.51a.808.808 0 0 1 .57-.21c.2 0 .37.073.51.22.14.147.21.313.21.5 0 .213-.07.399-.21.56a.656.656 0 0 1-.51.239zm0-16a.756.756 0 0 1-.57-.239.784.784 0 0 1-.23-.56c0-.201.077-.371.23-.511a.816.816 0 0 1 .57-.209c.2 0 .37.073.51.22.14.147.21.313.21.5 0 .214-.07.4-.21.56a.653.653 0 0 1-.51.239zm0-15.999a.754.754 0 0 1-.57-.241.782.782 0 0 1-.23-.559c0-.2.077-.371.23-.51a.813.813 0 0 1 .57-.21c.2 0 .37.073.51.22.14.146.21.313.21.5 0 .213-.07.4-.21.559a.651.651 0 0 1-.51.241zm0-16.001a.753.753 0 0 1-.57-.24.784.784 0 0 1-.23-.559c0-.201.077-.37.23-.51a.813.813 0 0 1 .57-.21c.2 0 .37.074.51.22.14.146.21.313.21.5 0 .213-.07.399-.21.559a.65.65 0 0 1-.51.24zm0-16a.756.756 0 0 1-.57-.239.788.788 0 0 1-.23-.56c0-.201.077-.371.23-.51a.813.813 0 0 1 .57-.21c.2 0 .37.074.51.219.14.147.21.314.21.501 0 .213-.07.399-.21.56a.653.653 0 0 1-.51.239zm0-15.999a.754.754 0 0 1-.57-.241.784.784 0 0 1-.23-.559c0-.2.077-.37.23-.51a.813.813 0 0 1 .57-.21c.2 0 .37.073.51.219.14.147.21.314.21.501 0 .213-.07.399-.21.559a.651.651 0 0 1-.51.241zm0-16a.758.758 0 0 1-.57-.241.784.784 0 0 1-.23-.559c0-.201.077-.37.23-.51a.813.813 0 0 1 .57-.21c.2 0 .37.073.51.22.14.147.21.313.21.5 0 .213-.07.399-.21.559a.655.655 0 0 1-.51.241zm0-16.001a.76.76 0 0 1-.57-.239.786.786 0 0 1-.23-.56c0-.201.077-.37.23-.511a.816.816 0 0 1 .57-.209c.2 0 .37.073.51.219a.71.71 0 0 1 .21.501c0 .213-.07.4-.21.56a.656.656 0 0 1-.51.239zm-17.45 128a.756.756 0 0 1-.57-.239.788.788 0 0 1-.23-.56c0-.2.077-.37.23-.51a.813.813 0 0 1 .57-.21c.2 0 .37.073.51.219.14.147.21.314.21.501 0 .213-.07.399-.21.56a.653.653 0 0 1-.51.239zm0-16a.76.76 0 0 1-.57-.239.788.788 0 0 1-.23-.56c0-.201.077-.37.23-.51a.808.808 0 0 1 .57-.21c.2 0 .37.073.51.22.14.147.21.313.21.5 0 .213-.07.399-.21.56a.656.656 0 0 1-.51.239zm0-16a.756.756 0 0 1-.57-.239.784.784 0 0 1-.23-.56c0-.201.077-.371.23-.511a.816.816 0 0 1 .57-.209c.2 0 .37.073.51.22.14.147.21.313.21.5 0 .214-.07.4-.21.56a.653.653 0 0 1-.51.239zm0-15.999a.754.754 0 0 1-.57-.241.782.782 0 0 1-.23-.559c0-.2.077-.371.23-.51a.813.813 0 0 1 .57-.21c.2 0 .37.073.51.22.14.146.21.313.21.5 0 .213-.07.4-.21.559a.651.651 0 0 1-.51.241zm0-16.001a.753.753 0 0 1-.57-.24.784.784 0 0 1-.23-.559c0-.201.077-.37.23-.51a.813.813 0 0 1 .57-.21c.2 0 .37.074.51.22.14.146.21.313.21.5 0 .213-.07.399-.21.559a.65.65 0 0 1-.51.24zm0-16a.756.756 0 0 1-.57-.239.788.788 0 0 1-.23-.56c0-.201.077-.371.23-.51a.813.813 0 0 1 .57-.21c.2 0 .37.074.51.219.14.147.21.314.21.501 0 .213-.07.399-.21.56a.653.653 0 0 1-.51.239zm0-15.999a.754.754 0 0 1-.57-.241.784.784 0 0 1-.23-.559c0-.2.077-.37.23-.51a.813.813 0 0 1 .57-.21c.2 0 .37.073.51.219.14.147.21.314.21.501 0 .213-.07.399-.21.559a.651.651 0 0 1-.51.241zm0-16a.758.758 0 0 1-.57-.241.784.784 0 0 1-.23-.559c0-.201.077-.37.23-.51a.813.813 0 0 1 .57-.21c.2 0 .37.073.51.22.14.147.21.313.21.5 0 .213-.07.399-.21.559a.655.655 0 0 1-.51.241zm0-16.001a.76.76 0 0 1-.57-.239.786.786 0 0 1-.23-.56c0-.201.077-.37.23-.511a.816.816 0 0 1 .57-.209c.2 0 .37.073.51.219a.71.71 0 0 1 .21.501c0 .213-.07.4-.21.56a.656.656 0 0 1-.51.239zm-17.45 128a.756.756 0 0 1-.57-.239.788.788 0 0 1-.23-.56c0-.2.077-.37.23-.51a.813.813 0 0 1 .57-.21c.2 0 .37.073.51.219.14.147.21.314.21.501 0 .213-.07.399-.21.56a.653.653 0 0 1-.51.239zm0-16a.76.76 0 0 1-.57-.239.788.788 0 0 1-.23-.56c0-.201.077-.37.23-.51a.808.808 0 0 1 .57-.21c.2 0 .37.073.51.22.14.147.21.313.21.5 0 .213-.07.399-.21.56a.656.656 0 0 1-.51.239zm0-16a.756.756 0 0 1-.57-.239.784.784 0 0 1-.23-.56c0-.201.077-.371.23-.511a.816.816 0 0 1 .57-.209c.2 0 .37.073.51.22.14.147.21.313.21.5 0 .214-.07.4-.21.56a.653.653 0 0 1-.51.239zm0-15.999a.754.754 0 0 1-.57-.241.782.782 0 0 1-.23-.559c0-.2.077-.371.23-.51a.813.813 0 0 1 .57-.21c.2 0 .37.073.51.22.14.146.21.313.21.5 0 .213-.07.4-.21.559a.651.651 0 0 1-.51.241zm0-16.001a.753.753 0 0 1-.57-.24.784.784 0 0 1-.23-.559c0-.201.077-.37.23-.51a.813.813 0 0 1 .57-.21c.2 0 .37.074.51.22.14.146.21.313.21.5 0 .213-.07.399-.21.559a.65.65 0 0 1-.51.24zm0-16a.756.756 0 0 1-.57-.239.788.788 0 0 1-.23-.56c0-.201.077-.371.23-.51a.813.813 0 0 1 .57-.21c.2 0 .37.074.51.219.14.147.21.314.21.501 0 .213-.07.399-.21.56a.653.653 0 0 1-.51.239zm0-15.999a.754.754 0 0 1-.57-.241.784.784 0 0 1-.23-.559c0-.2.077-.37.23-.51a.813.813 0 0 1 .57-.21c.2 0 .37.073.51.219.14.147.21.314.21.501 0 .213-.07.399-.21.559a.651.651 0 0 1-.51.241zm0-16a.758.758 0 0 1-.57-.241.784.784 0 0 1-.23-.559c0-.201.077-.37.23-.51a.813.813 0 0 1 .57-.21c.2 0 .37.073.51.22.14.147.21.313.21.5 0 .213-.07.399-.21.559a.655.655 0 0 1-.51.241zm0-16.001a.76.76 0 0 1-.57-.239.786.786 0 0 1-.23-.56c0-.201.077-.37.23-.511a.816.816 0 0 1 .57-.209c.2 0 .37.073.51.219a.71.71 0 0 1 .21.501c0 .213-.07.4-.21.56a.656.656 0 0 1-.51.239zm-17.45 128a.756.756 0 0 1-.57-.239.788.788 0 0 1-.23-.56c0-.2.077-.37.23-.51a.813.813 0 0 1 .57-.21c.2 0 .37.073.51.219.14.147.21.314.21.501 0 .213-.07.399-.21.56a.653.653 0 0 1-.51.239zm0-16a.76.76 0 0 1-.57-.239.788.788 0 0 1-.23-.56c0-.201.077-.37.23-.51a.808.808 0 0 1 .57-.21c.2 0 .37.073.51.22.14.147.21.313.21.5 0 .213-.07.399-.21.56a.656.656 0 0 1-.51.239zm0-16a.756.756 0 0 1-.57-.239.784.784 0 0 1-.23-.56c0-.201.077-.371.23-.511a.816.816 0 0 1 .57-.209c.2 0 .37.073.51.22.14.147.21.313.21.5 0 .214-.07.4-.21.56a.653.653 0 0 1-.51.239zm0-15.999a.754.754 0 0 1-.57-.241.782.782 0 0 1-.23-.559c0-.2.077-.371.23-.51a.813.813 0 0 1 .57-.21c.2 0 .37.073.51.22.14.146.21.313.21.5 0 .213-.07.4-.21.559a.651.651 0 0 1-.51.241zm0-16.001a.753.753 0 0 1-.57-.24.784.784 0 0 1-.23-.559c0-.201.077-.37.23-.51a.813.813 0 0 1 .57-.21c.2 0 .37.074.51.22.14.146.21.313.21.5 0 .213-.07.399-.21.559a.65.65 0 0 1-.51.24zm0-16a.756.756 0 0 1-.57-.239.788.788 0 0 1-.23-.56c0-.201.077-.371.23-.51a.813.813 0 0 1 .57-.21c.2 0 .37.074.51.219.14.147.21.314.21.501 0 .213-.07.399-.21.56a.653.653 0 0 1-.51.239zm0-15.999a.754.754 0 0 1-.57-.241.784.784 0 0 1-.23-.559c0-.2.077-.37.23-.51a.813.813 0 0 1 .57-.21c.2 0 .37.073.51.219.14.147.21.314.21.501 0 .213-.07.399-.21.559a.651.651 0 0 1-.51.241zm0-16a.758.758 0 0 1-.57-.241.784.784 0 0 1-.23-.559c0-.201.077-.37.23-.51a.813.813 0 0 1 .57-.21c.2 0 .37.073.51.22.14.147.21.313.21.5 0 .213-.07.399-.21.559a.655.655 0 0 1-.51.241zm0-16.001a.76.76 0 0 1-.57-.239.786.786 0 0 1-.23-.56c0-.201.077-.37.23-.511a.816.816 0 0 1 .57-.209c.2 0 .37.073.51.219a.71.71 0 0 1 .21.501c0 .213-.07.4-.21.56a.656.656 0 0 1-.51.239zm-17.45 128a.756.756 0 0 1-.57-.239.788.788 0 0 1-.23-.56c0-.2.077-.37.23-.51a.813.813 0 0 1 .57-.21c.2 0 .37.073.51.219.14.147.21.314.21.501 0 .213-.07.399-.21.56a.653.653 0 0 1-.51.239zm0-16a.76.76 0 0 1-.57-.239.788.788 0 0 1-.23-.56c0-.201.077-.37.23-.51a.808.808 0 0 1 .57-.21c.2 0 .37.073.51.22.14.147.21.313.21.5 0 .213-.07.399-.21.56a.656.656 0 0 1-.51.239zm0-16a.756.756 0 0 1-.57-.239.784.784 0 0 1-.23-.56c0-.201.077-.371.23-.511a.816.816 0 0 1 .57-.209c.2 0 .37.073.51.22.14.147.21.313.21.5 0 .214-.07.4-.21.56a.653.653 0 0 1-.51.239zm0-15.999a.754.754 0 0 1-.57-.241.782.782 0 0 1-.23-.559c0-.2.077-.371.23-.51a.813.813 0 0 1 .57-.21c.2 0 .37.073.51.22.14.146.21.313.21.5 0 .213-.07.4-.21.559a.651.651 0 0 1-.51.241zm0-16.001a.753.753 0 0 1-.57-.24.784.784 0 0 1-.23-.559c0-.201.077-.37.23-.51a.813.813 0 0 1 .57-.21c.2 0 .37.074.51.22.14.146.21.313.21.5 0 .213-.07.399-.21.559a.65.65 0 0 1-.51.24zm0-16a.756.756 0 0 1-.57-.239.788.788 0 0 1-.23-.56c0-.201.077-.371.23-.51a.813.813 0 0 1 .57-.21c.2 0 .37.074.51.219.14.147.21.314.21.501 0 .213-.07.399-.21.56a.653.653 0 0 1-.51.239zm0-15.999a.754.754 0 0 1-.57-.241.784.784 0 0 1-.23-.559c0-.2.077-.37.23-.51a.813.813 0 0 1 .57-.21c.2 0 .37.073.51.219.14.147.21.314.21.501 0 .213-.07.399-.21.559a.651.651 0 0 1-.51.241zm0-16a.758.758 0 0 1-.57-.241.784.784 0 0 1-.23-.559c0-.201.077-.37.23-.51a.813.813 0 0 1 .57-.21c.2 0 .37.073.51.22.14.147.21.313.21.5 0 .213-.07.399-.21.559a.655.655 0 0 1-.51.241zm0-16.001a.76.76 0 0 1-.57-.239.786.786 0 0 1-.23-.56c0-.201.077-.37.23-.511a.816.816 0 0 1 .57-.209c.2 0 .37.073.51.219a.71.71 0 0 1 .21.501c0 .213-.07.4-.21.56a.656.656 0 0 1-.51.239zm-17.45 128a.756.756 0 0 1-.57-.239.788.788 0 0 1-.23-.56c0-.2.077-.37.23-.51a.813.813 0 0 1 .57-.21c.2 0 .37.073.51.219.14.147.21.314.21.501 0 .213-.07.399-.21.56a.653.653 0 0 1-.51.239zm0-16a.76.76 0 0 1-.57-.239.788.788 0 0 1-.23-.56c0-.201.077-.37.23-.51a.808.808 0 0 1 .57-.21c.2 0 .37.073.51.22.14.147.21.313.21.5 0 .213-.07.399-.21.56a.656.656 0 0 1-.51.239zm0-16a.756.756 0 0 1-.57-.239.784.784 0 0 1-.23-.56c0-.201.077-.371.23-.511a.816.816 0 0 1 .57-.209c.2 0 .37.073.51.22.14.147.21.313.21.5 0 .214-.07.4-.21.56a.653.653 0 0 1-.51.239zm0-15.999a.754.754 0 0 1-.57-.241.782.782 0 0 1-.23-.559c0-.2.077-.371.23-.51a.813.813 0 0 1 .57-.21c.2 0 .37.073.51.22.14.146.21.313.21.5 0 .213-.07.4-.21.559a.651.651 0 0 1-.51.241zm0-16.001a.753.753 0 0 1-.57-.24.784.784 0 0 1-.23-.559c0-.201.077-.37.23-.51a.813.813 0 0 1 .57-.21c.2 0 .37.074.51.22.14.146.21.313.21.5 0 .213-.07.399-.21.559a.65.65 0 0 1-.51.24zm0-16a.756.756 0 0 1-.57-.239.788.788 0 0 1-.23-.56c0-.201.077-.371.23-.51a.813.813 0 0 1 .57-.21c.2 0 .37.074.51.219.14.147.21.314.21.501 0 .213-.07.399-.21.56a.653.653 0 0 1-.51.239zm0-15.999a.754.754 0 0 1-.57-.241.784.784 0 0 1-.23-.559c0-.2.077-.37.23-.51a.813.813 0 0 1 .57-.21c.2 0 .37.073.51.219.14.147.21.314.21.501 0 .213-.07.399-.21.559a.651.651 0 0 1-.51.241zm0-16a.758.758 0 0 1-.57-.241.784.784 0 0 1-.23-.559c0-.201.077-.37.23-.51a.813.813 0 0 1 .57-.21c.2 0 .37.073.51.22.14.147.21.313.21.5 0 .213-.07.399-.21.559a.655.655 0 0 1-.51.241zm0-16.001a.76.76 0 0 1-.57-.239.786.786 0 0 1-.23-.56c0-.201.077-.37.23-.511a.816.816 0 0 1 .57-.209c.2 0 .37.073.51.219a.71.71 0 0 1 .21.501c0 .213-.07.4-.21.56a.656.656 0 0 1-.51.239zm-17.45 128a.756.756 0 0 1-.57-.239.788.788 0 0 1-.23-.56c0-.2.077-.37.23-.51a.813.813 0 0 1 .57-.21c.2 0 .37.073.51.219.14.147.21.314.21.501 0 .213-.07.399-.21.56a.653.653 0 0 1-.51.239zm0-16a.76.76 0 0 1-.57-.239.788.788 0 0 1-.23-.56c0-.201.077-.37.23-.51a.808.808 0 0 1 .57-.21c.2 0 .37.073.51.22.14.147.21.313.21.5 0 .213-.07.399-.21.56a.656.656 0 0 1-.51.239zm0-16a.756.756 0 0 1-.57-.239.784.784 0 0 1-.23-.56c0-.201.077-.371.23-.511a.816.816 0 0 1 .57-.209c.2 0 .37.073.51.22.14.147.21.313.21.5 0 .214-.07.4-.21.56a.653.653 0 0 1-.51.239zm0-15.999a.754.754 0 0 1-.57-.241.782.782 0 0 1-.23-.559c0-.2.077-.371.23-.51a.813.813 0 0 1 .57-.21c.2 0 .37.073.51.22.14.146.21.313.21.5 0 .213-.07.4-.21.559a.651.651 0 0 1-.51.241zm0-16.001a.753.753 0 0 1-.57-.24.784.784 0 0 1-.23-.559c0-.201.077-.37.23-.51a.813.813 0 0 1 .57-.21c.2 0 .37.074.51.22.14.146.21.313.21.5 0 .213-.07.399-.21.559a.65.65 0 0 1-.51.24zm0-16a.756.756 0 0 1-.57-.239.788.788 0 0 1-.23-.56c0-.201.077-.371.23-.51a.813.813 0 0 1 .57-.21c.2 0 .37.074.51.219.14.147.21.314.21.501 0 .213-.07.399-.21.56a.653.653 0 0 1-.51.239zm0-15.999a.754.754 0 0 1-.57-.241.784.784 0 0 1-.23-.559c0-.2.077-.37.23-.51a.813.813 0 0 1 .57-.21c.2 0 .37.073.51.219.14.147.21.314.21.501 0 .213-.07.399-.21.559a.651.651 0 0 1-.51.241zm0-16a.758.758 0 0 1-.57-.241.784.784 0 0 1-.23-.559c0-.201.077-.37.23-.51a.813.813 0 0 1 .57-.21c.2 0 .37.073.51.22.14.147.21.313.21.5 0 .213-.07.399-.21.559a.655.655 0 0 1-.51.241zm0-16.001a.76.76 0 0 1-.57-.239.786.786 0 0 1-.23-.56c0-.201.077-.37.23-.511a.816.816 0 0 1 .57-.209c.2 0 .37.073.51.219a.71.71 0 0 1 .21.501c0 .213-.07.4-.21.56a.656.656 0 0 1-.51.239zm-17.45 128a.756.756 0 0 1-.57-.239.788.788 0 0 1-.23-.56c0-.2.077-.37.23-.51a.813.813 0 0 1 .57-.21c.2 0 .37.073.51.219.14.147.21.314.21.501 0 .213-.07.399-.21.56a.653.653 0 0 1-.51.239zm0-16a.76.76 0 0 1-.57-.239.788.788 0 0 1-.23-.56c0-.201.077-.37.23-.51a.808.808 0 0 1 .57-.21c.2 0 .37.073.51.22.14.147.21.313.21.5 0 .213-.07.399-.21.56a.656.656 0 0 1-.51.239zm0-16a.756.756 0 0 1-.57-.239.784.784 0 0 1-.23-.56c0-.201.077-.371.23-.511a.816.816 0 0 1 .57-.209c.2 0 .37.073.51.22.14.147.21.313.21.5 0 .214-.07.4-.21.56a.653.653 0 0 1-.51.239zm0-15.999a.754.754 0 0 1-.57-.241.782.782 0 0 1-.23-.559c0-.2.077-.371.23-.51a.813.813 0 0 1 .57-.21c.2 0 .37.073.51.22.14.146.21.313.21.5 0 .213-.07.4-.21.559a.651.651 0 0 1-.51.241zm0-16.001a.753.753 0 0 1-.57-.24.784.784 0 0 1-.23-.559c0-.201.077-.37.23-.51a.813.813 0 0 1 .57-.21c.2 0 .37.074.51.22.14.146.21.313.21.5 0 .213-.07.399-.21.559a.65.65 0 0 1-.51.24zm0-16a.756.756 0 0 1-.57-.239.788.788 0 0 1-.23-.56c0-.201.077-.371.23-.51a.813.813 0 0 1 .57-.21c.2 0 .37.074.51.219.14.147.21.314.21.501 0 .213-.07.399-.21.56a.653.653 0 0 1-.51.239zm0-15.999a.754.754 0 0 1-.57-.241.784.784 0 0 1-.23-.559c0-.2.077-.37.23-.51a.813.813 0 0 1 .57-.21c.2 0 .37.073.51.219.14.147.21.314.21.501 0 .213-.07.399-.21.559a.651.651 0 0 1-.51.241zm0-16a.758.758 0 0 1-.57-.241.784.784 0 0 1-.23-.559c0-.201.077-.37.23-.51a.813.813 0 0 1 .57-.21c.2 0 .37.073.51.22.14.147.21.313.21.5 0 .213-.07.399-.21.559a.655.655 0 0 1-.51.241zm0-16.001a.76.76 0 0 1-.57-.239.786.786 0 0 1-.23-.56c0-.201.077-.37.23-.511a.816.816 0 0 1 .57-.209c.2 0 .37.073.51.219a.71.71 0 0 1 .21.501c0 .213-.07.4-.21.56a.656.656 0 0 1-.51.239zm-17.45 128a.756.756 0 0 1-.57-.239.788.788 0 0 1-.23-.56c0-.2.077-.37.23-.51a.813.813 0 0 1 .57-.21c.2 0 .37.073.51.219.14.147.21.314.21.501 0 .213-.07.399-.21.56a.653.653 0 0 1-.51.239zm0-16a.76.76 0 0 1-.57-.239.788.788 0 0 1-.23-.56c0-.201.077-.37.23-.51a.808.808 0 0 1 .57-.21c.2 0 .37.073.51.22.14.147.21.313.21.5 0 .213-.07.399-.21.56a.656.656 0 0 1-.51.239zm0-16a.756.756 0 0 1-.57-.239.784.784 0 0 1-.23-.56c0-.201.077-.371.23-.511a.816.816 0 0 1 .57-.209c.2 0 .37.073.51.22.14.147.21.313.21.5 0 .214-.07.4-.21.56a.653.653 0 0 1-.51.239zm0-15.999a.754.754 0 0 1-.57-.241.782.782 0 0 1-.23-.559c0-.2.077-.371.23-.51a.813.813 0 0 1 .57-.21c.2 0 .37.073.51.22.14.146.21.313.21.5 0 .213-.07.4-.21.559a.651.651 0 0 1-.51.241zm0-16.001a.753.753 0 0 1-.57-.24.784.784 0 0 1-.23-.559c0-.201.077-.37.23-.51a.813.813 0 0 1 .57-.21c.2 0 .37.074.51.22.14.146.21.313.21.5 0 .213-.07.399-.21.559a.65.65 0 0 1-.51.24zm0-16a.756.756 0 0 1-.57-.239.788.788 0 0 1-.23-.56c0-.201.077-.371.23-.51a.813.813 0 0 1 .57-.21c.2 0 .37.074.51.219.14.147.21.314.21.501 0 .213-.07.399-.21.56a.653.653 0 0 1-.51.239zm0-15.999a.754.754 0 0 1-.57-.241.784.784 0 0 1-.23-.559c0-.2.077-.37.23-.51a.813.813 0 0 1 .57-.21c.2 0 .37.073.51.219.14.147.21.314.21.501 0 .213-.07.399-.21.559a.651.651 0 0 1-.51.241zm0-16a.758.758 0 0 1-.57-.241.784.784 0 0 1-.23-.559c0-.201.077-.37.23-.51a.813.813 0 0 1 .57-.21c.2 0 .37.073.51.22.14.147.21.313.21.5 0 .213-.07.399-.21.559a.655.655 0 0 1-.51.241zm0-16.001a.76.76 0 0 1-.57-.239.786.786 0 0 1-.23-.56c0-.201.077-.37.23-.511a.816.816 0 0 1 .57-.209c.2 0 .37.073.51.219a.71.71 0 0 1 .21.501c0 .213-.07.4-.21.56a.656.656 0 0 1-.51.239zm-17.45 128a.756.756 0 0 1-.57-.239.788.788 0 0 1-.23-.56c0-.2.077-.37.23-.51a.813.813 0 0 1 .57-.21c.2 0 .37.073.51.219.14.147.21.314.21.501 0 .213-.07.399-.21.56a.653.653 0 0 1-.51.239zm0-16a.76.76 0 0 1-.57-.239.788.788 0 0 1-.23-.56c0-.201.077-.37.23-.51a.808.808 0 0 1 .57-.21c.2 0 .37.073.51.22.14.147.21.313.21.5 0 .213-.07.399-.21.56a.656.656 0 0 1-.51.239zm0-16a.756.756 0 0 1-.57-.239.784.784 0 0 1-.23-.56c0-.201.077-.371.23-.511a.816.816 0 0 1 .57-.209c.2 0 .37.073.51.22.14.147.21.313.21.5 0 .214-.07.4-.21.56a.653.653 0 0 1-.51.239zm0-15.999a.754.754 0 0 1-.57-.241.782.782 0 0 1-.23-.559c0-.2.077-.371.23-.51a.813.813 0 0 1 .57-.21c.2 0 .37.073.51.22.14.146.21.313.21.5 0 .213-.07.4-.21.559a.651.651 0 0 1-.51.241zm0-16.001a.753.753 0 0 1-.57-.24.784.784 0 0 1-.23-.559c0-.201.077-.37.23-.51a.813.813 0 0 1 .57-.21c.2 0 .37.074.51.22.14.146.21.313.21.5 0 .213-.07.399-.21.559a.65.65 0 0 1-.51.24zm0-16a.756.756 0 0 1-.57-.239.788.788 0 0 1-.23-.56c0-.201.077-.371.23-.51a.813.813 0 0 1 .57-.21c.2 0 .37.074.51.219.14.147.21.314.21.501 0 .213-.07.399-.21.56a.653.653 0 0 1-.51.239zm0-15.999a.754.754 0 0 1-.57-.241.784.784 0 0 1-.23-.559c0-.2.077-.37.23-.51a.813.813 0 0 1 .57-.21c.2 0 .37.073.51.219.14.147.21.314.21.501 0 .213-.07.399-.21.559a.651.651 0 0 1-.51.241zm0-16a.758.758 0 0 1-.57-.241.784.784 0 0 1-.23-.559c0-.201.077-.37.23-.51a.813.813 0 0 1 .57-.21c.2 0 .37.073.51.22.14.147.21.313.21.5 0 .213-.07.399-.21.559a.655.655 0 0 1-.51.241zm0-16.001a.76.76 0 0 1-.57-.239.786.786 0 0 1-.23-.56c0-.201.077-.37.23-.511a.816.816 0 0 1 .57-.209c.2 0 .37.073.51.219a.71.71 0 0 1 .21.501c0 .213-.07.4-.21.56a.656.656 0 0 1-.51.239zm-17.45 128a.756.756 0 0 1-.57-.239.788.788 0 0 1-.23-.56c0-.2.077-.37.23-.51a.813.813 0 0 1 .57-.21c.2 0 .37.073.51.219.14.147.21.314.21.501 0 .213-.07.399-.21.56a.653.653 0 0 1-.51.239zm0-16a.76.76 0 0 1-.57-.239.788.788 0 0 1-.23-.56c0-.201.077-.37.23-.51a.808.808 0 0 1 .57-.21c.2 0 .37.073.51.22.14.147.21.313.21.5 0 .213-.07.399-.21.56a.656.656 0 0 1-.51.239zm0-16a.756.756 0 0 1-.57-.239.784.784 0 0 1-.23-.56c0-.201.077-.371.23-.511a.816.816 0 0 1 .57-.209c.2 0 .37.073.51.22.14.147.21.313.21.5 0 .214-.07.4-.21.56a.653.653 0 0 1-.51.239zm0-15.999a.754.754 0 0 1-.57-.241.782.782 0 0 1-.23-.559c0-.2.077-.371.23-.51a.813.813 0 0 1 .57-.21c.2 0 .37.073.51.22.14.146.21.313.21.5 0 .213-.07.4-.21.559a.651.651 0 0 1-.51.241zm0-16.001a.753.753 0 0 1-.57-.24.784.784 0 0 1-.23-.559c0-.201.077-.37.23-.51a.813.813 0 0 1 .57-.21c.2 0 .37.074.51.22.14.146.21.313.21.5 0 .213-.07.399-.21.559a.65.65 0 0 1-.51.24zm0-16a.756.756 0 0 1-.57-.239.788.788 0 0 1-.23-.56c0-.201.077-.371.23-.51a.813.813 0 0 1 .57-.21c.2 0 .37.074.51.219.14.147.21.314.21.501 0 .213-.07.399-.21.56a.653.653 0 0 1-.51.239zm0-15.999a.754.754 0 0 1-.57-.241.784.784 0 0 1-.23-.559c0-.2.077-.37.23-.51a.813.813 0 0 1 .57-.21c.2 0 .37.073.51.219.14.147.21.314.21.501 0 .213-.07.399-.21.559a.651.651 0 0 1-.51.241zm0-16a.758.758 0 0 1-.57-.241.784.784 0 0 1-.23-.559c0-.201.077-.37.23-.51a.813.813 0 0 1 .57-.21c.2 0 .37.073.51.22.14.147.21.313.21.5 0 .213-.07.399-.21.559a.655.655 0 0 1-.51.241zm0-16.001a.76.76 0 0 1-.57-.239.786.786 0 0 1-.23-.56c0-.201.077-.37.23-.511a.816.816 0 0 1 .57-.209c.2 0 .37.073.51.219a.71.71 0 0 1 .21.501c0 .213-.07.4-.21.56a.656.656 0 0 1-.51.239zm-17.45 128a.756.756 0 0 1-.57-.239.788.788 0 0 1-.23-.56c0-.2.077-.37.23-.51a.813.813 0 0 1 .57-.21c.2 0 .37.073.51.219.14.147.21.314.21.501 0 .213-.07.399-.21.56a.653.653 0 0 1-.51.239zm0-16a.76.76 0 0 1-.57-.239.788.788 0 0 1-.23-.56c0-.201.077-.37.23-.51a.808.808 0 0 1 .57-.21c.2 0 .37.073.51.22.14.147.21.313.21.5 0 .213-.07.399-.21.56a.656.656 0 0 1-.51.239zm0-16a.756.756 0 0 1-.57-.239.784.784 0 0 1-.23-.56c0-.201.077-.371.23-.511a.816.816 0 0 1 .57-.209c.2 0 .37.073.51.22.14.147.21.313.21.5 0 .214-.07.4-.21.56a.653.653 0 0 1-.51.239zm0-15.999a.754.754 0 0 1-.57-.241.782.782 0 0 1-.23-.559c0-.2.077-.371.23-.51a.813.813 0 0 1 .57-.21c.2 0 .37.073.51.22.14.146.21.313.21.5 0 .213-.07.4-.21.559a.651.651 0 0 1-.51.241zm0-16.001a.753.753 0 0 1-.57-.24.784.784 0 0 1-.23-.559c0-.201.077-.37.23-.51a.813.813 0 0 1 .57-.21c.2 0 .37.074.51.22.14.146.21.313.21.5 0 .213-.07.399-.21.559a.65.65 0 0 1-.51.24zm0-16a.756.756 0 0 1-.57-.239.788.788 0 0 1-.23-.56c0-.201.077-.371.23-.51a.813.813 0 0 1 .57-.21c.2 0 .37.074.51.219.14.147.21.314.21.501 0 .213-.07.399-.21.56a.653.653 0 0 1-.51.239zm0-15.999a.754.754 0 0 1-.57-.241.784.784 0 0 1-.23-.559c0-.2.077-.37.23-.51a.813.813 0 0 1 .57-.21c.2 0 .37.073.51.219.14.147.21.314.21.501 0 .213-.07.399-.21.559a.651.651 0 0 1-.51.241zm0-16a.758.758 0 0 1-.57-.241.784.784 0 0 1-.23-.559c0-.201.077-.37.23-.51a.813.813 0 0 1 .57-.21c.2 0 .37.073.51.22.14.147.21.313.21.5 0 .213-.07.399-.21.559a.655.655 0 0 1-.51.241zm0-16.001a.76.76 0 0 1-.57-.239.786.786 0 0 1-.23-.56c0-.201.077-.37.23-.511A.816.816 0 0 1 .88.393c.2 0 .37.073.51.219a.71.71 0 0 1 .21.501c0 .213-.07.4-.21.56a.656.656 0 0 1-.51.239zm942.3 126.481c.2 0 .37.073.51.219.14.147.21.314.21.501 0 .213-.07.399-.21.56a.653.653 0 0 1-.51.239.756.756 0 0 1-.57-.239.788.788 0 0 1-.23-.56c0-.2.077-.37.23-.51a.813.813 0 0 1 .57-.21z"/>
</svg>
