<svg xmlns="http://www.w3.org/2000/svg" id="Layer_1" viewBox="0 0 508 508">
    <style>
        .st0{fill:#165ec4}.st1{fill:#fff}.st2{fill:#e1edff}
    </style>
    <circle cx="254" cy="254" r="254" class="st0"/>
    <path d="M424.4 338.4L264.8 92.8c-5.2-8-16.8-8-21.6 0L83.6 338.4c-5.6 8.8.4 20 10.8 20H414c10 .4 16.4-11.2 10.4-20z" class="st1"/>
    <path d="M117.6 333.2l136.4-210 136.4 210z" class="st2"/>
    <path d="M262 276l2.8-90h-21.6l2.8 90zM254 286.4c-7.2 0-12.8 5.6-12.8 13.2s5.6 13.2 12.8 13.2c7.2 0 12.8-5.6 12.8-13.2 0-8-5.2-13.2-12.8-13.2z" class="st0"/>
</svg>
