<svg xmlns="http://www.w3.org/2000/svg" width="512" height="512" viewBox="0 0 512 512">
    <path fill="#FFF" d="M284.968 240.071c11.06-8.638 18.193-22.085 18.193-37.175V168.778c0-26.004-21.156-47.16-47.161-47.16-26.004 0-47.16 21.156-47.16 47.16v34.118c0 15.089 7.132 28.536 18.193 37.174-35.344 12.312-61.505 45.344-61.505 82.619v26.635a7.514 7.514 0 0 0 7.514 7.514H338.96a7.514 7.514 0 0 0 7.514-7.514v-26.635c-.001-37.275-26.163-70.307-61.506-82.618zm-58.571-83.786c4.885-11.528 16.315-19.637 29.604-19.637 13.289 0 24.719 8.108 29.604 19.637a31.96 31.96 0 0 1 2.53 12.495v8.324c-12.136-4.028-17.239-16.72-17.476-17.327a7.514 7.514 0 0 0-13.639-.906c-.095.177-9.015 16.176-33.15 19.022v-9.114h-.001a31.904 31.904 0 0 1 2.528-12.494zm-2.53 46.613v-9.895c19.276-1.799 31.647-10.308 38.721-17.309 4.919 6.719 13.136 14.545 25.545 16.918v10.286c0 17.262-13.684 31.383-30.774 32.099-.419-.011-.837-.027-1.256-.033a7.005 7.005 0 0 0-.205 0c-.42.006-.838.021-1.256.033-17.091-.716-30.775-14.837-30.775-32.099zm28.59 70.574h7.086l8.716 37.835L256 322.527l-12.259-11.22 8.716-37.835zm-5.385-22.776c.575-.079 1.148-.172 1.724-.238l.021-.002a76.088 76.088 0 0 1 3.364-.301c.175-.012.351-.021.526-.032.755-.046 1.511-.068 2.266-.09.343.007.682.026 1.027.026.345 0 .683-.019 1.026-.026a74.469 74.469 0 0 1 2.791.122 73.133 73.133 0 0 1 3.384.303c.577.066 1.15.159 1.726.238l-3.988 7.748h-9.879l-3.988-7.748zm84.374 91.116H180.555V322.69c0-18.869 8.071-36.928 22.726-50.853 8.266-7.854 18.171-13.812 28.758-17.512l6.499 12.626-10.425 45.253a7.514 7.514 0 0 0 2.249 7.229l20.565 18.822a7.495 7.495 0 0 0 5.073 1.971 7.49 7.49 0 0 0 5.072-1.971l20.565-18.822a7.513 7.513 0 0 0 2.249-7.229l-10.425-45.253 6.498-12.625c10.588 3.701 20.492 9.659 28.759 17.512 14.655 13.924 22.726 31.983 22.726 50.852v19.122z"/>
    <path fill="#FFF" d="M432.633 112.738a7.515 7.515 0 0 0-7.424-6.348c-70.641 0-164.402-55.808-165.34-56.372a7.517 7.517 0 0 0-7.739 0c-.939.564-94.63 56.372-165.338 56.372a7.514 7.514 0 0 0-7.423 6.348c-.146.933-3.589 23.222-3.545 56.806a7.513 7.513 0 0 0 7.513 7.504h.01a7.513 7.513 0 0 0 7.504-7.524c-.029-22.221 1.557-39.532 2.56-48.247 30.309-1.263 66.792-11.072 108.579-29.201 25.816-11.201 45.901-22.274 54.01-26.918 8.108 4.643 28.194 15.717 54.01 26.918 41.785 18.13 78.269 27.938 108.575 29.203 2.133 18.639 6.895 76.681-7.072 139.365a7.514 7.514 0 1 0 14.669 3.269c17.512-78.597 6.911-148.248 6.451-151.175zM414.589 279.715a7.516 7.516 0 0 0-9.359 5.032c-12.245 40.728-31.342 75.095-56.761 102.145-24.732 26.319-55.833 46.02-92.468 58.583C199.195 426 156.238 389.67 128.296 337.461c-20.878-39.009-33.173-86.004-36.545-139.68a7.515 7.515 0 0 0-14.999.943c3.508 55.842 16.391 104.905 38.294 145.829 30.205 56.437 76.83 95.459 138.583 115.983a7.495 7.495 0 0 0 4.739 0c40.06-13.314 74.058-34.628 101.05-63.351 27.027-28.76 47.282-65.134 60.202-108.11a7.513 7.513 0 0 0-5.031-9.36z"/>
    <path fill="#FFF" d="M475.271 78.267a7.514 7.514 0 0 0-7.423-6.348c-88.978 0-206.8-70.139-207.979-70.847a7.517 7.517 0 0 0-7.739 0c-1.18.709-119.001 70.848-207.979 70.848a7.514 7.514 0 0 0-7.423 6.348c-.549 3.495-13.224 86.714 6.687 182.221 11.752 56.369 32.514 105.12 61.708 144.899 36.632 49.913 86.596 85.654 148.505 106.23a7.505 7.505 0 0 0 4.74 0c61.909-20.576 111.874-56.317 148.505-106.23 29.194-39.779 49.956-88.529 61.708-144.899 19.916-95.508 7.24-178.726 6.69-182.222zm-21.399 179.154c-11.31 54.25-31.199 101.041-59.112 139.074-34.286 46.716-80.959 80.371-138.76 100.062-57.719-19.665-104.35-53.258-138.62-99.872-27.915-37.968-47.82-84.683-59.165-138.847-16.395-78.277-9.962-149.922-7.458-171.005 38.021-1.286 84.02-13.538 136.87-36.468 33.303-14.449 58.954-28.72 68.374-34.146 9.419 5.426 35.071 19.698 68.373 34.146 52.851 22.93 98.852 35.181 136.874 36.468 2.506 21.031 8.932 92.37-7.376 170.588z"/>
</svg>
