<svg xmlns="http://www.w3.org/2000/svg" id="Capa_1" viewBox="0 0 512 512">
    <style>
        .st0{fill:#165ec4}
    </style>
    <path d="M149.1 283.3c0-13.8-9.6-22-26.5-22-6.9 0-11.6.7-14 1.3v44.3c2.9.7 6.5.9 11.3.9 18.1 0 29.2-9.1 29.2-24.5zM253.7 261.8c-7.6 0-12.5.7-15.4 1.3v98.1c2.9.7 7.6.7 11.8.7 30.7.2 50.7-16.7 50.7-52.5.2-31.2-18-47.6-47.1-47.6z" class="st0"/>
    <path d="M441.7 410.8H454c15.8 0 28.7-12.9 28.7-28.7V232.8c0-15.9-12.9-28.7-28.7-28.7h-12.3v-80.3c0-.4-.1-.7-.1-1.1 0-2.4-.8-4.7-2.4-6.5L340.5 3.4s-.1 0-.1-.1c-.6-.7-1.3-1.2-2-1.7-.2-.1-.4-.3-.7-.4-.6-.3-1.3-.6-2-.8-.2-.1-.4-.1-.5-.2-.7-.1-1.5-.2-2.2-.2H90.4C79.3 0 70.3 9 70.3 20.1v184.1H58c-15.8 0-28.7 12.8-28.7 28.7v149.2c0 15.8 12.9 28.7 28.7 28.7h12.3M90.4 20.1H323v102.7c0 5.5 4.5 10 10 10h88.7v71.3H90.4v-184zm246.4 288.2c0 28.7-10.5 48.5-24.9 60.7-15.8 13.1-39.8 19.3-69.2 19.3-17.6 0-30-1.1-38.5-2.2V238.9c12.5-2 28.7-3.1 45.8-3.1 28.5 0 46.9 5.1 61.4 16 15.6 11.5 25.4 30 25.4 56.5zM75 386.8V238.9c10.4-1.8 25.1-3.1 45.8-3.1 20.9 0 35.8 4 45.8 12 9.6 7.6 16 20 16 34.7s-4.9 27.1-13.8 35.6c-11.6 10.9-28.7 15.8-48.7 15.8-4.4 0-8.5-.2-11.6-.7v53.6H75zm375.7-122.1h-57.6V299H447v27.6h-53.8v60.3h-34v-150h91.6v27.8h-.1z" class="st0"/>
</svg>
