<svg xmlns="http://www.w3.org/2000/svg" id="Bold" viewBox="0 0 512 512">
    <style>
        .st0{fill:#28c117}
    </style>
    <path d="M448 21.3H64c-35.3 0-64 28.7-64 64v341.3c0 35.3 28.7 64 64 64h384c35.3 0 64-28.7 64-64V85.3c0-35.3-28.7-64-64-64zm21.3 405.4c0 11.8-9.6 21.3-21.3 21.3H64c-11.8 0-21.3-9.6-21.3-21.3V128h426.7v298.7z" class="st0"/>
    <path d="M182.6 405.3h103.9c9.6 0 18.7-3.8 25.6-10.6l40-40c6.7-6.7 10.6-16 10.6-25.6V203.9c0-18.3-14.9-33.3-33.3-33.3H182.6c-18.3 0-33.3 14.9-33.3 33.3V372c0 18.4 15 33.3 33.3 33.3zm20-129.6c6.8-5.7 16.9-4.7 22.5 2l14.8 17.7 47-55.5c5.7-6.8 15.8-7.6 22.5-1.9 6.7 5.7 7.6 15.8 1.9 22.5l-59.3 70c-3.1 3.6-7.5 5.7-12.2 5.7-5.4-.4-9.2-2.1-12.3-5.7l-27-32.3c-5.6-6.7-4.7-16.8 2.1-22.5z" class="st0"/>
</svg>
