<svg xmlns="http://www.w3.org/2000/svg" width="512" height="512" viewBox="0 0 511.999 511.999">
    <path fill="#FFF" d="M460.811 172.156a181.696 181.696 0 0 0-23.263-20.121l11.16-17.141 8.586 5.98a17.599 17.599 0 0 0 10.106 3.173c5.616 0 11.14-2.646 14.586-7.592 2.696-3.882 3.72-8.596 2.889-13.269-.841-4.673-3.436-8.727-7.318-11.434l-46.79-32.558c-8.028-5.585-19.097-3.598-24.692 4.43-2.696 3.882-3.72 8.596-2.889 13.258.841 4.673 3.436 8.738 7.318 11.434l9.275 6.457-12.671 19.452c-15.985-7.339-33.045-12.295-50.723-14.677V73.762H382.7c10.907 0 19.766-8.869 19.766-19.766 0-10.897-8.859-19.766-19.766-19.766h-60.504c-4.196 0-7.602 3.406-7.602 7.602s3.406 7.602 7.602 7.602H382.7c2.473 0 4.561 2.088 4.561 4.561s-2.088 4.561-4.561 4.561h-96.296c-2.473 0-4.561-2.088-4.561-4.561s2.088-4.561 4.561-4.561h5.382c4.196 0 7.602-3.406 7.602-7.602s-3.406-7.602-7.602-7.602h-5.382c-10.897 0-19.766 8.869-19.766 19.766 0 10.897 8.869 19.766 19.766 19.766h26.314v45.178c-78.447 8.361-141.098 66.986-156.719 141.788h-84.03a7.605 7.605 0 0 0-7.602 7.602 7.598 7.598 0 0 0 7.602 7.602h81.517a180.75 180.75 0 0 0-1.277 25.169H32.437a7.599 7.599 0 0 0-7.602 7.602 7.605 7.605 0 0 0 7.602 7.602H153.11a180.012 180.012 0 0 0 4.369 25.159H7.602A7.605 7.605 0 0 0 0 349.066a7.605 7.605 0 0 0 7.602 7.602H161.99a176.038 176.038 0 0 0 10.927 25.159H10.643a7.605 7.605 0 0 0-7.602 7.602 7.598 7.598 0 0 0 7.602 7.602h171.305a180.735 180.735 0 0 0 20.141 25.169H39.025c-4.196 0-7.602 3.406-7.602 7.602s3.406 7.602 7.602 7.602h179.516c20.597 16.799 38.456 23.795 41.066 25.16H71.969a7.602 7.602 0 1 0 0 15.204c215.952-.021 261.559.034 262.354-.063 75.498-.885 141.36-48.706 166.73-118.017 1.439-3.943-.588-8.312-4.531-9.751-3.933-1.439-8.302.588-9.751 4.531-44.133 120.56-205.361 147.981-285.735 42.563-86.927-114.312 4.561-271.403 140.146-263.648 95.023 5.257 170.471 93.353 153.11 193.058a7.59 7.59 0 0 0 6.173 8.798 7.59 7.59 0 0 0 8.798-6.173c9.786-55.79-6.747-114.167-48.452-156.91zm-119.63-54.007a183.16 183.16 0 0 0-13.258-.182V73.762h13.258v44.387zm78.01-22.31a2.531 2.531 0 0 1-1.034-1.632c-.401-2.238 2.107-3.795 3.933-2.524l46.78 32.558c1.126.771 1.417 2.391.639 3.527-.79 1.124-2.398 1.418-3.523.631-.599-.419-11.585-8.068-46.795-32.56zm5.687 47.793a173.857 173.857 0 0 0-4.166-2.433l11.556-17.739 3.953 2.747-11.343 17.425z"/>
    <path fill="#FFF" d="M465.091 257.091c-2.053-6.682-9.175-10.138-15.627-7.908l-19.232 6.653a7.602 7.602 0 0 0-4.699 9.67 7.6 7.6 0 0 0 9.67 4.699l16.243-5.619c21.485 76.869-35.226 157.125-119.29 157.125-66.947 0-123.934-53.75-123.934-123.856 0-79.437 74.247-140.266 154.578-119.989-36.783 114.751-35.7 109.132-35.7 112.645 0 8.327 8.235 14.249 16.178 11.493l63.185-21.857a7.602 7.602 0 0 0 4.699-9.67 7.601 7.601 0 0 0-9.67-4.699l-57.471 19.881c35.835-111.808 34.814-106.381 34.814-109.891 0-5.451-3.661-10.279-8.905-11.739-90.184-25.098-176.913 42.702-176.913 133.827 0 113.447 128.994 178.801 220.598 112.651 47.707-34.453 69.082-96.07 51.476-153.416z"/>
</svg>
