<svg xmlns="http://www.w3.org/2000/svg" width="512" height="512" viewBox="0 0 512 512">
    <path fill="#165EC4" d="M426.48 145.88l7.23-7.221a12.981 12.981 0 0 0 7.383 2.284c3.492 0 6.771-1.354 9.235-3.815l20.963-20.938c2.466-2.463 3.824-5.743 3.824-9.237s-1.358-6.774-3.824-9.237L442.078 68.54a12.98 12.98 0 0 0-9.234-3.815 12.974 12.974 0 0 0-9.234 3.815l-20.965 20.938a12.965 12.965 0 0 0-3.824 9.237c0 2.674.801 5.218 2.279 7.371l-7.812 7.801c-28.907-22.621-63.527-38.271-101.3-44.42V45.95h15.088c7.202 0 13.061-5.859 13.061-13.061V13.061C320.137 5.859 314.279 0 307.076 0h-41.672a7.837 7.837 0 0 0 0 15.674h39.059v14.604h-96.927V15.673h27.565a7.837 7.837 0 0 0 0-15.674h-30.178c-7.201 0-13.061 5.859-13.061 13.061v19.828c0 7.202 5.86 13.061 13.061 13.061h15.089v23.516c-37.654 6.129-72.174 21.704-101.027 44.211l-7.602-7.592a12.959 12.959 0 0 0 2.279-7.371c0-3.494-1.358-6.774-3.824-9.237L88.875 68.541a12.98 12.98 0 0 0-9.234-3.815 12.978 12.978 0 0 0-9.235 3.815L41.195 97.717c-2.466 2.463-3.824 5.743-3.824 9.237s1.358 6.774 3.823 9.237l20.964 20.938a12.98 12.98 0 0 0 9.234 3.815c2.678 0 5.228-.802 7.382-2.284l6.968 6.959c-32.879 38.811-52.737 88.958-52.737 143.66C33.006 412.087 133.041 512 256.001 512c47.945 0 93.631-14.967 132.122-43.284 3.487-2.565 4.234-7.47 1.669-10.957s-7.472-4.234-10.957-1.669c-35.779 26.323-78.255 40.236-122.834 40.236-114.317 0-207.321-92.882-207.321-207.049S141.683 82.229 256.001 82.229s207.321 92.882 207.321 207.049c0 54.63-21.114 106.171-59.454 145.127a7.836 7.836 0 0 0 .088 11.082 7.836 7.836 0 0 0 11.083-.089c41.243-41.907 63.956-97.351 63.956-156.121 0-54.577-19.769-104.623-52.515-143.397zM71.392 124.199l-17.266-17.245L79.642 81.47l17.267 17.245-25.517 25.484zm24.905 9.809l-6.274-6.265 10.432-10.42 6.472 6.464a224.82 224.82 0 0 0-10.63 10.221zm180.017-66.526a225.156 225.156 0 0 0-20.313-.926c-6.847 0-13.621.319-20.313.926V45.95h40.626v21.532zM432.842 81.47l25.516 25.484-17.266 17.245-25.517-25.484 17.267-17.245zm-16.899 52.782a224.406 224.406 0 0 0-10.615-10.239l6.699-6.69 10.433 10.42-6.517 6.509z"/>
    <path fill="#165EC4" d="M430.118 221.806a7.837 7.837 0 0 0-14.602 5.693c6.732 17.273 10.552 35.384 11.39 53.943h-6.932a7.837 7.837 0 0 0 0 15.674h6.922c-1.878 41.328-18.523 78.875-44.783 107.492l-4.763-4.755a7.837 7.837 0 0 0-11.074 11.091l4.73 4.724c-28.701 26.071-66.287 42.538-107.623 44.301v-6.47a7.837 7.837 0 0 0-15.674 0v6.437c-41.207-1.974-78.634-18.573-107.186-44.702l4.294-4.288a7.836 7.836 0 0 0 .007-11.083 7.835 7.835 0 0 0-11.082-.007l-4.291 4.286c-26.012-28.556-42.48-65.922-44.348-107.024h6.017a7.837 7.837 0 0 0 0-15.674h-6.017c1.867-41.101 18.337-78.468 44.348-107.024l4.291 4.286a7.812 7.812 0 0 0 5.538 2.291 7.838 7.838 0 0 0 5.538-13.382l-4.292-4.287c28.552-26.129 65.979-42.728 107.185-44.701v6.436a7.837 7.837 0 0 0 15.674 0v-6.46c27.069 1.172 53.571 8.749 77.069 22.126a171.966 171.966 0 0 1 30.542 22.176l-4.719 4.711a7.833 7.833 0 0 0-.008 11.081 7.813 7.813 0 0 0 5.545 2.3 7.812 7.812 0 0 0 5.537-2.291l4.758-4.752a171.851 171.851 0 0 1 19.419 25.578 7.836 7.836 0 0 0 10.792 2.524 7.838 7.838 0 0 0 2.526-10.792c-16.466-26.527-39.509-48.713-66.638-64.158-27.991-15.935-59.875-24.358-92.207-24.358-102.978 0-186.757 83.677-186.757 186.53s83.779 186.531 186.757 186.531 186.757-83.677 186.757-186.531c-.001-23.252-4.254-45.954-12.64-67.472z"/>
    <path fill="#165EC4" d="M263.385 259.639V206.8a7.837 7.837 0 1 0-15.675 0v53.084c-12.842 3.62-22.284 15.422-22.284 29.394 0 16.843 13.715 30.544 30.574 30.544 16.858 0 30.574-13.702 30.574-30.544 0-14.299-9.888-26.329-23.189-29.639zm-7.384 44.51c-8.216 0-14.9-6.671-14.9-14.871s6.684-14.871 14.9-14.871c8.216 0 14.9 6.672 14.9 14.871 0 8.2-6.684 14.871-14.9 14.871zM295.445 340.114h-78.89c-7.203 0-13.061 5.859-13.061 13.061v29.257c0 7.202 5.859 13.061 13.061 13.061h78.89c7.203 0 13.061-5.859 13.061-13.061v-29.257c.001-7.202-5.858-13.061-13.061-13.061zm-46.759 39.706h-29.518v-24.033h29.518v24.033zm44.147 0H264.36v-24.033h28.473v24.033z"/>
</svg>
