<svg xmlns="http://www.w3.org/2000/svg" id="Capa_1" viewBox="0 0 455.4 455.4">
    <style>
        .st0{fill:#165ec4}.st1{fill:#408cf5}.st2{fill:#fff}
    </style>
    <path d="M405.5 412.8c-69.7 56.9-287.3 56.9-355.6 0-69.7-56.9-62.6-300.1 0-364.1s293-64 355.6 0 69.7 307.2 0 364.1z" class="st0"/>
    <path d="M229.1 313.2C166.6 363 96.9 388.6 31.4 390-16.9 307.5-7 107 49.9 48.7c51.2-52.6 211.9-62.6 304.4-29.9 22.7 93.9-24.2 213.3-125.2 294.4z" class="st1"/>
    <path d="M308.8 88.5v54H200.7V188c8.5-2.8 17.1-2.8 28.4-2.8 27 0 49.8 8.5 68.3 24.2s28.4 37 28.4 65.4c0 27-10 49.8-29.9 66.8s-44.1 27-74 27c-37 0-68.3-14.2-93.9-41.2l32.7-45.5c2.8 2.8 5.7 5.7 10 8.5s11.4 8.5 21.3 14.2c10 5.7 21.3 8.5 31.3 8.5s19.9-2.8 28.4-10c8.5-5.7 12.8-15.6 12.8-28.4s-4.3-21.3-12.8-28.4-19.9-10-34.1-10-29.9 5.7-48.4 15.6l-25.6-27V88.5h165.2z" class="st2"/>
</svg>
