<svg xmlns="http://www.w3.org/2000/svg" id="Capa_1" viewBox="0 0 455.4 455.4">
    <style>
        .st0{fill:#165ec4}.st1{fill:#408cf5}.st2{fill:#fff}
    </style>
    <path d="M405.4 412.8c-69.7 56.9-287.3 56.9-355.6 0s-62.6-300.1 0-364.1 293-64 355.6 0 69.7 307.2 0 364.1z" class="st0"/>
    <path d="M229 313.2C166.5 363 96.8 388.6 31.3 390-17 307.5-7.1 107 49.8 48.7 101-3.9 261.7-13.9 354.2 18.8 376.9 112.7 330 232.1 229 313.2z" class="st1"/>
    <path d="M237.6 246.4V198h58.3v48.4h31.3V299h-31.3v65.4h-58.3V299h-111v-46.9L224.7 90h66.8l-93.9 156.4h40z" class="st2"/>
</svg>
