<svg xmlns="http://www.w3.org/2000/svg" id="Capa_1" viewBox="0 0 455.4 455.4">
    <style>
        .st0{fill:#165ec4}.st1{fill:#408cf5}.st2{fill:#fff}
    </style>
    <path d="M405.4 412.8c-69.7 56.9-287.3 56.9-355.6 0s-62.6-300.1 0-364.1 293-64 355.6 0 69.7 307.2 0 364.1z" class="st0"/>
    <path d="M229 313.2C166.5 363 96.8 388.6 31.3 390-17 307.5-7.1 107 49.8 48.7 101-3.9 261.7-13.9 354.2 18.8 376.9 112.7 330 232.1 229 313.2z" class="st1"/>
    <path d="M241.8 138.3c-17.1 0-29.9 5.7-39.8 17.1-10 11.4-15.6 27-17.1 46.9 17.1-11.4 35.6-17.1 54-17.1 25.6 0 46.9 8.5 64 25.6s25.6 39.8 25.6 66.8c0 28.4-10 49.8-27 66.8-17.1 17.1-41.2 25.6-69.7 25.6-19.9 0-37-4.3-51.2-11.4s-25.6-18.5-32.7-31.3c-15.6-25.6-24.2-58.3-24.2-98.1 0-25.6 2.8-46.9 10-66.8 5.7-18.5 14.2-34.1 25.6-45.5 21.3-19.9 46.9-31.3 78.2-31.3 12.8 0 25.6 1.4 37 5.7 11.4 4.3 21.3 7.1 27 11.4s12.8 8.5 21.3 15.6L294.5 161c-1.4-1.4-4.3-4.3-7.1-5.7-2.8-2.8-8.5-5.7-18.5-10-10-4.2-18.5-7-27.1-7zm-7.1 99.5c-12.8 0-22.8 4.3-31.3 11.4-8.5 7.1-12.8 17.1-12.8 28.4 0 11.4 4.3 21.3 11.4 29.9 8.5 8.5 17.1 12.8 29.9 12.8 11.4 0 21.3-4.3 29.9-11.4 8.5-7.1 11.4-17.1 11.4-28.4 0-11.4-2.8-21.3-10-29.9-7.1-8.5-17.1-12.8-28.5-12.8z" class="st2"/>
</svg>
