<svg xmlns="http://www.w3.org/2000/svg" id="Capa_1" viewBox="0 0 455.4 455.4">
    <style>
        .st0{fill:#165ec4}.st1{fill:#408cf5}.st2{fill:#fff}
    </style>
    <path d="M405.4 412.8c-69.7 56.9-287.3 56.9-355.6 0s-62.6-300.1 0-364.1 293-64 355.6 0 69.7 307.2 0 364.1z" class="st0"/>
    <path d="M229 313.2C166.5 363 96.8 388.6 31.3 390-17 307.5-7.1 107 49.8 48.7 101-3.9 261.7-13.9 354.2 18.8 376.9 112.7 330 232.1 229 313.2z" class="st1"/>
    <path d="M248.9 200.9c7.1-10 10-19.9 10-28.4s-2.8-17.1-8.5-22.8c-5.7-5.7-14.2-10-22.8-10-17.1 0-34.1 12.8-49.8 37L128 148.3c12.8-19.9 27-35.6 42.7-45.5s35.6-15.6 58.3-15.6 44.1 7.1 62.6 22.8c18.5 15.6 27 35.6 27 61.2 0 14.2-4.3 28.4-11.4 41.2s-19.9 29.9-39.8 49.8l-49.8 51.2h109.5v55.5H132.3v-45.5l81.1-82.5c17.1-17.3 28.4-30.1 35.5-40z" class="st2"/>
</svg>
